<svg xmlns="http://www.w3.org/2000/svg" viewBox="0 0 47.81 90.66"><defs><style>.cls-1{fill:#313f4d;opacity:0.68;}.cls-2{fill:#fff;}.cls-3{fill:#d96b20;opacity:0.28;}</style></defs><g id="Calque_2" data-name="Calque 2"><g id="Calque_3" data-name="Calque 3"><rect class="cls-1" width="47.81" height="90.66"/><rect class="cls-2" x="2.26" y="2.86" width="43.3" height="85.1"/><path class="cls-3" d="M28.1,31.92c-8,2.32-17.51,1.39-25.84-.43v3.68a22.08,22.08,0,0,1,10.47,1.59c7.09,2.71,12.67,8.05,19.64,2.82C37,36.1,40.59,31.45,45.56,28.44V24.65C39.6,26.3,34.16,30.16,28.1,31.92Z"/><path class="cls-3" d="M31.9,16.86a53.21,53.21,0,0,1,13.66-4.81V2.86H2.26V18.69C12.7,21.31,22.19,21.53,31.9,16.86Z"/><path class="cls-3" d="M25.09,60.09c7.78-1.22,14.41-7.33,20.47-12.75V44.25c-2.78,2.6-5.56,5.49-8.76,7.4a19.84,19.84,0,0,1-16.11,2.12c-5.75-1.72-13.12-8.22-18.43-5.43v4.13C10.16,54.61,16.73,61.39,25.09,60.09Z"/><path class="cls-3" d="M30.46,71.6a28.11,28.11,0,0,1-16.2,0c-4.21-1.34-7.87-4.86-12-6.44V88h43.3V63.4C41,66.93,36.05,70,30.46,71.6Z"/></g></g></svg>