<svg xmlns="http://www.w3.org/2000/svg" viewBox="0 0 138.13 95.62"><defs><style>.cls-1,.cls-5{fill:#313f4d;}.cls-1{opacity:0.68;}.cls-2{fill:#fff;}.cls-3{fill:#fcd66a;opacity:0.34;}.cls-4{opacity:0.55;}</style></defs><g id="Calque_2" data-name="Calque 2"><g id="Calque_3" data-name="Calque 3"><rect class="cls-1" width="138.13" height="95.62"/><rect class="cls-2" x="6.52" y="3.01" width="125.09" height="89.76"/><path class="cls-3" d="M114.81,8.89A103.54,103.54,0,0,1,128.07,3H38.48a43.15,43.15,0,0,1,5.86,3.67c9.34,7,17.35,18.59,30,18.87C89,25.86,102.3,15.19,114.81,8.89Z"/><path class="cls-3" d="M73.29,70.21c-16.4.56-25.1-12.37-30.15-26.2-3.06-8.39-6.11-15.2-14.4-19.6a33.15,33.15,0,0,0-22.22-3V92.77H131.61V40.43C112.63,50.1,95.18,69.47,73.29,70.21Z"/><g class="cls-4"><path class="cls-5" d="M31.69,63.23c-2.37,2.38-4.78,3.82-5.38,3.23s.85-3,3.23-5.38,4.79-3.83,5.38-3.23S34.07,60.85,31.69,63.23Z"/><path class="cls-5" d="M26.05,78c-2.38,2.37-4.79,3.82-5.38,3.22s.85-3,3.23-5.38S28.69,72,29.28,72.6,28.43,75.61,26.05,78Z"/><path class="cls-5" d="M42.35,60.79C40,63.17,37.56,64.62,37,64s.85-3,3.23-5.38,4.79-3.82,5.38-3.23S44.73,58.42,42.35,60.79Z"/><path class="cls-5" d="M41.88,71.29c-2.38,2.37-4.78,3.82-5.38,3.23s.85-3,3.23-5.39,4.79-3.82,5.38-3.23S44.26,68.91,41.88,71.29Z"/><path class="cls-5" d="M101.42,24.26C99,26.63,96.63,28.08,96,27.49s.85-3,3.23-5.39,4.78-3.82,5.38-3.23S103.8,21.88,101.42,24.26Z"/><path class="cls-5" d="M97.91,36.58c-2.38,2.37-4.79,3.82-5.39,3.23s.86-3,3.23-5.39,4.79-3.82,5.39-3.23S100.28,34.2,97.91,36.58Z"/><path class="cls-5" d="M110.55,24.87c-2.38,2.37-4.79,3.82-5.38,3.22s.85-3,3.23-5.38,4.79-3.82,5.38-3.23S112.93,22.49,110.55,24.87Z"/></g></g></g></svg>