<svg xmlns="http://www.w3.org/2000/svg" viewBox="0 0 65.52 85.04"><defs><style>.cls-1{fill:#d96b20;opacity:0.68;}.cls-2{fill:#fff;}.cls-3{fill:#5c473e;opacity:0.16;}</style></defs><g id="Calque_2" data-name="Calque 2"><g id="Calque_3" data-name="Calque 3"><rect class="cls-1" width="65.52" height="85.04"/><rect class="cls-2" x="3.09" y="2.68" width="59.34" height="79.82"/><path class="cls-3" d="M13.87,35.2a10.93,10.93,0,0,1,4.3,6.07c1.36-6,3.68-11.42,11.75-10.14a14.64,14.64,0,0,1,10.93,7.74,13.87,13.87,0,0,1,.9,2.93c1.82-4.57,4.65-8.38,9.94-9.45a11.89,11.89,0,0,1,10.74,3.4V2.68H3.09v31A12,12,0,0,1,13.87,35.2Z"/><path class="cls-3" d="M55.94,48c-.46-.64-1.32-2.8-2-3.21a9,9,0,0,1-.51,1.27c-1.83,4-2.19,8.52-3.42,12.68-.88,3-4.47,5.56-7.67,4.35-8-3-11.11-10.08-12.39-18.14a1.51,1.51,0,0,0-.07-.39,2.42,2.42,0,0,0,0,.25,17.41,17.41,0,0,1-2.09,8.82c-3.17,5.35-11.82,8.54-16.92,4-2.1-1.86-2.87-4.41-3.42-7-.26-1.22,0-3.73-.77-4.74q-.25-2.37-1,.33A5.52,5.52,0,0,0,3.33,50.3a6.65,6.65,0,0,1-.24,1.21v31H62.43V53.13A13.18,13.18,0,0,1,55.94,48Z"/></g></g></svg>