<svg xmlns="http://www.w3.org/2000/svg" viewBox="0 0 131.04 193.91"><defs><style>.cls-1,.cls-4,.cls-5{fill:#d96b20;}.cls-1{opacity:0.68;}.cls-2,.cls-6{fill:#fff;}.cls-3{fill:#5a8589;opacity:0.65;}.cls-4{opacity:0.64;}.cls-6{opacity:0.39;}</style></defs><g id="Calque_2" data-name="Calque 2"><g id="Calque_3" data-name="Calque 3"><rect class="cls-1" width="131.04" height="193.91"/><rect class="cls-2" x="6.18" y="6.11" width="118.67" height="182.02"/><polygon class="cls-3" points="6.47 134.41 45.45 90.57 79.55 133.8 124.61 94.22 124.86 188.12 6.18 188.12 6.47 134.41"/><circle class="cls-4" cx="66.15" cy="52.81" r="13.4"/><polygon class="cls-5" points="0 0 6.18 6.11 124.86 6.11 131.04 0 0 0"/><polygon class="cls-6" points="8.91 188.61 125.83 40.63 125.83 50.38 15.61 189.22 8.91 188.61"/><polygon class="cls-6" points="22.91 188.61 124.61 72.3 124.61 76.56 27.79 188.61 22.91 188.61"/><polygon class="cls-5" points="0 193.91 6.18 188.12 124.86 188.12 131.04 193.91 0 193.91"/></g></g></svg>