<svg xmlns="http://www.w3.org/2000/svg" viewBox="0 0 74.95 82.69"><defs><style>.cls-1{isolation:isolate;}.cls-2,.cls-3{fill:#d96b20;}.cls-3{mix-blend-mode:multiply;opacity:0.52;}.cls-4{fill:#fff;opacity:0.31;}.cls-5,.cls-6{fill:#5c473e;}.cls-5{opacity:0.47;}</style></defs><g class="cls-1"><g id="Calque_2" data-name="Calque 2"><g id="Calque_3" data-name="Calque 3"><path class="cls-2" d="M73.87,37.93c4.5,23.47-9.16,44.73-31.6,44.76C19.19,82.72,0,60.46,0,36,0,14.24,15.46-.88,34.14,0,52.4.94,69.85,17,73.87,37.93Z"/><path class="cls-3" d="M4.07,36.07C3.85,15.05,18.15.22,35.9.17,35.32.11,34.73.07,34.14,0,15.46-.88,0,14.24,0,36c0,24.5,19.19,46.76,42.27,46.73.73,0,1.45,0,2.17-.07C22.39,81.23,4.33,59.68,4.07,36.07Z"/><path class="cls-4" d="M74.19,37.48C78.13,57.88,66.33,76,47,76c-19.78,0-36.65-19.06-37.2-40.22C9.34,16.69,22.57,3.22,39,4,55.15,4.75,70.63,19.05,74.19,37.48Z"/><path class="cls-5" d="M66.05,43.17q-.85.51-1.74,1c-.75-3.33-1.58-6.59-2.42-9.8-1.44-5-2.92-9.86-4.56-14.57l-.06-.15a18.24,18.24,0,0,0,5.58-3.5,20.48,20.48,0,0,1-5.77,3c-1.53-4.36-3.13-8.6-4.93-12.69.73,2.19,1.49,4.39,2.19,6.63.69,2.08,1.35,4.18,2,6.32a56,56,0,0,1-7,1.84q-2,.41-4,.75c-.59-1.83-1.18-3.64-1.79-5.43-1.88-5.56-3.79-11-5.83-16.15l5,16.31c.54,1.79,1.09,3.59,1.64,5.42q-5.07.83-10.3,1.33l-2,.2C31.54,21.73,31,19.88,30.36,18c-1.91-5.84-3.86-11.5-6-16.92.84,2.75,1.71,5.53,2.55,8.36s1.76,5.78,2.61,8.75l1.6,5.48c-4,.39-8.12.66-12.24.91-.24-.8-.47-1.61-.72-2.4-1.63-5.3-3.3-10.44-5.15-15.38l2.12,7.63,2.18,8c.2.75.4,1.51.61,2.26-2.67.17-5.36.3-8.06.41s-5.55.23-8.35.34c5.6.32,11.16.33,16.66.2,1.2,4.48,2.41,9.05,3.54,13.76,1.1,4.3,2.12,8.71,3.09,13.24l-2.47.22c-3.18.27-6.39.47-9.62.64s-6.52.32-9.8.43a184.82,184.82,0,0,0,19.55,0c.87,0,1.73-.1,2.59-.15.29,1.39.58,2.8.87,4.22.69,3.28,1.24,6.64,1.79,10l.73,5.25.47,5.39a116.13,116.13,0,0,0-2-20.84c-.24-1.39-.5-2.77-.76-4.14q6.36-.43,12.55-1.3c.43,1.83.84,3.66,1.24,5.52s.81,3.72,1.17,5.6.79,3.83,1.08,5.78.71,3.94,1,6L44,81.42a171.36,171.36,0,0,0-3.13-23.59c-.35-1.87-.74-3.71-1.13-5.54l1.57-.22c3.74-.65,7.44-1.39,11-2.36.38,1.48.77,3,1.15,4.47l1.3,5.25,1.18,5.4c.39,1.83.71,3.68,1.08,5.55s.53,3.8.82,5.73a131.22,131.22,0,0,0-3.47-22c-.36-1.56-.73-3.1-1.11-4.63,1.86-.53,3.69-1.12,5.47-1.81a45.88,45.88,0,0,0,4.84-2.19c.38,1.6.77,3.21,1.13,4.83.56,2.77,1.2,5.58,1.64,8.42s.9,5.82,1.36,8.81a130.22,130.22,0,0,0-2.1-17.26c-.34-1.78-.72-3.55-1.11-5.3q1-.55,1.92-1.17a17.51,17.51,0,0,0,5.77-6.08A17.92,17.92,0,0,1,66.05,43.17ZM25.88,52.53c-.91-4.58-1.94-9-3-13.39-1.2-4.63-2.41-9.15-3.69-13.54,4.13-.12,8.22-.37,12.27-.71,1.14,4,2.28,8,3.34,12.16q1.86,6.83,3.55,14C34.25,51.68,30.09,52.15,25.88,52.53ZM41,50.67c-.51.09-1,.16-1.56.24-1.08-4.82-2.26-9.51-3.45-14.08q-1.69-6.15-3.47-12l1.91-.17c3.5-.4,7-.88,10.36-1.5,1.12,3.71,2.26,7.5,3.35,11.38C49.44,39,50.72,43.68,52,48.45Q46.6,49.82,41,50.67ZM58.3,46.61c-1.74.6-3.53,1.11-5.35,1.59-1.19-4.75-2.46-9.38-3.75-13.89Q47.45,28.52,45.7,23c1.35-.26,2.69-.55,4-.88a52.7,52.7,0,0,0,6.83-2.15c1.45,4.72,2.93,9.55,4.25,14.53.92,3.31,1.76,6.69,2.58,10.12A43.22,43.22,0,0,1,58.3,46.61Z"/><path class="cls-6" d="M34,25.07a1.62,1.62,0,0,1-1.74,1.79,2.16,2.16,0,0,1-2.06-1.92A1.63,1.63,0,0,1,32,23.17,2.17,2.17,0,0,1,34,25.07Z"/><path class="cls-6" d="M40.7,52.47a1.82,1.82,0,0,1-1.82,2.1,2.39,2.39,0,0,1-2.24-2.17,1.82,1.82,0,0,1,1.83-2.08A2.39,2.39,0,0,1,40.7,52.47Z"/><path class="cls-6" d="M66.19,44.24a1.58,1.58,0,0,1-1.59,2,2.47,2.47,0,0,1-2.25-2.05A1.59,1.59,0,0,1,64,42.21,2.47,2.47,0,0,1,66.19,44.24Z"/><path class="cls-6" d="M58.16,19.4a1.43,1.43,0,0,1-1.54,1.7,2.27,2.27,0,0,1-2.09-1.83,1.43,1.43,0,0,1,1.55-1.68A2.26,2.26,0,0,1,58.16,19.4Z"/></g></g></g></svg>