<svg xmlns="http://www.w3.org/2000/svg" xmlns:xlink="http://www.w3.org/1999/xlink" viewBox="0 0 112.91 96.23"><defs><style>.cls-1{fill:none;}.cls-2{clip-path:url(#clip-path);}.cls-3{fill:#fef2de;}.cls-4{fill:#5a8589;opacity:0.13;}.cls-5{opacity:0.24;}.cls-6{fill:#4c5965;}</style><clipPath id="clip-path" transform="translate(6.85 1.82)"><path class="cls-1" d="M27.06.83S-7.81,70.56,1.62,74.33,72.3,98.84,78.89,92.24s23.56-79.16,23.56-79.16S46.85-3.89,27.06.83Z"/></clipPath></defs><g id="Calque_2" data-name="Calque 2"><g id="Calque_3" data-name="Calque 3"><g class="cls-2"><path class="cls-3" d="M27.06.83S-7.81,70.56,1.62,74.33,72.3,98.84,78.89,92.24s23.56-79.16,23.56-79.16S46.85-3.89,27.06.83Z" transform="translate(6.85 1.82)"/><path class="cls-4" d="M25.07.83S-7.23,70.56,1.5,74.33,67,98.84,73.09,92.24,94.91,13.08,94.91,13.08,43.4-3.89,25.07.83Z" transform="translate(6.85 1.82)"/><g class="cls-5"><path class="cls-6" d="M48.7,28.72c.08.18.17.06.2.07C48.72,28.51,48.67,28.74,48.7,28.72Z" transform="translate(6.85 1.82)"/><polygon class="cls-6" points="53.74 27.77 53.81 27.8 53.47 27.43 53.74 27.77"/><path class="cls-6" d="M45.45,23.23c-.07.36.55,1,.74,1.49v.1l.27.14A15.68,15.68,0,0,1,45.45,23.23Z" transform="translate(6.85 1.82)"/><path class="cls-6" d="M45.11,21.55c0,.13-.23-.28.16.35l0-.07Z" transform="translate(6.85 1.82)"/><path class="cls-6" d="M45.25,21.83c.16.28,0-.22,0,0Z" transform="translate(6.85 1.82)"/><path class="cls-6" d="M44.51,20.53l.27.34c0-.1-.17-.45-.07-.34C44.47,20.16,44.47,20.27,44.51,20.53Z" transform="translate(6.85 1.82)"/><path class="cls-6" d="M44.17,20.25l.13.18C44.31,20.38,44.29,20.33,44.17,20.25Z" transform="translate(6.85 1.82)"/><path class="cls-6" d="M44.59,20.81l-.29-.38c0,.07-.06.11.13.18C44.35,20.6,44.45,20.66,44.59,20.81Z" transform="translate(6.85 1.82)"/><path class="cls-6" d="M44.68,21.06c.07.24.19.52-.08.18C45,22,45.09,21.77,44.68,21.06Z" transform="translate(6.85 1.82)"/><path class="cls-6" d="M45.17,23.2l.09.31.2.21C45.36,23.62,45.22,23.15,45.17,23.2Z" transform="translate(6.85 1.82)"/><path class="cls-6" d="M43.36,18.12s0,.19-.08.25l.2.25C43.43,18.46,43.31,18.17,43.36,18.12Z" transform="translate(6.85 1.82)"/><path class="cls-6" d="M43.28,18.37,43,18C43.17,18.36,43.24,18.41,43.28,18.37Z" transform="translate(6.85 1.82)"/><polygon class="cls-6" points="50.77 22.12 51.28 22.72 50.69 21.99 50.77 22.12"/><polygon class="cls-6" points="49.38 18.35 49.6 18.53 49.23 18.19 49.38 18.35"/><path class="cls-6" d="M42,15.48c.17.13,0-.32.16-.16a3.86,3.86,0,0,0-.55-.67A2.57,2.57,0,0,1,42,15.48Z" transform="translate(6.85 1.82)"/><path class="cls-6" d="M41.27,14.33a4,4,0,0,0,.29.32A2.21,2.21,0,0,0,41.27,14.33Z" transform="translate(6.85 1.82)"/><path class="cls-6" d="M42.63,17.27a.63.63,0,0,0-.05-.4l0,.23Z" transform="translate(6.85 1.82)"/><path class="cls-6" d="M42.54,17.11h0l-.18-.36Z" transform="translate(6.85 1.82)"/><path class="cls-6" d="M42.65,17.31l0,0S42.63,17.3,42.65,17.31Z" transform="translate(6.85 1.82)"/><path class="cls-6" d="M43.44,19.15c-.19-.21-.54-.68-.38-.14C43.24,19.15,43.15,18.83,43.44,19.15Z" transform="translate(6.85 1.82)"/><path class="cls-6" d="M42.61,17.59l.21.46s0-.13.12,0Z" transform="translate(6.85 1.82)"/><polygon class="cls-6" points="49.31 19.21 49.46 19.41 49.38 19.24 49.31 19.21"/><path class="cls-6" d="M41.56,15.15a3.58,3.58,0,0,1-.4-.61c.11.27.24.54.37.79C41.58,15.34,41.71,15.41,41.56,15.15Z" transform="translate(6.85 1.82)"/><path class="cls-6" d="M42,16.1l0,0S42,16.12,42,16.1Z" transform="translate(6.85 1.82)"/><polygon class="cls-6" points="46.78 14.03 46.77 14.08 46.8 14.08 46.78 14.03"/><path class="cls-6" d="M41.53,15.38a1,1,0,0,0,.26.39,4.64,4.64,0,0,1-.26-.44S41.49,15.32,41.53,15.38Z" transform="translate(6.85 1.82)"/><path class="cls-6" d="M40.87,13.71c0,.11.07.23.11.36C41,14,40.92,13.73,40.87,13.71Z" transform="translate(6.85 1.82)"/><path class="cls-6" d="M42,16l0,0C42,15.93,42,16,42,16Z" transform="translate(6.85 1.82)"/><path class="cls-6" d="M42,16l-.21-.21q.1.17.21.3A.14.14,0,0,1,42,16Z" transform="translate(6.85 1.82)"/><path class="cls-6" d="M38.78,11.92c.13,0,.5.42.61.91.31.38.53-.09.53-.57-.05,0-.1,0-.4-.36,0,.18.38,1,.08.73-.36-.55-.21-.5-.3-.81,0,.31-.59-.63-.73-.4l.34.47S38.74,11.76,38.78,11.92Z" transform="translate(6.85 1.82)"/><path class="cls-6" d="M40.35,13.1l.11.18a3.32,3.32,0,0,1-.18-.71c-.21-.27-.28-.31-.33-.31l.45.9Z" transform="translate(6.85 1.82)"/><path class="cls-6" d="M40.89,14.08c-.19-.07-.47-.48-.46-.14.28.52.29.31.51.6-.48-.84.2.21-.06-.44.11.16.2.3.28.44L41,14.07v0h0s0,.06,0,0v0l-.07,0c-.1-.26,0-.05.07,0h0l-.52-.82C40.54,13.47,40.67,13.69,40.89,14.08Z" transform="translate(6.85 1.82)"/><path class="cls-6" d="M42.56,18.7s0,0,0-.05S42.51,18.59,42.56,18.7Z" transform="translate(6.85 1.82)"/><path class="cls-6" d="M42.45,18.31a.65.65,0,0,1,.22.28c0,.2-.06,0-.1.06s.32.38.17,0l-.05-.05a2,2,0,0,1-.17-.84A1.19,1.19,0,0,0,42.45,18.31Z" transform="translate(6.85 1.82)"/><path class="cls-6" d="M41.63,16.19l-.44-.68.09.41,0-.05C41.52,16.29,41.55,16.16,41.63,16.19Z" transform="translate(6.85 1.82)"/><polygon class="cls-6" points="46.79 13.92 46.97 13.95 46.57 13.63 46.79 13.92"/><polygon class="cls-6" points="46.29 13 46.42 12.98 46.22 12.77 46.29 13"/><path class="cls-6" d="M8.47,25l.14.2C8.55,25.1,8.5,25.05,8.47,25Z" transform="translate(6.85 1.82)"/><path class="cls-6" d="M7.67,23.49H7.6C7.66,23.53,7.7,23.55,7.67,23.49Z" transform="translate(6.85 1.82)"/><path class="cls-6" d="M21.36,4.26c-.36,0-.78.07-.68.18l.16.07A1.86,1.86,0,0,1,21.36,4.26Z" transform="translate(6.85 1.82)"/><path class="cls-6" d="M6.19,13.23H6.3L6.44,13Z" transform="translate(6.85 1.82)"/><path class="cls-6" d="M6.24,13.85,5.8,14A3,3,0,0,0,6.24,13.85Z" transform="translate(6.85 1.82)"/><path class="cls-6" d="M13,33.21l.25.17C13,33,13.06,33.2,13,33.21Z" transform="translate(6.85 1.82)"/><path class="cls-6" d="M34.37,1.73A4.27,4.27,0,0,0,34.09,1C34.19,1.39,34.22,1.7,34.37,1.73Z" transform="translate(6.85 1.82)"/><path class="cls-6" d="M6.86,25.09c.09.12.14.16.17.14S6.87,25.05,6.86,25.09Z" transform="translate(6.85 1.82)"/><path class="cls-6" d="M33.69.28l.05.15a4.91,4.91,0,0,1,.35.61A1.6,1.6,0,0,0,33.69.28Z" transform="translate(6.85 1.82)"/><path class="cls-6" d="M36.44,34.51l.08,0S36.49,34.48,36.44,34.51Z" transform="translate(6.85 1.82)"/><path class="cls-6" d="M45.83,31.1l-.35.2A1.56,1.56,0,0,0,45.83,31.1Z" transform="translate(6.85 1.82)"/><path class="cls-6" d="M37.52,7.43c.11.2,0,0,0,0Z" transform="translate(6.85 1.82)"/><path class="cls-6" d="M37.54,8.64s-.07-.05-.1,0A.13.13,0,0,1,37.54,8.64Z" transform="translate(6.85 1.82)"/><path class="cls-6" d="M31.61-.26h0C31.65-.25,31.64-.25,31.61-.26Z" transform="translate(6.85 1.82)"/><path class="cls-6" d="M37.62,7.76l-.1-.27A2.09,2.09,0,0,0,37.62,7.76Z" transform="translate(6.85 1.82)"/><path class="cls-6" d="M37.65,7.69l.08.18S37.77,7.85,37.65,7.69Z" transform="translate(6.85 1.82)"/><path class="cls-6" d="M37.36,7.16a2,2,0,0,1,.16.33s0-.06,0-.06A2.71,2.71,0,0,1,37.36,7.16Z" transform="translate(6.85 1.82)"/><path class="cls-6" d="M20.55,43.35h0C20.76,43.19,20.68,43.24,20.55,43.35Z" transform="translate(6.85 1.82)"/><polygon class="cls-6" points="23.78 10.05 23.8 10.03 23.77 10.04 23.78 10.05"/><path class="cls-6" d="M16.27,8.69a1.12,1.12,0,0,1,.65-.47L16.5,8Z" transform="translate(6.85 1.82)"/><path class="cls-6" d="M10.42,28.61l-.15-.55c.5.5.66,1,.57.42-.42.13-1.06-1.9-1.47-1.77l-.1-.37c.05.1.08.1.12.19-.15-.73-.52-.32-.9-1.17-.12-.3-.17-.53,0-.36L8,24.42c-.1-.19,0-.18.08,0l-.54-.95h0a6.14,6.14,0,0,1-.52-.5c-.07-.28.11.1.12,0l-.37-.49c0-.27.31.13.49.5.12-.7-.33-.39-.68-1.59l.32.48c0-.44-.25-.79-.41-1.44,0,.18.26,1.33-.14.8a2,2,0,0,0-.4-.68c.13-.07-.06-.36-.27-.74l.19-.07c-.27-.39-.35-.31-.56-.51a.86.86,0,0,1-.08-.81c-.36-.75,0,.63-.45-.23a7.17,7.17,0,0,0-1-1.72c-.17-.46.14,0,.11-.17L3.56,16c0-.08,0-.06,0-.08-.14-.12-.19.09-.41-.22-.13,0-.16-.19-.15-.33.35-.09.58-.08.74-.33.18,0,0,.15.07.19a9.24,9.24,0,0,0,1.28-1.07L5.8,14c-.51.1,0-.35.39-.75l-.46,0,.74-.51c.11,0,.06.08,0,.23l.12-.12c.32-.09.23.09.08.3l-.34,0c-.14.21-.26.43-.16.52a1.28,1.28,0,0,1,.23-.19c0,.06,0,.1,0,.11s.1-.08.2-.2l.29.11v-.1L7.94,13a12.21,12.21,0,0,1,2.24-1.93c-.21.3.07.27.14.46-.41,0-.86.55-1.49.84.33-.15.3,0,.24,0l1-.74c0,.16.29,0,.6-.11-.36-.16.71-.61,1.1-.93.08.08,0,.23-.52.49.7-.1.59-.73,1.27-.86-.13.07-.21.09-.24.17.26-.25,1.05-.58.91-.4l-.12.07c.88-.43,2.65-1.41,2.65-1.71a1,1,0,0,1,0,.42l1.13-1.63c0,.28.76.49.1,1a2.91,2.91,0,0,0,.89-.49c-.15,0-.51-.11-.32-.23a6.21,6.21,0,0,0,1.19-.22c-.24.06-.17-.38.17-.55,0,.08.19.3.09.4l.67-.76c-.18.17.1.29.34.28-.12,0,.72-.38.93-.52l-.4.11c1-.45.7-.94,1.64-1.42-.08.13-.07.55.43.34A4.75,4.75,0,0,1,23.89,3.3h.21l.58-.44a16.37,16.37,0,0,1-1.6,2.07c.39-.12.15.06.68-.23.23,0-.22.28-.37.37l1.25-.6c-.15-.16.84-.69.71-.82l-1.23.91c-.15-.16.49-1,1.38-1.38.26,0,0,.43.06.48a2.86,2.86,0,0,1,.87-.56l-.32.3c.52-.19.66-.67,1.34-.8.21-.1.73-.08.7-.21-.44,0-.86-.67-.72-.95a14.24,14.24,0,0,1,1.45-.37c.42,0-.29.67.07.66,0-.05.14-.21.2-.27.24-.07,0,.2.45-.07,0-.23.94-.47.13-.27a8.1,8.1,0,0,1,1-.5c-.22-.05.21-.66.7-1,0,.07.11.09.16.1l.63-.3c.28.6.41,1,.76,1.62,0,.1.15.54,0,.41a1.94,1.94,0,0,1,.37.45c.1.6-.34-.58-.33-.08.13,0,.51.6.78.94.11-.21-.43-.89-.69-1.23.23-.13.83.4,1.41,1.24.44.68,0,.39.11.49.67,1.36,1,.92,1.44,2.13.08.52-.29.18-.35.33a11.07,11.07,0,0,1-.59-1.33l.19.52a2.41,2.41,0,0,1-.46-.76c.06.44,1.17,2.28,1.59,3.38.15.15.37.44.35.26l-.19-.32c0-.36.49.53.33.09a5.29,5.29,0,0,1,1,1.46l-.11.21a1,1,0,0,0-.26-.6c.22.21.27,1.07.65,1.23l-.11-.5a5.94,5.94,0,0,1,1,1.42c0-.34-.08-.12-.09-.61-.07.47-.73-1.4-.7-.72,0-.53-.27-.75-.35-1.37-.05,0,0,.24-.23-.23l-.1-.08v0h0a.6.6,0,0,1,0,.28c-.25-.16-.63-.89-.83-1.1s.13.07.11-.11l-.3-.31c.11-.1-.17-.84.24-.23l-.3-.58a4.07,4.07,0,0,0-.53-1.13c-.12-.28-.51-.61-.28-.42l-.56-.87,0,0A15,15,0,0,1,33.74.43L33.59.22,33.51.1,33.4-.1c-.17-.29-.34-.61-.54-1l0-.3a2.59,2.59,0,0,1-.21-.38,11.39,11.39,0,0,0-1.88,1C30.17-.9,28.84.11,28.13.41l.05.16a15.66,15.66,0,0,0-1.45.88l.1.11a20.35,20.35,0,0,1-2.12,1c0-.08.24-.17.4-.22-1.1.22-1.89,1.26-2.86,1.51a1.34,1.34,0,0,1-.52.28l.05,0-.08,0-.34.09a1.77,1.77,0,0,0,.29-.07,6.84,6.84,0,0,0-.64.4l-.17-.08-.06,0c-.26.08-.16.17,0,.2a2.44,2.44,0,0,0-.28.26c-.32-.12-.61.41-1,.32-.1.2-1.19.74-1.19,1,0,0-.1,0,0-.08a2.52,2.52,0,0,0-.79.44l-.2-.12-.48.55c-.42.09-.6.11-.31-.21-.76.66-.66.45-1.3,1l0-.13c-.26.14-.6.52-.81.51-.71.1-2.94,1.52-4.56,2.13.46.17-.79.23-.71.51-.13,0-.37,0-.16-.16-.73.49-1.22.5-1.65,1-.13,0,.11-.2,0-.2s-.21.2-.32.19.08-.12.19-.22c-.79.43-.74.71-.68,1a1.17,1.17,0,0,0-.86.52c-.18,0-.45.05,0-.24-.28.14-1.74.79-1.67,1a1.14,1.14,0,0,0-.46.25l-.77.39L2,15l.27-.11a.35.35,0,0,1-.2.25c.13.22.19.48.43.88h0a3.38,3.38,0,0,0,.44.93,2.85,2.85,0,0,1,.36.82l.1-.13c.35,0,.35,1.08.8,1.66l0-.27c.28.3.13,1.19.28,1.57,0,.09-.11-.1-.18-.2.32,1,.24,0,.64.69,0,.18-.32,0-.1.44,0,.27,1,1.18,1.18,1.91,0-.17,0-.35.22-.06.29.48.43,1.47.9,1.79,0,.08,0,.11,0,.12a8.67,8.67,0,0,0,1,1.33c-.28.59,1.46,2.22,1,2.43l.63,1.15H9.62a3,3,0,0,0,.85,1.16c.06.19-.05.09-.08.09a5.36,5.36,0,0,0,1.26,2l-.09.17a25.29,25.29,0,0,0,1.33,2.64s-.06,0-.12-.08c.79,1.1,1.12,3.05,1.86,3.22l.54.72c-.5-1,.3,0,.16-.43.24.39.4,1.12.11.64v-.09c-.36,0,.57,1.31.38,1.38.34.63.66,1.27,1,1.9.4.81.81,1.62,1.2,2.42l2.67-1.34-.33-.09.66-.34c.2,0,.32,0-.15.28.31,0,.73-.51.72-.56.95-.4-.23.42.05.28l.37-.22-.1,0a2.23,2.23,0,0,1,.81-.64c.38-.15.25,0,.4,0s.05,0,.21-.11l.84-.41h-.42c.32-.28.78-.4.3-.39.71,0,3.13-1.52,3.52-1.62a7.21,7.21,0,0,1,1.58-1c-.17,0-.36-.08.19-.35,0,.49,1.07-.36,1.65-.32-.48,0,1.51-.85.77-.78.46-.21.1.12.49,0,1-.71,2.4-1.16,3.7-1.91,0-.06-.27,0,0-.24l.83-.12c.25-.16.09-.41.66-.5-.09,0-.23,0-.06-.12,2.72-1.13,5.19-3,8.06-3.95-.41.1-.17,0,.1-.19-.19.07-.06-.12-.13-.17l1.2-.4c.1-.29,1.17-.64,1.19-.88l-.33.22c.35-.45-.9-.12-1-.43-.39.52-1.56.38-2.23,1.17-.22.05.12-.17,0-.18a1.81,1.81,0,0,1-.91.6l0-.06c-1.35.75-2,.94-3.56,1.68l.19.07a2.5,2.5,0,0,1-.6.2c-.27.4.93-.48.7-.07-.58,0-2.31,1.22-2.77,1.07-.51.26.23.07-.28.34h-.18l-.07.17c-.34.16-.56.14-.61.08a3,3,0,0,0,.3-.19,9.53,9.53,0,0,0-1.35.72L35.6,35c-1.34.81-3.08,1.59-4.32,2.47h.14c-1,.65-.85.36-1.94,1l0,0a3.2,3.2,0,0,1-.78.52c.24-.22-.6.14-.28-.14-1,.71-.49.39-1.09,1l-.23,0a1.93,1.93,0,0,1-.73.61c.41-.33-.44,0,0-.36-1.29.39-1.62,1.15-2.33,1.1-.38.58,1.1-.37.83-.15.3,0-.33.45-.71.61s-.83,0-1.77.48c.1-.05.09-.08.18-.13-.39.12-.63.47-1.13.58-.15.3-.56.29-.51.54l.83-.5a5.52,5.52,0,0,1-1.65,1.12,2.13,2.13,0,0,1,.4-.39c-.27.06-.43.29-.71.35-.05-.26,1-.6,1.45-1.05-.3,0-.9.68-.77.3-.21.51-.94.46-1.46,1l0-.16c-.07.07-.11.17-.22.22a.85.85,0,0,0,.09-.27.23.23,0,0,1-.31.12c0-.09,0-.15-.07-.17a.34.34,0,0,1,.06.21s-.14.27,0,.29l-.09.07a.58.58,0,0,1-.14-.58c.09-.07,0-.45-.36-1.09.12.18.3.76.08.49a4.42,4.42,0,0,1-.27-.87c-.53-.93-.06.22-.36-.14,0-.41-.31-.43-.58-.82l.13-.07c-.48-1.13-.43-.14-.84-1.17l.4.31-.31-.48.21,0a3.77,3.77,0,0,1-.71-1.24c0,.17-.29.06-.54-.42-.1-.37.22.11-.16-.55a.7.7,0,0,1,.4.58c.06,0,.16.1.22.11a5.26,5.26,0,0,0-.58-1.14,1.19,1.19,0,0,1,.11.29l-.71-.89c0-.18.08-.08.18,0-.12-.19-.25-.29-.42-.58.15,0,.26-.06.53.33l-.62-.87c0-.09-.12-.55,0-.45-.21-.56-.89-1.16-1.17-1.89a.87.87,0,0,1-.19-.23,8.47,8.47,0,0,0-1-2l0-.53c-.37-.58.06.72-.54-.24-.44-.68,0-.36-.05-.63a3.45,3.45,0,0,1-1-1.54A5.57,5.57,0,0,1,10.42,28.61Zm-4-7.35c.1.13.34.37.31.52C6.49,21.7,6.5,21.53,6.42,21.26Zm1-8.34a.93.93,0,0,1-.48.21A1.78,1.78,0,0,1,7.42,12.92ZM36.27,5.34h0C36.13,5,36.17,5.11,36.27,5.34Zm.29.7s.07,0,.07,0a1,1,0,0,1-.22-.35C36.4,5.76,36.42,5.85,36.56,6ZM23.12,43.15l-.14,0C23.25,43,23.18,43.07,23.12,43.15Z" transform="translate(6.85 1.82)"/><path class="cls-6" d="M6.24,13.78a.19.19,0,0,1-.1,0S6.11,13.81,6.24,13.78Z" transform="translate(6.85 1.82)"/><path class="cls-6" d="M12.93,33.17v0h0Z" transform="translate(6.85 1.82)"/><path class="cls-6" d="M29.25,1.67a.72.72,0,0,1-.3.07S29,1.78,29.25,1.67Z" transform="translate(6.85 1.82)"/><path class="cls-6" d="M38.65,9.43,38.39,9a1.19,1.19,0,0,1,.16.4S38.58,9.3,38.65,9.43Z" transform="translate(6.85 1.82)"/><path class="cls-6" d="M39.77,13.57s.07.13.12.18L40,13.7C39.8,13.44,39.65,13.28,39.77,13.57Z" transform="translate(6.85 1.82)"/><path class="cls-6" d="M38.41,10.06c-.09.1.09.34.27.63l0,0C38.85,10.64,38.63,10.35,38.41,10.06Z" transform="translate(6.85 1.82)"/><path class="cls-6" d="M38.72,10.76c.05.09.1.18.14.27S38.82,10.91,38.72,10.76Z" transform="translate(6.85 1.82)"/><path class="cls-6" d="M37.08,6.84c.05.16.19,0,.19.11C37.5,7,36.59,6.11,37.08,6.84Z" transform="translate(6.85 1.82)"/><polygon class="cls-6" points="45.02 12.32 45.1 12.14 44.9 12.04 45.02 12.32"/><path class="cls-6" d="M37,8.1l.21.49s.07,0,.12.11C37.2,8.4,37.06,8.06,37,8.1Z" transform="translate(6.85 1.82)"/><path class="cls-6" d="M37.35,8.7a2.2,2.2,0,0,0,.23.37C37.53,9,37.43,8.81,37.35,8.7Z" transform="translate(6.85 1.82)"/><polygon class="cls-6" points="44.63 11.7 44.58 11.54 44.42 11.2 44.63 11.7"/><path class="cls-6" d="M34.34,3,34,2.47c-.08,0,0,.13.09.31S34.33,3.07,34.34,3Z" transform="translate(6.85 1.82)"/><path class="cls-6" d="M34.78,4.74a.68.68,0,0,1,0-.28l-.18.07Z" transform="translate(6.85 1.82)"/><path class="cls-6" d="M33.94,3.25c-.08,0-.54-.68-.18,0C33.84,3.25,34.15,3.75,33.94,3.25Z" transform="translate(6.85 1.82)"/><polygon class="cls-6" points="35.05 3.44 35.18 3.37 35.01 3.1 35.05 3.44"/><path class="cls-6" d="M21.66,6c.65-.25.06-.25.66-.46.11-.14-.49.17-.38,0C21.61,5.8,21.39,5.87,21.66,6Z" transform="translate(6.85 1.82)"/><path class="cls-6" d="M21.94,5.53l.17-.14Z" transform="translate(6.85 1.82)"/><polygon class="cls-6" points="54.21 32.31 54.64 32.16 54.34 32.2 54.21 32.31"/><path class="cls-6" d="M48,29.87l.19.14.15-.3C48.26,29.77,48.1,29.88,48,29.87Z" transform="translate(6.85 1.82)"/><path class="cls-6" d="M6.2,20H6.14c0,.09,0,.18.12.37Z" transform="translate(6.85 1.82)"/><polygon class="cls-6" points="15.76 27.23 15.71 27.14 15.64 27.39 15.76 27.23"/><path class="cls-6" d="M11.51,29.8c-.09-.19-.24-.38-.34-.57C11.42,29.61,11.33,30,11.51,29.8Z" transform="translate(6.85 1.82)"/></g><g class="cls-5"><path class="cls-6" d="M76.16,36c.09.19.17.06.21.08C76.18,35.77,76.14,36,76.16,36Z" transform="translate(6.85 1.82)"/><polygon class="cls-6" points="81.21 35.04 81.28 35.06 80.94 34.7 81.21 35.04"/><path class="cls-6" d="M72.91,30.49c-.06.37.56,1,.74,1.49v.11l.28.13A15.66,15.66,0,0,1,72.91,30.49Z" transform="translate(6.85 1.82)"/><path class="cls-6" d="M72.58,28.81c0,.13-.24-.28.15.35v-.07Z" transform="translate(6.85 1.82)"/><path class="cls-6" d="M72.72,29.09c.16.29,0-.22,0,0Z" transform="translate(6.85 1.82)"/><path class="cls-6" d="M72,27.79l.27.34c0-.1-.16-.44-.06-.33C71.94,27.43,71.93,27.53,72,27.79Z" transform="translate(6.85 1.82)"/><path class="cls-6" d="M71.64,27.51l.13.18S71.75,27.59,71.64,27.51Z" transform="translate(6.85 1.82)"/><path class="cls-6" d="M72.05,28.07l-.28-.38c0,.07-.06.11.12.18C71.82,27.87,71.92,27.92,72.05,28.07Z" transform="translate(6.85 1.82)"/><path class="cls-6" d="M72.15,28.32c.07.24.18.53-.09.19C72.47,29.21,72.56,29,72.15,28.32Z" transform="translate(6.85 1.82)"/><path class="cls-6" d="M72.63,30.46l.09.32.2.21C72.82,30.88,72.69,30.41,72.63,30.46Z" transform="translate(6.85 1.82)"/><path class="cls-6" d="M70.83,25.39s0,.18-.09.24l.2.25C70.89,25.72,70.78,25.44,70.83,25.39Z" transform="translate(6.85 1.82)"/><path class="cls-6" d="M70.74,25.63l-.29-.38C70.64,25.63,70.71,25.68,70.74,25.63Z" transform="translate(6.85 1.82)"/><polygon class="cls-6" points="78.23 29.38 78.75 29.99 78.16 29.25 78.23 29.38"/><polygon class="cls-6" points="76.84 25.61 77.07 25.8 76.69 25.45 76.84 25.61"/><path class="cls-6" d="M69.41,22.74c.18.13,0-.31.16-.15a3.51,3.51,0,0,0-.54-.68A2.47,2.47,0,0,1,69.41,22.74Z" transform="translate(6.85 1.82)"/><path class="cls-6" d="M68.74,21.59a2.8,2.8,0,0,0,.29.32A2.89,2.89,0,0,0,68.74,21.59Z" transform="translate(6.85 1.82)"/><path class="cls-6" d="M70.09,24.53a.54.54,0,0,0,0-.39l0,.22Z" transform="translate(6.85 1.82)"/><path class="cls-6" d="M70,24.37h0L69.83,24Z" transform="translate(6.85 1.82)"/><path class="cls-6" d="M70.12,24.57l0,0S70.09,24.56,70.12,24.57Z" transform="translate(6.85 1.82)"/><path class="cls-6" d="M70.91,26.41c-.2-.21-.54-.68-.38-.13C70.7,26.41,70.61,26.1,70.91,26.41Z" transform="translate(6.85 1.82)"/><path class="cls-6" d="M70.07,24.85l.21.46s0-.13.13,0Z" transform="translate(6.85 1.82)"/><polygon class="cls-6" points="76.77 26.48 76.93 26.68 76.85 26.51 76.77 26.48"/><path class="cls-6" d="M69,22.41a3.15,3.15,0,0,1-.41-.6c.12.26.24.53.37.78C69.05,22.61,69.18,22.68,69,22.41Z" transform="translate(6.85 1.82)"/><path class="cls-6" d="M69.49,23.37l0,0S69.48,23.38,69.49,23.37Z" transform="translate(6.85 1.82)"/><polygon class="cls-6" points="74.24 21.3 74.24 21.35 74.27 21.34 74.24 21.3"/><path class="cls-6" d="M69,22.64a.83.83,0,0,0,.27.39c-.09-.13-.18-.28-.27-.44S69,22.59,69,22.64Z" transform="translate(6.85 1.82)"/><path class="cls-6" d="M68.34,21a2.15,2.15,0,0,0,.11.37C68.43,21.22,68.39,21,68.34,21Z" transform="translate(6.85 1.82)"/><path class="cls-6" d="M69.46,23.25l0,0C69.48,23.2,69.47,23.21,69.46,23.25Z" transform="translate(6.85 1.82)"/><path class="cls-6" d="M69.46,23.25c-.07-.09-.14-.15-.2-.22a3.11,3.11,0,0,0,.2.3Z" transform="translate(6.85 1.82)"/><path class="cls-6" d="M66.25,19.18c.13,0,.49.42.6.92.31.38.53-.09.54-.57-.06,0-.1,0-.4-.37,0,.19.37,1.05.08.73-.37-.55-.21-.5-.31-.81,0,.31-.59-.63-.73-.4l.35.48S66.2,19,66.25,19.18Z" transform="translate(6.85 1.82)"/><path class="cls-6" d="M67.82,20.37l.11.17a3.37,3.37,0,0,1-.18-.7c-.21-.27-.29-.31-.34-.32l.46.9Z" transform="translate(6.85 1.82)"/><path class="cls-6" d="M68.36,21.35c-.2-.08-.48-.48-.47-.15.29.53.3.32.52.61-.48-.84.2.21-.06-.45.11.16.19.31.27.45l-.17-.47v0h0c0,.05,0,.07,0,0v0a.09.09,0,0,1-.07,0c-.11-.26,0-.06.07,0a0,0,0,0,0,0,0h0l-.52-.82A7.89,7.89,0,0,0,68.36,21.35Z" transform="translate(6.85 1.82)"/><path class="cls-6" d="M70,26s0,0,0,0S70,25.85,70,26Z" transform="translate(6.85 1.82)"/><path class="cls-6" d="M69.91,25.57a.63.63,0,0,1,.22.29c.06.19-.06,0-.09.06s.31.38.17,0l0-.05A2.35,2.35,0,0,1,70,25,1.41,1.41,0,0,0,69.91,25.57Z" transform="translate(6.85 1.82)"/><path class="cls-6" d="M69.09,23.45l-.43-.68.08.42.06-.05C69,23.55,69,23.43,69.09,23.45Z" transform="translate(6.85 1.82)"/><polygon class="cls-6" points="74.26 21.18 74.44 21.21 74.04 20.9 74.26 21.18"/><polygon class="cls-6" points="73.75 20.27 73.88 20.24 73.69 20.04 73.75 20.27"/><path class="cls-6" d="M35.93,32.27l.14.19A1.33,1.33,0,0,0,35.93,32.27Z" transform="translate(6.85 1.82)"/><path class="cls-6" d="M35.14,30.75h-.08C35.13,30.8,35.17,30.81,35.14,30.75Z" transform="translate(6.85 1.82)"/><path class="cls-6" d="M48.83,11.52c-.36.06-.79.08-.68.18l.15.07A2.43,2.43,0,0,1,48.83,11.52Z" transform="translate(6.85 1.82)"/><path class="cls-6" d="M33.66,20.5h.11l.14-.23Z" transform="translate(6.85 1.82)"/><path class="cls-6" d="M33.71,21.11l-.44.14A2.56,2.56,0,0,0,33.71,21.11Z" transform="translate(6.85 1.82)"/><path class="cls-6" d="M40.45,40.47l.25.18C40.5,40.27,40.52,40.47,40.45,40.47Z" transform="translate(6.85 1.82)"/><path class="cls-6" d="M61.83,9a5.18,5.18,0,0,0-.27-.7C61.66,8.66,61.69,9,61.83,9Z" transform="translate(6.85 1.82)"/><path class="cls-6" d="M34.32,32.36c.09.11.15.16.17.14S34.34,32.31,34.32,32.36Z" transform="translate(6.85 1.82)"/><path class="cls-6" d="M61.16,7.54l0,.16a5.28,5.28,0,0,1,.36.6A1.65,1.65,0,0,0,61.16,7.54Z" transform="translate(6.85 1.82)"/><path class="cls-6" d="M63.91,41.77l.07,0S64,41.74,63.91,41.77Z" transform="translate(6.85 1.82)"/><path class="cls-6" d="M73.3,38.37l-.36.2A3.22,3.22,0,0,0,73.3,38.37Z" transform="translate(6.85 1.82)"/><path class="cls-6" d="M65,14.7c.11.19,0,0,0,0Z" transform="translate(6.85 1.82)"/><path class="cls-6" d="M65,15.91s-.07-.06-.1-.05A.16.16,0,0,1,65,15.91Z" transform="translate(6.85 1.82)"/><path class="cls-6" d="M59.08,7h0Z" transform="translate(6.85 1.82)"/><path class="cls-6" d="M65.08,15a2.13,2.13,0,0,0-.09-.27A2.66,2.66,0,0,0,65.08,15Z" transform="translate(6.85 1.82)"/><path class="cls-6" d="M65.12,15l.08.18S65.23,15.12,65.12,15Z" transform="translate(6.85 1.82)"/><path class="cls-6" d="M64.83,14.43c.06.11.11.22.16.32s0-.06,0-.05Z" transform="translate(6.85 1.82)"/><path class="cls-6" d="M48,50.62h.05C48.23,50.45,48.15,50.5,48,50.62Z" transform="translate(6.85 1.82)"/><polygon class="cls-6" points="51.24 17.31 51.26 17.29 51.23 17.3 51.24 17.31"/><path class="cls-6" d="M43.74,16a1.16,1.16,0,0,1,.64-.48L44,15.26Z" transform="translate(6.85 1.82)"/><path class="cls-6" d="M37.89,35.88l-.15-.56c.49.5.66,1,.57.42-.42.14-1.06-1.9-1.48-1.77l-.09-.36c0,.09.08.09.12.19-.15-.73-.53-.33-.9-1.17-.13-.3-.18-.53,0-.36l-.43-.59c-.09-.18,0-.17.09,0l-.54-1h0a6,6,0,0,1-.51-.5c-.07-.27.11.1.12,0l-.38-.48c0-.27.32.12.5.5.12-.71-.33-.4-.68-1.59l.32.48c0-.45-.25-.8-.42-1.44,0,.17.27,1.32-.13.79a1.76,1.76,0,0,0-.41-.67c.14-.08-.06-.37-.27-.75l.19-.07c-.27-.38-.34-.3-.55-.5a.83.83,0,0,1-.08-.81c-.36-.76.05.62-.45-.23a7.08,7.08,0,0,0-1.06-1.73c-.17-.46.15,0,.12-.16L31,23.28c0-.08,0-.06.05-.07s-.18.08-.4-.22c-.13,0-.16-.2-.16-.33.36-.09.58-.09.74-.34.19,0,0,.15.07.2a10,10,0,0,0,1.28-1.07l.67-.2c-.52.1,0-.36.39-.75a3.56,3.56,0,0,0-.46.05l.73-.52c.12,0,.07.09,0,.23l.12-.12c.32-.08.23.1.08.31l-.34,0c-.14.21-.26.43-.16.51a1.28,1.28,0,0,1,.23-.19c0,.06-.05.1,0,.11s.1-.08.2-.19l.29.1v-.1l1.1-.42a11.88,11.88,0,0,1,2.24-1.94c-.21.3.06.28.14.46-.42,0-.87.56-1.49.84.32-.15.3,0,.23,0l1-.75c0,.16.28,0,.6-.1-.37-.17.71-.62,1.1-.94.08.08,0,.24-.53.5.71-.11.59-.74,1.27-.87-.13.07-.21.1-.23.17.26-.24,1-.57.91-.4l-.13.07c.89-.43,2.65-1.4,2.66-1.71a1.21,1.21,0,0,1,0,.43l1.13-1.63c0,.28.75.48.09,1a3,3,0,0,0,.9-.48c-.16,0-.51-.11-.33-.23a7,7,0,0,0,1.19-.23c-.23.07-.17-.38.17-.54,0,.07.2.3.1.4l.66-.76c-.18.17.11.28.34.28-.12,0,.73-.38.93-.53l-.39.11c1-.45.69-.93,1.64-1.41-.08.12-.07.55.43.33a4.89,4.89,0,0,1,1.31-1.85h.21l.58-.44a16.52,16.52,0,0,1-1.61,2.07c.39-.11.16.06.68-.23.24,0-.22.28-.37.37l1.26-.59c-.15-.16.84-.69.71-.82l-1.23.9c-.15-.16.49-.95,1.38-1.37.26-.05,0,.42.06.47a3.17,3.17,0,0,1,.86-.56l-.31.3c.52-.18.66-.67,1.34-.8.2-.09.72-.07.7-.2-.44,0-.86-.68-.73-.95a10.76,10.76,0,0,1,1.45-.37c.43,0-.28.66.08.66,0-.06.13-.22.2-.28.23-.07,0,.21.44-.06,0-.23.94-.48.13-.28a9.75,9.75,0,0,1,1-.5c-.21,0,.22-.65.71-1,0,.07.11.08.16.1l.63-.31c.27.6.41,1,.75,1.62,0,.1.16.55,0,.41a2,2,0,0,1,.36.45c.11.6-.33-.58-.33-.08.13,0,.52.6.79.94.11-.2-.43-.88-.7-1.23.24-.12.83.4,1.42,1.24.44.68,0,.39.11.5.67,1.36,1,.92,1.44,2.12.08.52-.29.18-.35.34a8.63,8.63,0,0,1-.59-1.34l.18.53a2.53,2.53,0,0,1-.46-.76c.06.44,1.18,2.27,1.6,3.37.15.16.37.45.35.26l-.2-.31c0-.37.5.52.34.08a5.43,5.43,0,0,1,1,1.47l-.11.2a1.15,1.15,0,0,0-.26-.6c.21.22.27,1.07.64,1.23l-.11-.49a5.71,5.71,0,0,1,1,1.41c0-.33-.09-.11-.09-.61-.07.47-.73-1.4-.71-.72,0-.52-.27-.74-.34-1.37-.05.05,0,.24-.23-.23a.36.36,0,0,1-.1-.07l0,0v0s0,0,0,0a.65.65,0,0,1,0,.28c-.25-.16-.63-.89-.83-1.1s.12.08.11-.1l-.3-.32c.11-.1-.18-.83.24-.23l-.3-.58a3.65,3.65,0,0,0-.54-1.12c-.11-.29-.5-.62-.28-.43l-.56-.86,0,0A14.89,14.89,0,0,1,61.2,7.7l-.14-.22L61,7.36l-.12-.2c-.16-.28-.33-.6-.54-1l0-.31-.21-.38a12.73,12.73,0,0,0-1.88,1c-.57-.07-1.91.93-2.61,1.24l0,.15a13,13,0,0,0-1.45.89l.1.1a19.37,19.37,0,0,1-2.12,1c0-.08.24-.17.39-.22-1.09.22-1.88,1.27-2.85,1.52a1.44,1.44,0,0,1-.52.27.1.1,0,0,0,0,0l-.09,0-.33.09a1.91,1.91,0,0,0,.28-.07c-.16.09-.4.24-.63.4l-.18-.08,0,0c-.27.08-.16.17,0,.2a2.44,2.44,0,0,0-.28.25c-.31-.11-.6.42-1,.33-.11.2-1.19.73-1.19,1,0,0-.11,0,0-.07a2.37,2.37,0,0,0-.78.43l-.21-.11-.47.55c-.42.08-.6.1-.31-.22-.76.66-.67.45-1.3,1l0-.13c-.26.15-.61.52-.82.51-.7.11-2.94,1.52-4.56,2.13.47.17-.78.23-.71.52-.13,0-.36,0-.15-.16-.73.48-1.23.49-1.65,1-.13,0,.11-.2,0-.21s-.21.2-.31.2.08-.13.18-.23c-.78.43-.74.72-.67,1a1.25,1.25,0,0,0-.87.53c-.17,0-.45,0,0-.24-.28.13-1.75.79-1.68,1a1.17,1.17,0,0,0-.45.25l-.78.39-.85.46.26-.1a.31.31,0,0,1-.19.24c.13.22.19.49.42.89h0a4.14,4.14,0,0,0,.43.92,2.69,2.69,0,0,1,.36.83l.11-.13c.34-.05.35,1.07.8,1.66l-.05-.28c.29.3.13,1.2.28,1.57,0,.09-.1-.1-.18-.2.32,1,.24,0,.65.7,0,.17-.33,0-.1.43,0,.28,1,1.19,1.18,1.92,0-.18,0-.36.22-.07.29.48.43,1.48.89,1.8,0,.07,0,.11,0,.12a9.23,9.23,0,0,0,1,1.32c-.28.6,1.47,2.22,1,2.44l.64,1.14h-.06a2.92,2.92,0,0,0,.84,1.17c.07.18,0,.08-.07.08a5.48,5.48,0,0,0,1.25,2l-.09.17a25.86,25.86,0,0,0,1.34,2.65s-.06,0-.13-.09c.8,1.11,1.13,3.06,1.87,3.23l.54.71c-.5-1,.3,0,.16-.42.24.38.39,1.11.11.63l0-.09c-.36,0,.58,1.32.38,1.38.34.63.66,1.27,1,1.9q.6,1.23,1.2,2.43l2.67-1.35-.33-.09.66-.33c.2-.05.32,0-.16.27.31,0,.73-.51.72-.56,1-.4-.23.43.06.29l.37-.22-.1,0a2.16,2.16,0,0,1,.81-.64c.38-.14.25,0,.39,0s.06,0,.22-.11l.83-.42h-.41c.32-.27.78-.4.3-.38.71,0,3.12-1.53,3.51-1.62a7.15,7.15,0,0,1,1.59-1c-.17,0-.36-.09.19-.35,0,.48,1.07-.36,1.65-.32-.49,0,1.51-.86.76-.79.47-.21.1.13.49,0,1-.71,2.41-1.15,3.71-1.9,0-.06-.27,0,0-.24l.83-.13c.25-.16.09-.41.66-.49-.09,0-.22,0,0-.13,2.71-1.13,5.19-3,8.06-3.94-.41.09-.18,0,.09-.19-.19.07-.06-.13-.13-.18L74,38c.11-.29,1.18-.63,1.2-.87l-.33.21c.35-.45-.9-.12-1-.42-.4.51-1.56.37-2.23,1.16-.22,0,.11-.17,0-.18a1.84,1.84,0,0,1-.92.6l0-.06c-1.34.75-2,1-3.55,1.68l.18.07a2.25,2.25,0,0,1-.6.2c-.27.4.93-.47.71-.07-.58,0-2.32,1.22-2.78,1.07-.5.27.23.08-.27.34h-.18l-.07.17c-.34.16-.56.15-.61.08a2.49,2.49,0,0,0,.3-.19,11.78,11.78,0,0,0-1.36.72l.51-.2c-1.33.8-3.07,1.59-4.31,2.46h.13c-1,.65-.85.36-1.93,1l0,0a3.53,3.53,0,0,1-.78.53c.24-.23-.61.13-.28-.14-1,.71-.49.38-1.1,1H54.6a2.1,2.1,0,0,1-.74.61c.41-.34-.44,0,0-.36-1.29.39-1.61,1.15-2.32,1.1-.39.57,1.09-.38.83-.16.3,0-.33.45-.72.62s-.83,0-1.76.47c.09,0,.09-.07.18-.12-.39.11-.64.46-1.13.57-.15.31-.57.29-.52.55l.84-.51A5.34,5.34,0,0,1,47.62,51a2,2,0,0,1,.39-.38c-.27.06-.43.28-.71.34,0-.26,1-.6,1.46-1.05-.31,0-.91.69-.77.31-.22.5-1,.45-1.46,1l0-.15c-.08.06-.12.16-.22.22a1.22,1.22,0,0,0,.09-.27.23.23,0,0,1-.31.12c0-.1,0-.16-.07-.18a.45.45,0,0,1,.06.22s-.15.27,0,.29l-.09.07A.56.56,0,0,1,45.8,51c.09-.07,0-.46-.36-1.1.12.18.3.77.08.5a4,4,0,0,1-.28-.88c-.52-.93-.06.22-.35-.14,0-.41-.31-.43-.59-.82l.14-.07c-.49-1.13-.44-.14-.84-1.16l.4.31-.32-.48.21,0a4.16,4.16,0,0,1-.71-1.24c0,.18-.28.06-.54-.42-.09-.36.23.12-.15-.55a.69.69,0,0,1,.39.58c.06,0,.17.11.23.12a5.48,5.48,0,0,0-.58-1.14,1.77,1.77,0,0,1,.11.28l-.71-.88c0-.18.07-.08.18,0-.12-.19-.26-.3-.42-.58.15,0,.25-.07.52.32l-.62-.87c0-.09-.12-.55,0-.45-.21-.55-.89-1.16-1.17-1.89a.63.63,0,0,1-.19-.22,8.34,8.34,0,0,0-1-2l0-.54c-.36-.58.07.72-.54-.24-.44-.67,0-.35-.05-.63a3.47,3.47,0,0,1-1-1.54A5.7,5.7,0,0,1,37.89,35.88Zm-4-7.35c.11.13.34.36.32.51C34,29,34,28.8,33.88,28.53Zm1-8.35a.82.82,0,0,1-.47.21A1.85,1.85,0,0,1,34.88,20.18Zm28.85-7.57v0C63.6,12.25,63.64,12.37,63.73,12.61Zm.3.69c0,.06.07,0,.07,0s-.14-.17-.22-.35C63.87,13,63.89,13.12,64,13.3ZM50.59,50.42l-.15,0C50.71,50.26,50.65,50.34,50.59,50.42Z" transform="translate(6.85 1.82)"/><path class="cls-6" d="M33.71,21a.12.12,0,0,1-.1,0C33.56,21.05,33.57,21.08,33.71,21Z" transform="translate(6.85 1.82)"/><path class="cls-6" d="M40.4,40.44v0h0Z" transform="translate(6.85 1.82)"/><path class="cls-6" d="M56.72,8.94a1.06,1.06,0,0,1-.3.07S56.51,9,56.72,8.94Z" transform="translate(6.85 1.82)"/><path class="cls-6" d="M66.12,16.7l-.26-.41a1.39,1.39,0,0,1,.16.41S66.05,16.56,66.12,16.7Z" transform="translate(6.85 1.82)"/><path class="cls-6" d="M67.24,20.83c.05.05.07.13.12.18l0-.05C67.27,20.7,67.12,20.54,67.24,20.83Z" transform="translate(6.85 1.82)"/><path class="cls-6" d="M65.88,17.33c-.1.09.08.34.26.62l0-.05C66.32,17.91,66.1,17.62,65.88,17.33Z" transform="translate(6.85 1.82)"/><path class="cls-6" d="M66.18,18a1.51,1.51,0,0,1,.15.28C66.41,18.3,66.29,18.18,66.18,18Z" transform="translate(6.85 1.82)"/><path class="cls-6" d="M64.55,14.1c0,.16.19,0,.19.12C65,14.3,64.06,13.37,64.55,14.1Z" transform="translate(6.85 1.82)"/><polygon class="cls-6" points="72.48 19.59 72.57 19.41 72.36 19.3 72.48 19.59"/><path class="cls-6" d="M64.49,15.36l.21.5s.07,0,.12.1C64.67,15.66,64.52,15.33,64.49,15.36Z" transform="translate(6.85 1.82)"/><path class="cls-6" d="M64.82,16a1.89,1.89,0,0,0,.22.37A3.23,3.23,0,0,0,64.82,16Z" transform="translate(6.85 1.82)"/><polygon class="cls-6" points="72.1 18.96 72.05 18.8 71.88 18.46 72.1 18.96"/><path class="cls-6" d="M61.8,10.23l-.31-.5c-.08,0,0,.13.09.32S61.8,10.34,61.8,10.23Z" transform="translate(6.85 1.82)"/><path class="cls-6" d="M62.25,12a.58.58,0,0,1,0-.29l-.19.08Z" transform="translate(6.85 1.82)"/><path class="cls-6" d="M61.41,10.51c-.08,0-.54-.68-.18,0C61.3,10.51,61.62,11,61.41,10.51Z" transform="translate(6.85 1.82)"/><polygon class="cls-6" points="62.52 10.71 62.65 10.63 62.48 10.36 62.52 10.71"/><path class="cls-6" d="M49.13,13.23c.65-.26,0-.26.65-.47.11-.14-.49.18-.37,0C49.08,13.07,48.86,13.13,49.13,13.23Z" transform="translate(6.85 1.82)"/><path class="cls-6" d="M49.41,12.8l.17-.15A1,1,0,0,0,49.41,12.8Z" transform="translate(6.85 1.82)"/><polygon class="cls-6" points="81.68 39.57 82.11 39.42 81.8 39.46 81.68 39.57"/><path class="cls-6" d="M75.48,37.14l.19.13.15-.29A1,1,0,0,1,75.48,37.14Z" transform="translate(6.85 1.82)"/><path class="cls-6" d="M33.67,27.23h-.06c0,.08,0,.18.12.37Z" transform="translate(6.85 1.82)"/><polygon class="cls-6" points="43.23 34.49 43.18 34.4 43.11 34.66 43.23 34.49"/><path class="cls-6" d="M39,37.07c-.09-.19-.24-.39-.33-.58C38.88,36.88,38.79,37.22,39,37.07Z" transform="translate(6.85 1.82)"/></g><g class="cls-5"><path class="cls-6" d="M105.86,43.84c.08.18.16,0,.2.07C105.88,43.63,105.83,43.86,105.86,43.84Z" transform="translate(6.85 1.82)"/><polygon class="cls-6" points="110.9 42.89 110.97 42.91 110.63 42.55 110.9 42.89"/><path class="cls-6" d="M102.61,38.35c-.07.36.55,1,.74,1.49v.1l.28.13A14.77,14.77,0,0,1,102.61,38.35Z" transform="translate(6.85 1.82)"/><path class="cls-6" d="M102.27,36.67c0,.13-.23-.28.16.35l0-.08Z" transform="translate(6.85 1.82)"/><path class="cls-6" d="M102.41,36.94c.16.29,0-.22,0,0Z" transform="translate(6.85 1.82)"/><path class="cls-6" d="M101.67,35.65l.27.34c0-.11-.17-.45-.07-.34C101.63,35.28,101.63,35.38,101.67,35.65Z" transform="translate(6.85 1.82)"/><path class="cls-6" d="M101.33,35.36l.13.18S101.44,35.44,101.33,35.36Z" transform="translate(6.85 1.82)"/><path class="cls-6" d="M101.75,35.93l-.29-.39c0,.08-.06.12.13.18C101.51,35.72,101.61,35.77,101.75,35.93Z" transform="translate(6.85 1.82)"/><path class="cls-6" d="M101.84,36.18c.07.23.19.52-.08.18C102.17,37.07,102.25,36.88,101.84,36.18Z" transform="translate(6.85 1.82)"/><path class="cls-6" d="M102.33,38.32l.09.31.19.21C102.52,38.74,102.38,38.27,102.33,38.32Z" transform="translate(6.85 1.82)"/><path class="cls-6" d="M100.52,33.24s0,.19-.08.24l.19.26C100.59,33.58,100.47,33.29,100.52,33.24Z" transform="translate(6.85 1.82)"/><path class="cls-6" d="M100.44,33.48l-.3-.38C100.33,33.48,100.4,33.53,100.44,33.48Z" transform="translate(6.85 1.82)"/><polygon class="cls-6" points="107.92 37.24 108.44 37.84 107.85 37.1 107.92 37.24"/><polygon class="cls-6" points="106.54 33.46 106.76 33.65 106.39 33.3 106.54 33.46"/><path class="cls-6" d="M99.11,30.59c.17.14,0-.31.16-.15a3.52,3.52,0,0,0-.55-.67A2.61,2.61,0,0,1,99.11,30.59Z" transform="translate(6.85 1.82)"/><path class="cls-6" d="M98.43,29.44a4,4,0,0,0,.29.33A2.28,2.28,0,0,0,98.43,29.44Z" transform="translate(6.85 1.82)"/><path class="cls-6" d="M99.79,32.38a.6.6,0,0,0-.05-.39l0,.23Z" transform="translate(6.85 1.82)"/><path class="cls-6" d="M99.7,32.23h0l-.18-.36Z" transform="translate(6.85 1.82)"/><path class="cls-6" d="M99.81,32.42l0,0S99.79,32.42,99.81,32.42Z" transform="translate(6.85 1.82)"/><path class="cls-6" d="M100.6,34.26c-.2-.21-.54-.68-.38-.13C100.4,34.26,100.31,34,100.6,34.26Z" transform="translate(6.85 1.82)"/><path class="cls-6" d="M99.77,32.71l.2.46s0-.13.13,0Z" transform="translate(6.85 1.82)"/><polygon class="cls-6" points="106.47 34.33 106.62 34.53 106.54 34.36 106.47 34.33"/><path class="cls-6" d="M98.72,30.26a3.13,3.13,0,0,1-.4-.6c.11.27.24.53.37.78C98.74,30.46,98.87,30.53,98.72,30.26Z" transform="translate(6.85 1.82)"/><path class="cls-6" d="M99.19,31.22l0,0S99.17,31.24,99.19,31.22Z" transform="translate(6.85 1.82)"/><polygon class="cls-6" points="103.94 29.15 103.93 29.2 103.96 29.2 103.94 29.15"/><path class="cls-6" d="M98.69,30.5a1,1,0,0,0,.26.39,4.83,4.83,0,0,1-.26-.45S98.65,30.44,98.69,30.5Z" transform="translate(6.85 1.82)"/><path class="cls-6" d="M98,28.82c0,.12.07.24.11.37C98.13,29.07,98.08,28.84,98,28.82Z" transform="translate(6.85 1.82)"/><path class="cls-6" d="M99.16,31.1l0,0C99.17,31.05,99.16,31.06,99.16,31.1Z" transform="translate(6.85 1.82)"/><path class="cls-6" d="M99.16,31.1a1.39,1.39,0,0,0-.21-.21,2.43,2.43,0,0,0,.21.29A.11.11,0,0,1,99.16,31.1Z" transform="translate(6.85 1.82)"/><path class="cls-6" d="M95.94,27c.13,0,.5.42.61.92.31.38.52-.09.53-.57,0,0-.1,0-.4-.37,0,.19.38,1,.08.73-.36-.55-.21-.49-.3-.81,0,.32-.6-.63-.73-.39l.34.47S95.89,26.88,95.94,27Z" transform="translate(6.85 1.82)"/><path class="cls-6" d="M97.51,28.22l.11.17a3.06,3.06,0,0,1-.18-.7c-.21-.27-.28-.31-.33-.31l.45.89Z" transform="translate(6.85 1.82)"/><path class="cls-6" d="M98.05,29.2c-.19-.08-.47-.48-.46-.15.28.53.29.32.51.61-.48-.84.2.21-.06-.44a4.54,4.54,0,0,1,.28.44l-.18-.47v0h0s0,.06,0,0h0l-.07,0c-.1-.26,0-.05.07,0h0l-.52-.82A9,9,0,0,0,98.05,29.2Z" transform="translate(6.85 1.82)"/><path class="cls-6" d="M99.72,33.81s0,0,0,0S99.67,33.71,99.72,33.81Z" transform="translate(6.85 1.82)"/><path class="cls-6" d="M99.61,33.42a.8.8,0,0,1,.22.29c0,.19-.06,0-.1.06s.32.38.17,0l-.05-.05a2,2,0,0,1-.17-.84A1.16,1.16,0,0,0,99.61,33.42Z" transform="translate(6.85 1.82)"/><path class="cls-6" d="M98.79,31.3l-.44-.68.09.42,0-.05C98.68,31.41,98.71,31.28,98.79,31.3Z" transform="translate(6.85 1.82)"/><polygon class="cls-6" points="103.95 29.04 104.13 29.07 103.73 28.75 103.95 29.04"/><polygon class="cls-6" points="103.45 28.12 103.58 28.1 103.38 27.89 103.45 28.12"/><path class="cls-6" d="M65.63,40.12l.14.19Z" transform="translate(6.85 1.82)"/><path class="cls-6" d="M64.83,38.6h-.07C64.82,38.65,64.86,38.67,64.83,38.6Z" transform="translate(6.85 1.82)"/><path class="cls-6" d="M78.52,19.37c-.36.06-.78.08-.68.19l.16.07A1.93,1.93,0,0,1,78.52,19.37Z" transform="translate(6.85 1.82)"/><path class="cls-6" d="M63.35,28.35h.11l.14-.23Z" transform="translate(6.85 1.82)"/><path class="cls-6" d="M63.4,29,63,29.1A3,3,0,0,0,63.4,29Z" transform="translate(6.85 1.82)"/><path class="cls-6" d="M70.14,48.32l.25.18C70.19,48.12,70.22,48.32,70.14,48.32Z" transform="translate(6.85 1.82)"/><path class="cls-6" d="M91.53,16.85a4.43,4.43,0,0,0-.28-.69C91.35,16.51,91.38,16.82,91.53,16.85Z" transform="translate(6.85 1.82)"/><path class="cls-6" d="M64,40.21c.09.12.14.16.17.14S64,40.17,64,40.21Z" transform="translate(6.85 1.82)"/><path class="cls-6" d="M90.85,15.4l.05.15a4.27,4.27,0,0,1,.35.61A1.56,1.56,0,0,0,90.85,15.4Z" transform="translate(6.85 1.82)"/><path class="cls-6" d="M93.6,49.62l.08,0S93.64,49.6,93.6,49.62Z" transform="translate(6.85 1.82)"/><path class="cls-6" d="M103,46.22l-.35.2Z" transform="translate(6.85 1.82)"/><path class="cls-6" d="M94.68,22.55c.11.19,0,0,0,0Z" transform="translate(6.85 1.82)"/><path class="cls-6" d="M94.7,23.76s-.07-.06-.1-.05A.14.14,0,0,1,94.7,23.76Z" transform="translate(6.85 1.82)"/><path class="cls-6" d="M88.77,14.86h0C88.81,14.86,88.8,14.86,88.77,14.86Z" transform="translate(6.85 1.82)"/><path class="cls-6" d="M94.78,22.88c0-.09-.06-.18-.1-.28A2,2,0,0,0,94.78,22.88Z" transform="translate(6.85 1.82)"/><path class="cls-6" d="M94.81,22.8l.08.18S94.93,23,94.81,22.8Z" transform="translate(6.85 1.82)"/><path class="cls-6" d="M94.52,22.28a1.91,1.91,0,0,1,.16.32s0-.06,0-.05Z" transform="translate(6.85 1.82)"/><path class="cls-6" d="M77.7,58.47h0C77.92,58.3,77.84,58.36,77.7,58.47Z" transform="translate(6.85 1.82)"/><polygon class="cls-6" points="80.94 25.16 80.96 25.15 80.93 25.16 80.94 25.16"/><path class="cls-6" d="M73.43,23.81a1.13,1.13,0,0,1,.64-.47l-.41-.23Z" transform="translate(6.85 1.82)"/><path class="cls-6" d="M67.58,43.73l-.15-.55c.5.5.66,1,.57.42-.42.13-1.06-1.91-1.47-1.77l-.1-.37a2,2,0,0,1,.12.19c-.15-.73-.52-.32-.9-1.17-.12-.3-.17-.53,0-.36l-.44-.58c-.09-.19,0-.18.09,0l-.54-1h0a6.26,6.26,0,0,1-.52-.51c-.07-.27.11.1.12,0L64,37.62c0-.27.31.12.49.5.12-.7-.33-.39-.68-1.59l.32.48c0-.44-.25-.8-.41-1.44,0,.17.26,1.33-.14.79a1.93,1.93,0,0,0-.4-.67c.13-.08-.06-.36-.28-.74l.2-.07c-.27-.39-.35-.31-.56-.51a.83.83,0,0,1-.08-.81c-.36-.76,0,.63-.45-.23a7,7,0,0,0-1.06-1.72c-.16-.47.15,0,.12-.17l-.34-.31c0-.07,0-.06.05-.07-.14-.13-.19.08-.41-.22-.13,0-.16-.19-.15-.33.35-.09.57-.08.74-.33.18,0,0,.15.07.19A10,10,0,0,0,62.3,29.3l.66-.2c-.51.1,0-.36.39-.75l-.46,0,.74-.51c.11,0,.06.08,0,.22l.12-.12c.32-.08.23.1.08.31l-.34,0c-.14.21-.26.43-.16.51a1,1,0,0,1,.23-.18s-.05.1,0,.1.1-.08.2-.19l.29.1v-.1l1.1-.42a11.88,11.88,0,0,1,2.24-1.93c-.21.3.07.27.14.45-.41,0-.86.56-1.49.85.33-.15.3,0,.24,0l1-.74c0,.15.29,0,.6-.11-.36-.17.71-.61,1.1-.93.08.08,0,.23-.52.49.7-.1.59-.74,1.27-.87-.13.08-.21.1-.24.18.26-.25,1-.58.91-.41l-.13.08c.89-.43,2.66-1.41,2.66-1.72a1,1,0,0,1,0,.43L74,22.34c0,.28.76.49.1,1a3.15,3.15,0,0,0,.89-.49c-.15.05-.51-.11-.32-.23a5.6,5.6,0,0,0,1.19-.23c-.24.07-.17-.37.17-.54,0,.07.19.3.09.4l.67-.76c-.18.17.1.29.33.28-.11,0,.73-.38.93-.53l-.39.12c1-.46.7-.94,1.64-1.42-.08.13-.07.55.43.34a4.75,4.75,0,0,1,1.31-1.85h.21l.58-.44a15.69,15.69,0,0,1-1.6,2.07c.39-.11.15.06.68-.23.23,0-.22.29-.37.37l1.25-.59c-.15-.16.84-.69.71-.82l-1.23.9c-.15-.16.49-.94,1.38-1.37.26,0,0,.42.06.48a2.69,2.69,0,0,1,.87-.56l-.32.29c.52-.18.66-.67,1.34-.79.21-.1.73-.08.7-.21-.44,0-.86-.67-.72-.95A14.24,14.24,0,0,1,86,16.2c.42,0-.29.67.07.66,0-.06.14-.22.2-.28.24-.07,0,.21.45-.06,0-.23.94-.48.13-.28a8.86,8.86,0,0,1,1-.5c-.22,0,.21-.65.7-1,0,.07.11.09.16.1l.63-.3c.28.59.41,1,.76,1.61,0,.11.15.55,0,.42a1.65,1.65,0,0,1,.37.44c.1.6-.34-.57-.33-.08.13,0,.51.61.78.95.11-.21-.43-.89-.7-1.23.24-.13.84.4,1.42,1.23s0,.39.11.5c.67,1.36,1,.92,1.44,2.12.08.53-.29.18-.35.34a11.07,11.07,0,0,1-.59-1.33l.19.52a2.34,2.34,0,0,1-.46-.76c.06.44,1.17,2.27,1.59,3.37.15.16.37.45.35.27l-.19-.32c0-.36.49.53.33.08a5.51,5.51,0,0,1,1,1.47l-.11.21a1.1,1.1,0,0,0-.26-.61c.22.22.27,1.07.65,1.24l-.11-.5a5.56,5.56,0,0,1,1,1.42c0-.34-.08-.12-.09-.61-.07.47-.73-1.41-.7-.73,0-.52-.27-.74-.35-1.37-.05.05,0,.25-.23-.23a.61.61,0,0,1-.1-.07v0h0a.62.62,0,0,1,0,.28c-.25-.15-.63-.89-.83-1.1s.13.08.11-.1l-.3-.31c.11-.11-.17-.84.24-.24l-.3-.58a3.88,3.88,0,0,0-.53-1.12c-.12-.29-.51-.61-.28-.43l-.56-.86,0,0a14.87,14.87,0,0,1-1.49-2.87l-.15-.22-.08-.11L90.56,15A10.38,10.38,0,0,1,90,14l0-.3a4.32,4.32,0,0,1-.21-.38,12.38,12.38,0,0,0-1.88,1c-.58-.07-1.91.93-2.62,1.24l0,.16a13.74,13.74,0,0,0-1.45.88l.1.11a18.68,18.68,0,0,1-2.12,1,.78.78,0,0,1,.4-.21c-1.1.21-1.89,1.26-2.86,1.51a1.3,1.3,0,0,1-.52.27l0,0-.09,0-.33.09a1.14,1.14,0,0,0,.29-.06,6.84,6.84,0,0,0-.64.4L78,19.63l-.06,0c-.26.08-.16.17,0,.2a2.53,2.53,0,0,0-.28.25c-.32-.11-.61.42-1,.33-.1.2-1.19.74-1.19,1,0,0-.1,0,0-.07a2.5,2.5,0,0,0-.79.43l-.21-.11-.47.55c-.42.09-.6.11-.31-.22-.76.67-.66.45-1.3,1.05l0-.13c-.26.14-.61.51-.81.51-.71.1-2.94,1.52-4.56,2.13.46.17-.79.22-.71.51-.13,0-.37,0-.16-.16-.73.48-1.22.49-1.65,1-.13,0,.11-.2,0-.21s-.21.2-.32.2.08-.13.18-.23c-.78.44-.73.72-.67,1a1.21,1.21,0,0,0-.86.53c-.18,0-.45.05,0-.24-.28.14-1.74.79-1.68,1a1.17,1.17,0,0,0-.45.25L60,29.6l-.86.46.27-.1a.35.35,0,0,1-.2.25c.13.22.19.48.43.88h0A3.6,3.6,0,0,0,60,32a2.85,2.85,0,0,1,.36.82l.1-.13c.35-.05.35,1.07.8,1.66l0-.27c.28.3.13,1.19.28,1.56,0,.09-.11-.1-.18-.2.32,1,.24,0,.64.7,0,.18-.33,0-.1.44.05.27,1,1.18,1.18,1.91,0-.18,0-.36.22-.06.29.47.43,1.47.9,1.79a.17.17,0,0,1,0,.12,8.51,8.51,0,0,0,1,1.33c-.28.59,1.46,2.21,1,2.43l.63,1.14h-.06a3,3,0,0,0,.85,1.16c.06.19,0,.08-.08.08a5.41,5.41,0,0,0,1.26,2l-.09.16a24.18,24.18,0,0,0,1.33,2.65s-.06,0-.12-.08c.79,1.1,1.12,3,1.86,3.22l.54.72c-.5-1,.3,0,.16-.43.24.38.4,1.11.11.64V55.3c-.36,0,.57,1.31.38,1.38.34.63.66,1.26,1,1.89.4.82.81,1.63,1.2,2.43l2.67-1.35-.33-.09.66-.33c.2,0,.32,0-.15.28a1.26,1.26,0,0,0,.72-.57c1-.4-.23.43.05.29l.37-.22L79,59a2.47,2.47,0,0,1,.81-.64c.38-.14.25,0,.4,0s.05,0,.21-.11l.84-.42h-.42c.32-.27.78-.4.3-.38.71,0,3.13-1.53,3.52-1.62a7.21,7.21,0,0,1,1.58-1c-.17.05-.36-.08.19-.35,0,.48,1.07-.36,1.65-.32-.48,0,1.51-.86.76-.79.47-.2.11.13.49,0,1-.72,2.41-1.16,3.71-1.91,0-.06-.27,0,0-.24l.83-.12c.25-.17.09-.42.65-.5-.08,0-.22,0,0-.12,2.72-1.14,5.19-3,8.06-4-.41.09-.17,0,.1-.19-.19.07-.06-.13-.13-.17l1.2-.4c.1-.29,1.17-.64,1.19-.88l-.33.22c.35-.46-.9-.12-1-.43-.39.51-1.56.37-2.23,1.17-.22,0,.12-.17,0-.18a1.75,1.75,0,0,1-.91.59l0-.05c-1.35.74-2,.94-3.56,1.67l.19.08a3.08,3.08,0,0,1-.6.2c-.27.4.92-.48.7-.08-.58,0-2.32,1.23-2.77,1.07-.51.27.23.08-.28.34H94l-.07.18c-.34.16-.56.14-.61.08a2,2,0,0,0,.3-.2,10.7,10.7,0,0,0-1.35.72l.51-.2c-1.34.81-3.08,1.59-4.32,2.46h.14c-1,.66-.85.36-1.94,1l0,0a3.53,3.53,0,0,1-.78.53c.24-.22-.6.14-.28-.14-1,.71-.49.39-1.09,1l-.23,0a1.93,1.93,0,0,1-.73.61c.41-.33-.44,0,0-.36-1.29.39-1.62,1.15-2.33,1.1-.38.57,1.1-.38.83-.15.3,0-.33.45-.71.61s-.83,0-1.77.47c.09,0,.09-.07.18-.12-.39.11-.63.47-1.13.58-.15.3-.56.28-.51.54l.83-.51a5.34,5.34,0,0,1-1.65,1.12,2.85,2.85,0,0,1,.39-.38c-.27.06-.43.28-.7.35,0-.26,1-.61,1.45-1.06-.3,0-.9.69-.77.31-.21.51-1,.45-1.46,1l0-.15c-.07.07-.11.17-.22.22a.85.85,0,0,0,.09-.27.23.23,0,0,1-.31.12c0-.09,0-.15-.07-.17a.4.4,0,0,1,.06.21c0,.05-.14.27,0,.29l-.09.07a.58.58,0,0,1-.14-.58c.09-.07,0-.46-.36-1.1.12.19.3.77.08.5a4.42,4.42,0,0,1-.27-.87c-.53-.94-.06.21-.36-.15,0-.4-.31-.43-.58-.81l.13-.08c-.48-1.12-.43-.13-.84-1.16l.4.31L73.38,55l.21,0a3.67,3.67,0,0,1-.71-1.24c0,.18-.29.06-.54-.41s.22.11-.16-.56a.67.67,0,0,1,.39.58c.06,0,.17.11.23.12a5.26,5.26,0,0,0-.58-1.14,1.14,1.14,0,0,1,.11.28l-.71-.88c0-.18.08-.08.18,0-.12-.19-.25-.3-.42-.58.15,0,.25-.06.53.32l-.62-.87c0-.08-.13-.55,0-.45-.21-.55-.89-1.15-1.17-1.89a.63.63,0,0,1-.19-.22,8.87,8.87,0,0,0-1-2l0-.54c-.37-.57.06.72-.55-.24-.43-.67,0-.35,0-.63a3.41,3.41,0,0,1-1-1.53A5.57,5.57,0,0,1,67.58,43.73Zm-4-7.35c.11.13.35.37.32.51C63.65,36.81,63.66,36.65,63.57,36.38Zm1-8.35a.93.93,0,0,1-.48.22A1.78,1.78,0,0,1,64.58,28Zm28.85-7.57h0C93.29,20.1,93.33,20.22,93.43,20.46Zm.29.69c0,.06.07.05.07,0a1,1,0,0,1-.22-.35C93.56,20.87,93.58,21,93.72,21.15ZM80.28,58.27l-.14,0C80.41,58.11,80.34,58.19,80.28,58.27Z" transform="translate(6.85 1.82)"/><path class="cls-6" d="M63.4,28.89a.13.13,0,0,1-.1,0S63.27,28.93,63.4,28.89Z" transform="translate(6.85 1.82)"/><path class="cls-6" d="M70.09,48.29v0h0Z" transform="translate(6.85 1.82)"/><path class="cls-6" d="M86.41,16.79a.94.94,0,0,1-.3.07S86.2,16.89,86.41,16.79Z" transform="translate(6.85 1.82)"/><path class="cls-6" d="M95.81,24.55l-.26-.41a1.15,1.15,0,0,1,.16.41S95.74,24.42,95.81,24.55Z" transform="translate(6.85 1.82)"/><path class="cls-6" d="M96.93,28.68c0,.06.07.13.12.19l.06-.05C97,28.55,96.81,28.4,96.93,28.68Z" transform="translate(6.85 1.82)"/><path class="cls-6" d="M95.57,25.18c-.09.09.09.34.27.63l0-.06C96,25.76,95.79,25.47,95.57,25.18Z" transform="translate(6.85 1.82)"/><path class="cls-6" d="M95.88,25.87c.05.09.1.19.14.28S96,26,95.88,25.87Z" transform="translate(6.85 1.82)"/><path class="cls-6" d="M94.24,22c.05.15.19,0,.19.11C94.66,22.15,93.75,21.22,94.24,22Z" transform="translate(6.85 1.82)"/><polygon class="cls-6" points="102.18 27.44 102.26 27.26 102.06 27.15 102.18 27.44"/><path class="cls-6" d="M94.18,23.21l.21.5s.07,0,.12.1C94.36,23.52,94.22,23.18,94.18,23.21Z" transform="translate(6.85 1.82)"/><path class="cls-6" d="M94.51,23.81a1.6,1.6,0,0,0,.23.37Z" transform="translate(6.85 1.82)"/><polygon class="cls-6" points="101.79 26.81 101.74 26.66 101.58 26.32 101.79 26.81"/><path class="cls-6" d="M91.5,18.08l-.32-.49c-.08,0,0,.13.09.31S91.49,18.19,91.5,18.08Z" transform="translate(6.85 1.82)"/><path class="cls-6" d="M91.94,19.86a.58.58,0,0,1,0-.29l-.18.08Z" transform="translate(6.85 1.82)"/><path class="cls-6" d="M91.1,18.37c-.08,0-.54-.68-.18,0C91,18.37,91.31,18.87,91.1,18.37Z" transform="translate(6.85 1.82)"/><polygon class="cls-6" points="92.21 18.56 92.34 18.49 92.17 18.21 92.21 18.56"/><path class="cls-6" d="M78.82,21.08c.65-.26.06-.25.66-.46.11-.15-.49.17-.38,0C78.77,20.92,78.55,21,78.82,21.08Z" transform="translate(6.85 1.82)"/><path class="cls-6" d="M79.1,20.65l.17-.14A1.1,1.1,0,0,0,79.1,20.65Z" transform="translate(6.85 1.82)"/><polygon class="cls-6" points="111.37 47.42 111.8 47.27 111.5 47.31 111.37 47.42"/><path class="cls-6" d="M105.17,45l.19.13.15-.29A.87.87,0,0,1,105.17,45Z" transform="translate(6.85 1.82)"/><path class="cls-6" d="M63.36,35.09H63.3c0,.09,0,.18.12.37Z" transform="translate(6.85 1.82)"/><polygon class="cls-6" points="72.92 42.35 72.87 42.25 72.8 42.51 72.92 42.35"/><path class="cls-6" d="M68.67,44.92c-.09-.19-.25-.39-.34-.57C68.58,44.73,68.49,45.08,68.67,44.92Z" transform="translate(6.85 1.82)"/></g><g class="cls-5"><path class="cls-6" d="M39.86,62.12c.09.19.17.06.21.08C39.88,61.91,39.84,62.15,39.86,62.12Z" transform="translate(6.85 1.82)"/><polygon class="cls-6" points="44.91 61.18 44.98 61.2 44.63 60.84 44.91 61.18"/><path class="cls-6" d="M36.61,56.63c-.06.37.56,1,.74,1.5v.1l.28.13A15.66,15.66,0,0,1,36.61,56.63Z" transform="translate(6.85 1.82)"/><path class="cls-6" d="M36.28,55c0,.13-.24-.27.15.35v-.07Z" transform="translate(6.85 1.82)"/><path class="cls-6" d="M36.42,55.23c.16.29,0-.22,0,0Z" transform="translate(6.85 1.82)"/><path class="cls-6" d="M35.67,53.93l.27.34c0-.1-.16-.44-.06-.33C35.64,53.57,35.63,53.67,35.67,53.93Z" transform="translate(6.85 1.82)"/><path class="cls-6" d="M35.34,53.65l.13.18S35.45,53.73,35.34,53.65Z" transform="translate(6.85 1.82)"/><path class="cls-6" d="M35.75,54.21l-.28-.38c0,.07-.06.11.12.18C35.52,54,35.62,54.06,35.75,54.21Z" transform="translate(6.85 1.82)"/><path class="cls-6" d="M35.85,54.47c.07.23.18.52-.09.18C36.17,55.35,36.26,55.17,35.85,54.47Z" transform="translate(6.85 1.82)"/><path class="cls-6" d="M36.33,56.61l.09.31.2.21C36.52,57,36.39,56.55,36.33,56.61Z" transform="translate(6.85 1.82)"/><path class="cls-6" d="M34.53,51.53c-.06,0-.05.18-.09.24l.2.25C34.59,51.87,34.48,51.58,34.53,51.53Z" transform="translate(6.85 1.82)"/><path class="cls-6" d="M34.44,51.77l-.29-.38C34.34,51.77,34.41,51.82,34.44,51.77Z" transform="translate(6.85 1.82)"/><polygon class="cls-6" points="41.93 55.52 42.45 56.13 41.86 55.39 41.93 55.52"/><polygon class="cls-6" points="40.54 51.75 40.77 51.94 40.39 51.59 40.54 51.75"/><path class="cls-6" d="M33.11,48.88c.18.13,0-.31.16-.15a3.51,3.51,0,0,0-.54-.68A2.68,2.68,0,0,1,33.11,48.88Z" transform="translate(6.85 1.82)"/><path class="cls-6" d="M32.44,47.73a2.8,2.8,0,0,0,.29.32A2.89,2.89,0,0,0,32.44,47.73Z" transform="translate(6.85 1.82)"/><path class="cls-6" d="M33.79,50.67a.54.54,0,0,0,0-.39l0,.23Z" transform="translate(6.85 1.82)"/><path class="cls-6" d="M33.71,50.51h0c-.09-.18-.16-.31-.18-.36Z" transform="translate(6.85 1.82)"/><path class="cls-6" d="M33.82,50.71l0,0S33.79,50.7,33.82,50.71Z" transform="translate(6.85 1.82)"/><path class="cls-6" d="M34.61,52.55c-.2-.21-.54-.68-.38-.13C34.4,52.55,34.31,52.24,34.61,52.55Z" transform="translate(6.85 1.82)"/><path class="cls-6" d="M33.77,51l.21.45s0-.13.13,0Z" transform="translate(6.85 1.82)"/><polygon class="cls-6" points="40.47 52.62 40.63 52.82 40.55 52.65 40.47 52.62"/><path class="cls-6" d="M32.73,48.55a3.15,3.15,0,0,1-.41-.6c.11.26.24.53.37.78C32.75,48.75,32.88,48.82,32.73,48.55Z" transform="translate(6.85 1.82)"/><path class="cls-6" d="M33.19,49.51l0,0S33.18,49.53,33.19,49.51Z" transform="translate(6.85 1.82)"/><polygon class="cls-6" points="37.94 47.44 37.94 47.49 37.97 47.49 37.94 47.44"/><path class="cls-6" d="M32.69,48.79a1,1,0,0,0,.27.39q-.14-.21-.27-.45S32.66,48.73,32.69,48.79Z" transform="translate(6.85 1.82)"/><path class="cls-6" d="M32,47.11a2.15,2.15,0,0,0,.11.37C32.13,47.36,32.09,47.13,32,47.11Z" transform="translate(6.85 1.82)"/><path class="cls-6" d="M33.16,49.39l0,0C33.18,49.34,33.17,49.35,33.16,49.39Z" transform="translate(6.85 1.82)"/><path class="cls-6" d="M33.16,49.39a2.08,2.08,0,0,0-.2-.21l.2.29Z" transform="translate(6.85 1.82)"/><path class="cls-6" d="M30,45.32c.13,0,.49.42.6.92.31.38.53-.09.54-.57-.06,0-.1,0-.4-.37,0,.19.37,1.05.08.73-.37-.55-.22-.49-.31-.81,0,.32-.59-.63-.73-.39l.35.47S29.9,45.16,30,45.32Z" transform="translate(6.85 1.82)"/><path class="cls-6" d="M31.52,46.51l.11.17a3.21,3.21,0,0,1-.18-.7c-.21-.27-.29-.31-.34-.31l.46.89Z" transform="translate(6.85 1.82)"/><path class="cls-6" d="M32.06,47.49c-.2-.08-.48-.48-.47-.15.29.53.3.32.52.61-.48-.84.2.21-.06-.45.11.16.19.31.27.45l-.17-.47v0h0s0,.07,0,0l0,0s0,0-.06,0c-.11-.26,0-.06.06,0h0l-.52-.82A7,7,0,0,0,32.06,47.49Z" transform="translate(6.85 1.82)"/><path class="cls-6" d="M33.73,52.1s0,0,0,0S33.67,52,33.73,52.1Z" transform="translate(6.85 1.82)"/><path class="cls-6" d="M33.61,51.71a.63.63,0,0,1,.22.29c.06.19-.06,0-.09.06s.31.38.17,0l0-.06a2.32,2.32,0,0,1-.18-.83A1.44,1.44,0,0,0,33.61,51.71Z" transform="translate(6.85 1.82)"/><path class="cls-6" d="M32.79,49.59l-.44-.68.09.42.06,0C32.69,49.7,32.72,49.57,32.79,49.59Z" transform="translate(6.85 1.82)"/><polygon class="cls-6" points="37.96 47.33 38.14 47.35 37.74 47.04 37.96 47.33"/><polygon class="cls-6" points="37.45 46.41 37.58 46.38 37.39 46.18 37.45 46.41"/><path class="cls-6" d="M-.37,58.41l.14.19A1.33,1.33,0,0,0-.37,58.41Z" transform="translate(6.85 1.82)"/><path class="cls-6" d="M-1.16,56.89h-.08C-1.17,56.94-1.13,57-1.16,56.89Z" transform="translate(6.85 1.82)"/><path class="cls-6" d="M12.53,37.66c-.36.06-.79.08-.68.18l.15.08A2.12,2.12,0,0,1,12.53,37.66Z" transform="translate(6.85 1.82)"/><path class="cls-6" d="M-2.64,46.64h.1c.06-.08.1-.16.15-.23Z" transform="translate(6.85 1.82)"/><path class="cls-6" d="M-2.59,47.25l-.45.14A2.36,2.36,0,0,0-2.59,47.25Z" transform="translate(6.85 1.82)"/><path class="cls-6" d="M4.15,66.61l.25.18C4.2,66.41,4.22,66.61,4.15,66.61Z" transform="translate(6.85 1.82)"/><path class="cls-6" d="M25.53,35.14a5.18,5.18,0,0,0-.27-.7C25.36,34.8,25.39,35.11,25.53,35.14Z" transform="translate(6.85 1.82)"/><path class="cls-6" d="M-2,58.5c.09.12.15.16.17.14S-2,58.46-2,58.5Z" transform="translate(6.85 1.82)"/><path class="cls-6" d="M24.86,33.68l0,.16a6.34,6.34,0,0,1,.36.6A1.65,1.65,0,0,0,24.86,33.68Z" transform="translate(6.85 1.82)"/><path class="cls-6" d="M27.61,67.91l.07,0S27.65,67.89,27.61,67.91Z" transform="translate(6.85 1.82)"/><path class="cls-6" d="M37,64.51l-.36.2A3.22,3.22,0,0,0,37,64.51Z" transform="translate(6.85 1.82)"/><path class="cls-6" d="M28.68,40.84c.11.19,0,0,0,0Z" transform="translate(6.85 1.82)"/><path class="cls-6" d="M28.71,42.05s-.07-.06-.11,0A.16.16,0,0,1,28.71,42.05Z" transform="translate(6.85 1.82)"/><path class="cls-6" d="M22.78,33.15h0Z" transform="translate(6.85 1.82)"/><path class="cls-6" d="M28.78,41.16a2.13,2.13,0,0,0-.09-.27A2.66,2.66,0,0,0,28.78,41.16Z" transform="translate(6.85 1.82)"/><path class="cls-6" d="M28.82,41.09a1.59,1.59,0,0,0,.08.18S28.93,41.26,28.82,41.09Z" transform="translate(6.85 1.82)"/><path class="cls-6" d="M28.53,40.57l.16.32s0-.06,0,0Z" transform="translate(6.85 1.82)"/><path class="cls-6" d="M11.71,76.76h0C11.93,76.59,11.85,76.65,11.71,76.76Z" transform="translate(6.85 1.82)"/><polygon class="cls-6" points="14.94 43.45 14.96 43.44 14.93 43.45 14.94 43.45"/><path class="cls-6" d="M7.44,42.1a1.09,1.09,0,0,1,.64-.47l-.42-.23Z" transform="translate(6.85 1.82)"/><path class="cls-6" d="M1.59,62l-.15-.56c.49.51.66,1,.57.42C1.59,62,1,60,.53,60.12l-.09-.37c0,.09.07.09.12.19-.15-.73-.53-.33-.9-1.17-.13-.3-.18-.53,0-.36l-.43-.59c-.09-.18,0-.17.09,0l-.54-.95h0a6,6,0,0,1-.51-.5c-.08-.27.11.1.12,0L-2,55.91c0-.27.32.12.5.5.12-.7-.33-.4-.68-1.59l.31.48c0-.44-.24-.8-.41-1.44,0,.17.27,1.32-.13.79A1.76,1.76,0,0,0-2.83,54c.14-.08-.06-.37-.27-.75l.19-.06c-.27-.39-.34-.31-.55-.51a.83.83,0,0,1-.08-.81c-.37-.76,0,.63-.45-.23A7.27,7.27,0,0,0-5,49.89c-.17-.46.15,0,.12-.16l-.35-.31c0-.08,0-.06,0-.07s-.18.08-.41-.22c-.12,0-.15-.2-.15-.33.36-.09.58-.09.74-.33.19,0,0,.15.07.19A10,10,0,0,0-3.7,47.59l.66-.2c-.51.1,0-.36.4-.75a3.36,3.36,0,0,0-.46,0l.73-.52c.11,0,.07.09,0,.23l.12-.12c.32-.08.23.1.08.31l-.35,0c-.13.21-.25.43-.15.51A1.28,1.28,0,0,1-2.46,47c0,.06-.06.1,0,.11s.1-.08.2-.19L-2,47v-.1l1.09-.42a12.32,12.32,0,0,1,2.25-1.93c-.21.3.06.27.14.45-.42,0-.87.56-1.49.84.32-.14.3,0,.23,0l1-.74c.05.15.28,0,.6-.11-.37-.17.7-.62,1.1-.94.08.08,0,.24-.53.5.71-.1.59-.74,1.27-.87-.13.08-.21.1-.23.17.26-.24,1-.57.91-.4l-.13.07c.89-.43,2.65-1.4,2.66-1.71a1.21,1.21,0,0,1,0,.43L8,40.63c0,.28.75.49.09,1a3,3,0,0,0,.9-.48c-.16,0-.51-.11-.33-.23a7,7,0,0,0,1.19-.23c-.23.07-.17-.38.17-.54,0,.07.2.3.09.4l.67-.76c-.18.17.11.29.34.28-.12,0,.73-.38.93-.53l-.39.11c1-.45.69-.93,1.64-1.41-.08.12-.07.55.43.34a4.83,4.83,0,0,1,1.31-1.86h.21l.58-.44a16.52,16.52,0,0,1-1.61,2.07c.39-.11.16.06.68-.23.23,0-.22.29-.37.37l1.26-.59c-.15-.16.84-.69.71-.82l-1.23.9c-.16-.16.49-.94,1.37-1.37.27,0,0,.42.07.47a2.91,2.91,0,0,1,.86-.55l-.31.29c.52-.18.66-.67,1.33-.8.21-.09.73-.07.71-.2-.44,0-.86-.67-.73-1A10.76,10.76,0,0,1,20,34.49c.42,0-.28.66.08.66,0-.06.13-.22.2-.28.23-.07,0,.21.44-.06,0-.23.94-.48.13-.28a9.75,9.75,0,0,1,1-.5c-.21,0,.22-.65.71-1,0,.07.11.09.16.1l.63-.31c.27.6.41,1,.75,1.62,0,.1.16.55,0,.42a1.48,1.48,0,0,1,.37.44c.11.6-.33-.57-.33-.08.13,0,.52.6.79.94.11-.2-.43-.88-.7-1.22.24-.13.83.39,1.42,1.23.43.68,0,.39.11.5.67,1.36,1,.92,1.43,2.12.09.52-.28.18-.34.34a8.63,8.63,0,0,1-.59-1.34l.18.53a2.53,2.53,0,0,1-.46-.76c.06.44,1.18,2.27,1.6,3.37.15.16.37.45.35.27l-.2-.32c0-.37.5.53.33.08a5.21,5.21,0,0,1,1,1.47l-.11.21a1.18,1.18,0,0,0-.26-.61c.21.22.27,1.07.64,1.23l-.11-.49a5.84,5.84,0,0,1,1,1.42c0-.34-.09-.12-.09-.61-.07.46-.73-1.41-.71-.73,0-.52-.27-.74-.35-1.37,0,0,0,.24-.22-.23l-.11-.07v0s0,0,0,0a.67.67,0,0,1,0,.28c-.25-.16-.63-.89-.83-1.1s.12.08.1-.1L27.81,40c.1-.1-.18-.83.24-.23l-.3-.58A3.65,3.65,0,0,0,27.21,38c-.12-.29-.5-.61-.28-.43l-.56-.86,0,0a14.89,14.89,0,0,1-1.5-2.87l-.14-.22-.08-.12-.12-.2c-.16-.28-.33-.6-.54-1L24,32l-.21-.38a12.73,12.73,0,0,0-1.88,1c-.57-.07-1.91.93-2.61,1.24l.05.15a13,13,0,0,0-1.45.89l.1.1a20.32,20.32,0,0,1-2.12,1c0-.08.24-.17.39-.22-1.09.22-1.88,1.27-2.85,1.52a1.3,1.3,0,0,1-.52.27l0,0-.09,0-.33.09.28-.06a6.13,6.13,0,0,0-.63.4L12,37.92,12,38c-.27.08-.16.17,0,.2a2.44,2.44,0,0,0-.28.25c-.31-.11-.6.42-1,.33-.11.2-1.19.74-1.19,1,0,0-.11,0,0-.07a2.45,2.45,0,0,0-.78.43L8.54,40l-.47.55c-.42.08-.6.1-.31-.22-.77.66-.67.45-1.3,1l0-.13c-.27.15-.61.52-.82.51-.7.11-2.94,1.53-4.56,2.13.47.17-.78.23-.71.52-.13,0-.36,0-.15-.16-.73.48-1.23.49-1.65,1-.13,0,.11-.2,0-.21s-.21.2-.31.2.08-.13.18-.23c-.78.44-.74.72-.68,1a1.25,1.25,0,0,0-.86.53c-.17,0-.45.05,0-.24-.28.13-1.75.79-1.68,1a1.17,1.17,0,0,0-.45.25l-.78.39-.85.46.26-.1a.31.31,0,0,1-.19.24c.13.22.19.49.42.89h0a3.63,3.63,0,0,0,.43.92,2.84,2.84,0,0,1,.36.83l.11-.13c.34-.05.35,1.07.8,1.66l0-.28c.29.3.13,1.2.28,1.57,0,.09-.1-.1-.18-.2.32,1,.24,0,.65.7,0,.17-.33,0-.1.44,0,.27,1,1.18,1.18,1.91,0-.18,0-.36.22-.07.29.48.43,1.48.89,1.8,0,.07,0,.11,0,.12A10,10,0,0,0-.82,60c-.28.59,1.47,2.21,1,2.43l.64,1.14H.79a2.94,2.94,0,0,0,.84,1.16c.07.19,0,.08-.07.08a5.35,5.35,0,0,0,1.25,2L2.72,67a23.87,23.87,0,0,0,1.34,2.65s-.06,0-.13-.09c.8,1.11,1.13,3.06,1.86,3.23l.55.72c-.5-1,.3,0,.16-.43.24.38.39,1.11.11.63l0-.09c-.36,0,.58,1.32.38,1.38.34.64.66,1.27,1,1.9q.6,1.23,1.2,2.43l2.66-1.35-.32-.09.66-.33c.2,0,.31,0-.16.27.31,0,.73-.51.72-.56,1-.4-.23.43.06.29l.37-.22-.1,0a2.16,2.16,0,0,1,.81-.64c.38-.14.25,0,.39,0s.06,0,.22-.11l.83-.42h-.41c.32-.27.78-.4.3-.38.71,0,3.12-1.53,3.51-1.62a7.15,7.15,0,0,1,1.59-1c-.18,0-.37-.09.19-.35,0,.48,1.07-.36,1.65-.32-.49,0,1.51-.86.76-.79.47-.21.1.13.49,0,1-.72,2.41-1.16,3.71-1.91,0-.06-.27,0,0-.24l.83-.13c.25-.16.09-.41.66-.49-.09,0-.22,0-.06-.12,2.72-1.14,5.2-3,8.07-3.95-.41.09-.18-.05.09-.19-.19.07-.06-.13-.13-.18l1.2-.39c.1-.3,1.18-.64,1.2-.88l-.33.22c.35-.46-.9-.13-1-.43-.4.51-1.56.37-2.23,1.17-.22,0,.11-.18,0-.18a1.83,1.83,0,0,1-.92.59l0-.06c-1.34.75-2,1-3.55,1.68l.18.07a2,2,0,0,1-.6.2c-.27.41.93-.47.71-.07-.58,0-2.32,1.22-2.78,1.07-.5.27.23.08-.27.34H28l-.07.18c-.34.15-.56.14-.61.07a2.49,2.49,0,0,0,.3-.19,11.78,11.78,0,0,0-1.36.72l.51-.2c-1.33.8-3.07,1.59-4.31,2.46h.13c-.95.66-.85.36-1.93,1l0,0a3.53,3.53,0,0,1-.78.53c.24-.23-.61.13-.28-.14-1,.71-.49.38-1.1,1H18.3a2.1,2.1,0,0,1-.74.61c.41-.33-.44,0,0-.36-1.29.39-1.61,1.15-2.32,1.1-.39.57,1.09-.38.82-.16.31,0-.32.45-.71.62s-.83,0-1.76.47c.09,0,.09-.07.18-.12-.39.11-.64.46-1.13.57-.15.31-.57.29-.52.55L13,76a5.34,5.34,0,0,1-1.65,1.12,2,2,0,0,1,.39-.38c-.27.06-.43.28-.71.34-.05-.26,1-.6,1.46-1-.31,0-.91.69-.77.31-.22.51-.95.45-1.46,1l0-.15c-.08.06-.12.17-.22.22a2.13,2.13,0,0,0,.09-.27.23.23,0,0,1-.31.12c0-.1,0-.15-.07-.17a.4.4,0,0,1,.06.21s-.15.27,0,.29l-.09.07a.56.56,0,0,1-.14-.58c.08-.07,0-.46-.36-1.1.12.18.3.77.08.5a4,4,0,0,1-.28-.88c-.53-.93-.06.22-.35-.14,0-.41-.31-.43-.59-.82l.14-.07c-.49-1.12-.44-.14-.85-1.16l.41.31-.32-.48.21,0a4,4,0,0,1-.71-1.24c0,.18-.28.06-.54-.41-.09-.37.23.11-.15-.56a.69.69,0,0,1,.39.58c.06,0,.17.11.23.12a5.48,5.48,0,0,0-.58-1.14,1.77,1.77,0,0,1,.11.28l-.71-.88c0-.18.07-.08.18,0-.12-.19-.26-.3-.42-.58.15,0,.25-.06.52.32l-.62-.87c0-.09-.12-.55,0-.45-.21-.55-.89-1.16-1.17-1.89a.63.63,0,0,1-.19-.22,8.53,8.53,0,0,0-1-2l0-.54c-.36-.58.06.72-.54-.24-.44-.67,0-.35,0-.63a3.47,3.47,0,0,1-1-1.54A5.7,5.7,0,0,1,1.59,62Zm-4-7.35c.11.13.34.37.32.51C-2.34,55.1-2.33,54.94-2.42,54.67Zm1-8.35a.82.82,0,0,1-.47.21A2.07,2.07,0,0,1-1.42,46.32Zm28.85-7.57v0C27.3,38.39,27.34,38.51,27.43,38.75Zm.29.69c.06.06.07,0,.08,0a.92.92,0,0,1-.22-.36C27.57,39.16,27.59,39.26,27.72,39.44ZM14.29,76.56l-.15,0C14.41,76.4,14.35,76.48,14.29,76.56Z" transform="translate(6.85 1.82)"/><path class="cls-6" d="M-2.59,47.18a.12.12,0,0,1-.1,0C-2.74,47.19-2.73,47.22-2.59,47.18Z" transform="translate(6.85 1.82)"/><path class="cls-6" d="M4.1,66.58v0h0Z" transform="translate(6.85 1.82)"/><path class="cls-6" d="M20.42,35.08a1.06,1.06,0,0,1-.3.07S20.21,35.18,20.42,35.08Z" transform="translate(6.85 1.82)"/><path class="cls-6" d="M29.82,42.84l-.26-.41a1.74,1.74,0,0,1,.16.41S29.75,42.71,29.82,42.84Z" transform="translate(6.85 1.82)"/><path class="cls-6" d="M30.94,47c0,.05.07.13.12.18l.05,0C31,46.84,30.82,46.68,30.94,47Z" transform="translate(6.85 1.82)"/><path class="cls-6" d="M29.58,43.47c-.1.09.08.34.26.63l0-.06C30,44.05,29.8,43.76,29.58,43.47Z" transform="translate(6.85 1.82)"/><path class="cls-6" d="M29.88,44.16a1.51,1.51,0,0,1,.15.28C30.11,44.44,30,44.32,29.88,44.16Z" transform="translate(6.85 1.82)"/><path class="cls-6" d="M28.25,40.24c0,.16.19,0,.18.12C28.66,40.44,27.76,39.51,28.25,40.24Z" transform="translate(6.85 1.82)"/><polygon class="cls-6" points="36.18 45.73 36.27 45.55 36.06 45.44 36.18 45.73"/><path class="cls-6" d="M28.19,41.5l.21.5s.07,0,.12.1C28.37,41.81,28.22,41.47,28.19,41.5Z" transform="translate(6.85 1.82)"/><path class="cls-6" d="M28.52,42.1a1.33,1.33,0,0,0,.22.37A3.23,3.23,0,0,0,28.52,42.1Z" transform="translate(6.85 1.82)"/><polygon class="cls-6" points="35.8 45.1 35.75 44.95 35.58 44.6 35.8 45.1"/><path class="cls-6" d="M25.5,36.37l-.31-.49c-.08,0,0,.12.09.31S25.5,36.48,25.5,36.37Z" transform="translate(6.85 1.82)"/><path class="cls-6" d="M26,38.15a.48.48,0,0,1,0-.29l-.19.08Z" transform="translate(6.85 1.82)"/><path class="cls-6" d="M25.11,36.65c-.08,0-.54-.68-.18,0C25,36.65,25.32,37.15,25.11,36.65Z" transform="translate(6.85 1.82)"/><polygon class="cls-6" points="26.21 36.85 26.34 36.78 26.18 36.5 26.21 36.85"/><path class="cls-6" d="M12.83,39.37c.65-.26.05-.26.65-.46.11-.15-.49.17-.37,0C12.77,39.21,12.56,39.27,12.83,39.37Z" transform="translate(6.85 1.82)"/><path class="cls-6" d="M13.11,38.94l.17-.14A.74.74,0,0,0,13.11,38.94Z" transform="translate(6.85 1.82)"/><polygon class="cls-6" points="45.38 65.71 45.81 65.56 45.5 65.6 45.38 65.71"/><path class="cls-6" d="M39.18,63.28l.19.13.15-.29A1,1,0,0,1,39.18,63.28Z" transform="translate(6.85 1.82)"/><path class="cls-6" d="M-2.64,53.37H-2.7a.84.84,0,0,0,.13.37Z" transform="translate(6.85 1.82)"/><polygon class="cls-6" points="6.93 60.63 6.88 60.54 6.81 60.8 6.93 60.63"/><path class="cls-6" d="M2.67,63.21c-.09-.19-.24-.39-.33-.58C2.58,63,2.49,63.37,2.67,63.21Z" transform="translate(6.85 1.82)"/></g><g class="cls-5"><path class="cls-6" d="M67.33,69.39c.08.18.17,0,.2.07C67.35,69.18,67.3,69.41,67.33,69.39Z" transform="translate(6.85 1.82)"/><polygon class="cls-6" points="72.37 68.44 72.45 68.47 72.1 68.1 72.37 68.44"/><path class="cls-6" d="M64.08,63.9c-.06.36.55,1,.74,1.49v.1l.27.14A17.46,17.46,0,0,1,64.08,63.9Z" transform="translate(6.85 1.82)"/><path class="cls-6" d="M63.74,62.22c0,.13-.23-.28.16.35V62.5Z" transform="translate(6.85 1.82)"/><path class="cls-6" d="M63.89,62.5c.15.28,0-.23,0,0Z" transform="translate(6.85 1.82)"/><path class="cls-6" d="M63.14,61.2l.27.34c0-.11-.16-.45-.06-.34C63.1,60.83,63.1,60.94,63.14,61.2Z" transform="translate(6.85 1.82)"/><path class="cls-6" d="M62.8,60.92l.14.18C62.94,61.05,62.92,61,62.8,60.92Z" transform="translate(6.85 1.82)"/><path class="cls-6" d="M63.22,61.48l-.28-.38c0,.07-.07.11.12.18C63,61.27,63.08,61.32,63.22,61.48Z" transform="translate(6.85 1.82)"/><path class="cls-6" d="M63.31,61.73c.07.23.19.52-.08.18C63.64,62.62,63.72,62.44,63.31,61.73Z" transform="translate(6.85 1.82)"/><path class="cls-6" d="M63.8,63.87l.09.31.2.21C64,64.29,63.85,63.82,63.8,63.87Z" transform="translate(6.85 1.82)"/><path class="cls-6" d="M62,58.79c-.06,0,0,.19-.09.24l.2.26C62.06,59.13,61.94,58.84,62,58.79Z" transform="translate(6.85 1.82)"/><path class="cls-6" d="M61.91,59l-.29-.37C61.8,59,61.88,59.08,61.91,59Z" transform="translate(6.85 1.82)"/><polygon class="cls-6" points="69.4 62.79 69.91 63.39 69.33 62.66 69.4 62.79"/><polygon class="cls-6" points="68.01 59.02 68.23 59.2 67.86 58.86 68.01 59.02"/><path class="cls-6" d="M60.58,56.15c.17.13,0-.32.16-.16a3.52,3.52,0,0,0-.55-.67A2.57,2.57,0,0,1,60.58,56.15Z" transform="translate(6.85 1.82)"/><path class="cls-6" d="M59.9,55a4,4,0,0,0,.29.32A1.47,1.47,0,0,0,59.9,55Z" transform="translate(6.85 1.82)"/><path class="cls-6" d="M61.26,57.93a.6.6,0,0,0,0-.39l0,.23Z" transform="translate(6.85 1.82)"/><path class="cls-6" d="M61.17,57.78h0L61,57.41Z" transform="translate(6.85 1.82)"/><path class="cls-6" d="M61.28,58l0,0S61.26,58,61.28,58Z" transform="translate(6.85 1.82)"/><path class="cls-6" d="M62.07,59.82c-.19-.21-.54-.69-.38-.14C61.87,59.81,61.78,59.5,62.07,59.82Z" transform="translate(6.85 1.82)"/><path class="cls-6" d="M61.24,58.26l.21.46s0-.13.13,0Z" transform="translate(6.85 1.82)"/><polygon class="cls-6" points="67.94 59.88 68.09 60.08 68.01 59.91 67.94 59.88"/><path class="cls-6" d="M60.19,55.81a3.13,3.13,0,0,1-.4-.6,8,8,0,0,0,.37.78C60.22,56,60.34,56.08,60.19,55.81Z" transform="translate(6.85 1.82)"/><path class="cls-6" d="M60.66,56.77l0,0S60.64,56.79,60.66,56.77Z" transform="translate(6.85 1.82)"/><polygon class="cls-6" points="65.41 54.7 65.41 54.75 65.43 54.75 65.41 54.7"/><path class="cls-6" d="M60.16,56.05a1,1,0,0,0,.26.39c-.09-.14-.17-.28-.26-.45C60.13,56,60.12,56,60.16,56.05Z" transform="translate(6.85 1.82)"/><path class="cls-6" d="M59.5,54.38c0,.11.07.23.11.36C59.6,54.62,59.55,54.39,59.5,54.38Z" transform="translate(6.85 1.82)"/><path class="cls-6" d="M60.63,56.65l0,0C60.64,56.6,60.63,56.62,60.63,56.65Z" transform="translate(6.85 1.82)"/><path class="cls-6" d="M60.63,56.65a1.39,1.39,0,0,0-.21-.21,2.43,2.43,0,0,0,.21.29Z" transform="translate(6.85 1.82)"/><path class="cls-6" d="M57.41,52.59c.13,0,.5.42.61.91.31.38.53-.09.53-.57,0,0-.1,0-.39-.37,0,.19.37,1,.07.74-.36-.55-.21-.5-.3-.81,0,.31-.59-.63-.73-.4l.34.47S57.37,52.43,57.41,52.59Z" transform="translate(6.85 1.82)"/><path class="cls-6" d="M59,53.77l.11.17a2.62,2.62,0,0,1-.18-.7c-.22-.27-.29-.31-.34-.31l.46.89Z" transform="translate(6.85 1.82)"/><path class="cls-6" d="M59.52,54.75c-.19-.07-.47-.48-.46-.14.29.52.3.31.52.6-.49-.84.19.21-.07-.44a4.54,4.54,0,0,1,.28.44l-.18-.47v0h0s0,.06,0,0h0l-.06,0c-.11-.26,0,0,.06,0h0l-.51-.82A6.48,6.48,0,0,0,59.52,54.75Z" transform="translate(6.85 1.82)"/><path class="cls-6" d="M61.19,59.36s0,0,0,0S61.14,59.26,61.19,59.36Z" transform="translate(6.85 1.82)"/><path class="cls-6" d="M61.08,59a.8.8,0,0,1,.22.29c.06.2-.06,0-.09.06s.31.38.16,0l0,0a2.15,2.15,0,0,1-.18-.84A1.16,1.16,0,0,0,61.08,59Z" transform="translate(6.85 1.82)"/><path class="cls-6" d="M60.26,56.86l-.44-.68.09.41.05-.05C60.15,57,60.18,56.83,60.26,56.86Z" transform="translate(6.85 1.82)"/><polygon class="cls-6" points="65.42 54.59 65.6 54.62 65.2 54.3 65.42 54.59"/><polygon class="cls-6" points="64.92 53.67 65.05 53.65 64.85 53.44 64.92 53.67"/><path class="cls-6" d="M27.1,65.67l.14.2A1.94,1.94,0,0,0,27.1,65.67Z" transform="translate(6.85 1.82)"/><path class="cls-6" d="M26.3,64.16h-.07C26.3,64.2,26.33,64.22,26.3,64.16Z" transform="translate(6.85 1.82)"/><path class="cls-6" d="M40,44.92c-.36.06-.78.08-.68.19l.16.07A1.93,1.93,0,0,1,40,44.92Z" transform="translate(6.85 1.82)"/><path class="cls-6" d="M24.82,53.9h.11l.14-.23Z" transform="translate(6.85 1.82)"/><path class="cls-6" d="M24.87,54.52l-.44.13A2.72,2.72,0,0,0,24.87,54.52Z" transform="translate(6.85 1.82)"/><path class="cls-6" d="M31.61,73.87l.26.18C31.66,73.67,31.69,73.87,31.61,73.87Z" transform="translate(6.85 1.82)"/><path class="cls-6" d="M53,42.4a4.52,4.52,0,0,0-.27-.69C52.82,42.06,52.85,42.37,53,42.4Z" transform="translate(6.85 1.82)"/><path class="cls-6" d="M25.49,65.76c.09.12.14.16.17.14S25.51,65.72,25.49,65.76Z" transform="translate(6.85 1.82)"/><path class="cls-6" d="M52.32,41l0,.15a5.47,5.47,0,0,1,.36.61A1.72,1.72,0,0,0,52.32,41Z" transform="translate(6.85 1.82)"/><path class="cls-6" d="M55.07,75.18l.08,0S55.12,75.15,55.07,75.18Z" transform="translate(6.85 1.82)"/><path class="cls-6" d="M64.46,71.77l-.35.2A1.37,1.37,0,0,0,64.46,71.77Z" transform="translate(6.85 1.82)"/><path class="cls-6" d="M56.15,48.1c.11.19,0,0,0,0Z" transform="translate(6.85 1.82)"/><path class="cls-6" d="M56.17,49.31s-.07-.06-.1-.05A.19.19,0,0,1,56.17,49.31Z" transform="translate(6.85 1.82)"/><path class="cls-6" d="M50.24,40.41h0C50.29,40.42,50.27,40.42,50.24,40.41Z" transform="translate(6.85 1.82)"/><path class="cls-6" d="M56.25,48.43c0-.08-.06-.18-.1-.27A2.09,2.09,0,0,0,56.25,48.43Z" transform="translate(6.85 1.82)"/><path class="cls-6" d="M56.29,48.36l.07.17S56.4,48.52,56.29,48.36Z" transform="translate(6.85 1.82)"/><path class="cls-6" d="M56,47.83a2.41,2.41,0,0,1,.15.33s0-.07,0-.06S56.07,48,56,47.83Z" transform="translate(6.85 1.82)"/><path class="cls-6" d="M39.18,84h0C39.4,83.86,39.31,83.91,39.18,84Z" transform="translate(6.85 1.82)"/><polygon class="cls-6" points="42.41 50.72 42.43 50.7 42.4 50.71 42.41 50.72"/><path class="cls-6" d="M34.9,49.36a1.12,1.12,0,0,1,.65-.47l-.42-.23Z" transform="translate(6.85 1.82)"/><path class="cls-6" d="M29.06,69.28l-.16-.55c.5.5.67,1,.57.42-.41.13-1.06-1.9-1.47-1.77L27.9,67c.05.1.08.1.13.19-.16-.73-.53-.32-.91-1.17-.12-.3-.17-.53,0-.36l-.43-.58c-.09-.19,0-.18.09,0l-.55-.95h0a4.91,4.91,0,0,1-.51-.51c-.08-.27.1.11.12,0l-.38-.49c0-.27.31.12.5.5.11-.7-.34-.39-.69-1.59l.32.48c0-.44-.24-.79-.41-1.44,0,.18.27,1.33-.14.8a1.87,1.87,0,0,0-.4-.68c.13-.07-.06-.36-.27-.74l.19-.07c-.27-.39-.35-.31-.56-.51a.85.85,0,0,1-.07-.81c-.37-.75,0,.63-.46-.23a7.17,7.17,0,0,0-1-1.72c-.17-.47.15,0,.12-.17l-.35-.3c0-.08,0-.07,0-.08-.14-.12-.18.09-.41-.22-.13,0-.16-.19-.15-.33.35-.09.58-.08.74-.33.18,0,0,.15.07.19a9.24,9.24,0,0,0,1.28-1.07l.66-.2c-.51.1,0-.36.39-.75l-.46.05.74-.51c.11,0,.06.08,0,.22l.13-.11c.31-.09.22.09.07.3l-.34,0c-.14.21-.25.43-.16.51l.23-.18c0,.05-.05.1,0,.1s.1-.07.21-.19l.28.11v-.11l1.1-.42a12.21,12.21,0,0,1,2.24-1.93c-.21.3.07.27.15.45-.42,0-.87.56-1.5.85.33-.15.3,0,.24,0l1-.74c0,.15.29,0,.6-.11-.36-.17.71-.61,1.11-.93.07.08,0,.23-.53.49.7-.1.59-.73,1.27-.86-.13.07-.21.09-.24.17.26-.25,1.05-.58.92-.4l-.13.07c.89-.43,2.65-1.41,2.65-1.71a1,1,0,0,1,0,.42l1.13-1.63c0,.28.76.49.1,1a2.93,2.93,0,0,0,.9-.49c-.16,0-.51-.11-.33-.23a6.21,6.21,0,0,0,1.19-.22c-.24.06-.17-.38.17-.55,0,.08.2.3.09.4l.67-.76c-.18.17.1.29.34.28-.12,0,.72-.38.93-.53l-.4.12c1-.45.7-.94,1.64-1.42-.08.13-.06.55.43.34A4.8,4.8,0,0,1,42.53,44h.2l.58-.45a14.92,14.92,0,0,1-1.6,2.08c.39-.12.15,0,.68-.23.23,0-.22.28-.37.37l1.26-.6c-.16-.16.84-.69.71-.82l-1.24.9c-.15-.16.49-.94,1.38-1.37.26,0,0,.43.06.48a3,3,0,0,1,.87-.56l-.32.3c.53-.19.66-.67,1.34-.8.21-.1.73-.08.71-.21-.45,0-.86-.67-.73-1a14.24,14.24,0,0,1,1.45-.37c.42,0-.28.67.08.66,0,0,.13-.21.19-.28.24-.06,0,.21.45-.06,0-.23.94-.48.13-.27a6.93,6.93,0,0,1,1-.5c-.22,0,.22-.66.71-1,0,.07.1.09.15.1l.63-.3c.28.6.41,1,.76,1.61,0,.11.16.55,0,.42a1.42,1.42,0,0,1,.37.45c.11.6-.34-.58-.33-.08.13,0,.52.6.79.94.11-.21-.43-.89-.7-1.23.23-.13.83.4,1.41,1.24.44.68,0,.39.11.49.67,1.36,1,.92,1.44,2.13.08.52-.29.18-.35.33a11.07,11.07,0,0,1-.59-1.33l.19.52a2.53,2.53,0,0,1-.46-.76c.06.44,1.17,2.28,1.59,3.38.15.15.37.44.35.26l-.19-.32c0-.36.49.53.33.09a5.29,5.29,0,0,1,1,1.46l-.11.21s-.11-.46-.25-.6c.21.21.27,1.07.64,1.23l-.11-.5a6,6,0,0,1,1,1.42c0-.34-.09-.12-.1-.61-.07.47-.73-1.4-.7-.73,0-.52-.27-.74-.35-1.36-.05,0,0,.24-.23-.24l-.1-.07v0s0,0,0,0a.84.84,0,0,1,0,.28c-.26-.16-.64-.89-.84-1.11s.13.08.11-.1l-.3-.31c.11-.11-.17-.84.24-.23l-.3-.59a4,4,0,0,0-.53-1.12c-.12-.28-.51-.61-.28-.43L53.84,44l0,0a14.08,14.08,0,0,1-1.5-2.87l-.15-.21-.07-.12-.12-.2c-.16-.29-.33-.61-.54-1l0-.3-.21-.38a12.9,12.9,0,0,0-1.88,1c-.57-.07-1.91.93-2.62,1.24l.05.16a15.66,15.66,0,0,0-1.45.88l.11.11a20.52,20.52,0,0,1-2.12,1c0-.07.23-.17.39-.21-1.1.21-1.89,1.26-2.85,1.51a1.24,1.24,0,0,1-.52.27l.05,0-.09,0-.34.09a1.14,1.14,0,0,0,.29-.06,6.84,6.84,0,0,0-.63.4l-.18-.08,0,0c-.27.08-.16.17,0,.2a2.44,2.44,0,0,0-.28.26c-.31-.12-.61.41-1,.32-.1.2-1.18.74-1.19,1,0,0-.1,0,0-.08a2.72,2.72,0,0,0-.79.43l-.2-.11-.48.55c-.42.09-.6.11-.31-.22-.76.67-.66.45-1.29,1l0-.13c-.26.14-.6.52-.81.51-.7.1-2.94,1.52-4.56,2.13.47.17-.78.22-.71.51-.13,0-.36,0-.15-.16-.74.49-1.23.49-1.65,1-.13,0,.1-.2,0-.2a.64.64,0,0,1-.32.19c-.1,0,.08-.12.19-.22-.79.43-.74.71-.68,1a1.21,1.21,0,0,0-.86.53c-.18,0-.45,0,0-.24-.29.14-1.75.79-1.68,1a1.21,1.21,0,0,0-.46.25l-.77.39-.86.46.27-.11a.33.33,0,0,1-.19.25c.13.22.18.48.42.88h0a3.6,3.6,0,0,0,.44.93,2.56,2.56,0,0,1,.36.82l.1-.13c.35,0,.35,1.08.81,1.66l-.05-.27c.29.3.13,1.19.28,1.56,0,.09-.11-.1-.18-.19.32,1,.24,0,.65.69,0,.18-.33,0-.1.44,0,.27,1,1.18,1.17,1.91,0-.18,0-.35.23-.06.28.47.42,1.47.89,1.79,0,.08,0,.11,0,.12a8.67,8.67,0,0,0,1,1.33c-.28.59,1.46,2.21,1,2.43l.64,1.15h-.06A2.86,2.86,0,0,0,29.1,72c.06.19,0,.09-.07.08a5.31,5.31,0,0,0,1.25,2l-.09.16a24.18,24.18,0,0,0,1.33,2.65s-.06,0-.12-.08c.79,1.1,1.12,3,1.86,3.22l.54.72c-.5-1,.3,0,.16-.43.25.39.4,1.12.11.64v-.09c-.36,0,.57,1.31.38,1.38.34.63.66,1.26,1,1.9.41.81.81,1.62,1.2,2.42l2.67-1.34L39,85.12l.66-.34c.19,0,.31,0-.16.28a1.23,1.23,0,0,0,.72-.57c1-.4-.23.43,0,.29l.37-.22-.09,0a2.16,2.16,0,0,1,.81-.63c.37-.15.24,0,.39,0s.06,0,.22-.11l.83-.42-.42,0c.33-.28.78-.4.3-.39.71,0,3.13-1.52,3.52-1.62a7.46,7.46,0,0,1,1.58-1c-.17,0-.36-.08.19-.35,0,.48,1.08-.36,1.65-.32-.48,0,1.51-.85.77-.78.46-.21.1.12.49,0,1-.71,2.41-1.16,3.7-1.91,0-.06-.26,0,0-.24l.83-.12c.25-.17.09-.42.66-.5-.09,0-.23,0-.06-.12,2.72-1.13,5.19-3,8.06-4-.4.09-.17,0,.1-.19-.19.07-.06-.12-.13-.17l1.2-.4c.1-.29,1.17-.64,1.19-.88l-.33.22c.36-.46-.89-.12-1-.43-.39.52-1.56.38-2.23,1.17-.21,0,.12-.17,0-.18a1.81,1.81,0,0,1-.91.6l0-.06c-1.34.75-2,.94-3.55,1.68l.18.07a3.08,3.08,0,0,1-.6.2c-.27.4.93-.48.7-.07-.58,0-2.31,1.22-2.77,1.07-.51.26.23.07-.28.34l-.17,0-.07.18c-.34.16-.57.14-.62.08a3,3,0,0,0,.3-.19,8.59,8.59,0,0,0-1.35.72l.51-.21c-1.34.81-3.07,1.59-4.32,2.47h.14a20.49,20.49,0,0,1-1.94,1l0,0a3.2,3.2,0,0,1-.78.52c.25-.22-.6.14-.28-.14-1,.71-.49.39-1.09,1l-.23,0a1.85,1.85,0,0,1-.73.61c.41-.33-.44,0,0-.36-1.29.39-1.62,1.15-2.33,1.1-.38.58,1.1-.37.83-.15.3,0-.33.45-.71.61s-.83,0-1.77.48c.1,0,.09-.08.19-.13-.39.12-.64.47-1.13.58-.15.3-.57.28-.52.54l.83-.5a5.52,5.52,0,0,1-1.65,1.12,2.13,2.13,0,0,1,.4-.39c-.27.06-.43.29-.71.35,0-.26,1-.61,1.45-1.05-.3,0-.9.68-.77.3-.21.51-.94.45-1.45,1l0-.16c-.08.07-.12.17-.23.22a.85.85,0,0,0,.09-.27.22.22,0,0,1-.3.12c0-.09,0-.15-.08-.17a.34.34,0,0,1,.06.21c0,.05-.14.27,0,.29L37.1,85a.58.58,0,0,1-.14-.58c.09-.07,0-.45-.36-1.1.12.19.31.77.08.5a4.42,4.42,0,0,1-.27-.87c-.53-.93-.06.22-.36-.14,0-.41-.31-.43-.58-.82l.13-.08c-.48-1.12-.43-.13-.84-1.16l.41.31-.32-.48.21,0a3.67,3.67,0,0,1-.71-1.24c0,.18-.28.06-.54-.41-.09-.37.22.11-.16-.55a.67.67,0,0,1,.4.58c.06,0,.16.1.22.11a4.84,4.84,0,0,0-.58-1.14,1.32,1.32,0,0,1,.11.28l-.7-.88c0-.18.07-.08.17,0-.12-.19-.25-.29-.42-.58.15,0,.26-.06.53.33l-.62-.87c0-.09-.12-.55,0-.45-.21-.56-.89-1.16-1.16-1.89a.83.83,0,0,1-.2-.23,8.11,8.11,0,0,0-1-2l0-.54c-.37-.57.06.72-.54-.23-.44-.68,0-.36-.05-.63a3.54,3.54,0,0,1-1-1.54C28.87,68.9,28.93,69.09,29.06,69.28Zm-4-7.35c.1.13.34.37.32.52C25.12,62.37,25.13,62.2,25.05,61.93Zm1-8.35a.83.83,0,0,1-.47.22A1.71,1.71,0,0,1,26.05,53.58ZM54.9,46h0C54.77,45.65,54.81,45.78,54.9,46Zm.29.7c.05,0,.07,0,.08,0a.93.93,0,0,1-.23-.35C55,46.42,55.06,46.52,55.19,46.71ZM41.76,83.82l-.15,0C41.88,83.66,41.82,83.74,41.76,83.82Z" transform="translate(6.85 1.82)"/><path class="cls-6" d="M24.87,54.44a.13.13,0,0,1-.1,0C24.73,54.46,24.74,54.48,24.87,54.44Z" transform="translate(6.85 1.82)"/><path class="cls-6" d="M31.56,73.84l0,0h0Z" transform="translate(6.85 1.82)"/><path class="cls-6" d="M47.89,42.34a.79.79,0,0,1-.3.07S47.67,42.45,47.89,42.34Z" transform="translate(6.85 1.82)"/><path class="cls-6" d="M57.29,50.1,57,49.69a1.31,1.31,0,0,1,.16.41S57.21,50,57.29,50.1Z" transform="translate(6.85 1.82)"/><path class="cls-6" d="M58.4,54.24c.05,0,.08.13.13.18l0-.05C58.43,54.11,58.29,54,58.4,54.24Z" transform="translate(6.85 1.82)"/><path class="cls-6" d="M57,50.73c-.09.1.09.34.27.63l0,0C57.49,51.31,57.26,51,57,50.73Z" transform="translate(6.85 1.82)"/><path class="cls-6" d="M57.35,51.43l.15.27C57.58,51.7,57.45,51.58,57.35,51.43Z" transform="translate(6.85 1.82)"/><path class="cls-6" d="M55.71,47.51c0,.15.2,0,.19.11C56.13,47.7,55.23,46.77,55.71,47.51Z" transform="translate(6.85 1.82)"/><polygon class="cls-6" points="63.65 52.99 63.73 52.81 63.53 52.7 63.65 52.99"/><path class="cls-6" d="M55.65,48.77l.22.49s.06,0,.11.11C55.83,49.07,55.69,48.73,55.65,48.77Z" transform="translate(6.85 1.82)"/><path class="cls-6" d="M56,49.37a2.2,2.2,0,0,0,.23.37A4.23,4.23,0,0,0,56,49.37Z" transform="translate(6.85 1.82)"/><polygon class="cls-6" points="63.26 52.37 63.22 52.21 63.05 51.87 63.26 52.37"/><path class="cls-6" d="M53,43.64l-.32-.5c-.07,0,0,.13.09.31S53,43.74,53,43.64Z" transform="translate(6.85 1.82)"/><path class="cls-6" d="M53.42,45.41a.56.56,0,0,1,0-.28l-.18.07Z" transform="translate(6.85 1.82)"/><path class="cls-6" d="M52.57,43.92c-.07,0-.54-.68-.18,0C52.47,43.92,52.79,44.42,52.57,43.92Z" transform="translate(6.85 1.82)"/><polygon class="cls-6" points="53.68 44.11 53.81 44.04 53.64 43.76 53.68 44.11"/><path class="cls-6" d="M40.29,46.63c.66-.26.06-.25.66-.46.11-.15-.49.17-.38,0C40.24,46.47,40,46.53,40.29,46.63Z" transform="translate(6.85 1.82)"/><path class="cls-6" d="M40.57,46.2a1.77,1.77,0,0,0,.17-.14A1.1,1.1,0,0,0,40.57,46.2Z" transform="translate(6.85 1.82)"/><polygon class="cls-6" points="72.85 72.98 73.27 72.83 72.97 72.87 72.85 72.98"/><path class="cls-6" d="M66.64,70.54l.19.13.15-.29A.71.71,0,0,1,66.64,70.54Z" transform="translate(6.85 1.82)"/><path class="cls-6" d="M24.83,60.64h-.06a.75.75,0,0,0,.12.37Z" transform="translate(6.85 1.82)"/><polygon class="cls-6" points="34.39 67.9 34.35 67.8 34.27 68.06 34.39 67.9"/><path class="cls-6" d="M30.14,70.47c-.09-.19-.24-.38-.33-.57C30.05,70.28,30,70.63,30.14,70.47Z" transform="translate(6.85 1.82)"/></g><g class="cls-5"><path class="cls-6" d="M97,77.24c.09.18.17.06.21.07C97,77,97,77.27,97,77.24Z" transform="translate(6.85 1.82)"/><polygon class="cls-6" points="102.06 76.29 102.14 76.32 101.8 75.95 102.06 76.29"/><path class="cls-6" d="M93.77,71.75c-.06.36.56,1,.74,1.49v.11l.28.13A16.64,16.64,0,0,1,93.77,71.75Z" transform="translate(6.85 1.82)"/><path class="cls-6" d="M93.44,70.07c0,.13-.24-.28.15.35v-.07Z" transform="translate(6.85 1.82)"/><path class="cls-6" d="M93.58,70.35c.16.28,0-.22,0,0Z" transform="translate(6.85 1.82)"/><path class="cls-6" d="M92.83,69.05l.27.34c0-.1-.16-.44-.06-.34C92.79,68.69,92.79,68.79,92.83,69.05Z" transform="translate(6.85 1.82)"/><path class="cls-6" d="M92.5,68.77l.13.18S92.61,68.85,92.5,68.77Z" transform="translate(6.85 1.82)"/><path class="cls-6" d="M92.91,69.33,92.63,69c0,.07-.07.11.12.18C92.68,69.13,92.78,69.18,92.91,69.33Z" transform="translate(6.85 1.82)"/><path class="cls-6" d="M93,69.58c.06.24.18.53-.09.18C93.33,70.47,93.42,70.29,93,69.58Z" transform="translate(6.85 1.82)"/><path class="cls-6" d="M93.49,71.72l.09.32.2.21C93.68,72.14,93.55,71.67,93.49,71.72Z" transform="translate(6.85 1.82)"/><path class="cls-6" d="M91.69,66.64c-.06,0,0,.19-.09.25l.2.25C91.75,67,91.64,66.7,91.69,66.64Z" transform="translate(6.85 1.82)"/><path class="cls-6" d="M91.6,66.89l-.29-.38C91.5,66.89,91.57,66.94,91.6,66.89Z" transform="translate(6.85 1.82)"/><polygon class="cls-6" points="99.09 70.64 99.61 71.25 99.02 70.51 99.09 70.64"/><polygon class="cls-6" points="97.7 66.87 97.93 67.05 97.55 66.71 97.7 66.87"/><path class="cls-6" d="M90.27,64c.18.13,0-.31.16-.16a3.79,3.79,0,0,0-.55-.67A2.47,2.47,0,0,1,90.27,64Z" transform="translate(6.85 1.82)"/><path class="cls-6" d="M89.6,62.85a4,4,0,0,0,.28.32A2.07,2.07,0,0,0,89.6,62.85Z" transform="translate(6.85 1.82)"/><path class="cls-6" d="M91,65.79a.56.56,0,0,0,0-.4l0,.23Z" transform="translate(6.85 1.82)"/><path class="cls-6" d="M90.87,65.63h0c-.09-.18-.16-.3-.18-.36S90.76,65.42,90.87,65.63Z" transform="translate(6.85 1.82)"/><path class="cls-6" d="M91,65.83l0,0S91,65.82,91,65.83Z" transform="translate(6.85 1.82)"/><path class="cls-6" d="M91.77,67.67c-.2-.21-.54-.68-.38-.13C91.56,67.67,91.47,67.35,91.77,67.67Z" transform="translate(6.85 1.82)"/><path class="cls-6" d="M90.93,66.11l.21.46s0-.13.13,0Z" transform="translate(6.85 1.82)"/><polygon class="cls-6" points="97.63 67.74 97.78 67.93 97.71 67.76 97.63 67.74"/><path class="cls-6" d="M89.89,63.67a3.24,3.24,0,0,1-.41-.61c.11.27.24.54.37.79C89.91,63.86,90,63.94,89.89,63.67Z" transform="translate(6.85 1.82)"/><path class="cls-6" d="M90.35,64.63l0,0S90.33,64.64,90.35,64.63Z" transform="translate(6.85 1.82)"/><polygon class="cls-6" points="95.1 62.56 95.1 62.6 95.13 62.6 95.1 62.56"/><path class="cls-6" d="M89.85,63.9a.88.88,0,0,0,.27.39c-.09-.13-.18-.28-.27-.44C89.83,63.84,89.81,63.84,89.85,63.9Z" transform="translate(6.85 1.82)"/><path class="cls-6" d="M89.2,62.23a3.34,3.34,0,0,0,.1.36C89.29,62.48,89.25,62.25,89.2,62.23Z" transform="translate(6.85 1.82)"/><path class="cls-6" d="M90.32,64.51l0,0C90.34,64.46,90.33,64.47,90.32,64.51Z" transform="translate(6.85 1.82)"/><path class="cls-6" d="M90.32,64.51c-.07-.09-.14-.15-.2-.22l.2.3Z" transform="translate(6.85 1.82)"/><path class="cls-6" d="M87.11,60.44c.12,0,.49.42.6.91.31.39.53-.09.54-.57-.06,0-.1,0-.4-.36,0,.18.37,1,.08.73-.37-.55-.22-.5-.31-.81,0,.31-.59-.63-.73-.4l.34.47S87.06,60.28,87.11,60.44Z" transform="translate(6.85 1.82)"/><path class="cls-6" d="M88.68,61.62l.11.18a3.32,3.32,0,0,1-.18-.71c-.21-.27-.29-.31-.34-.31l.46.9Z" transform="translate(6.85 1.82)"/><path class="cls-6" d="M89.22,62.61c-.2-.08-.48-.49-.47-.15.29.52.3.32.52.6-.48-.83.2.21-.06-.44.11.16.19.3.27.44l-.18-.47v0h0c0,.05,0,.06,0,0l0,0h-.06c-.11-.26,0-.06.06,0h0l-.52-.82A7.89,7.89,0,0,0,89.22,62.61Z" transform="translate(6.85 1.82)"/><path class="cls-6" d="M90.89,67.22s0,0,0,0S90.83,67.11,90.89,67.22Z" transform="translate(6.85 1.82)"/><path class="cls-6" d="M90.77,66.83a.63.63,0,0,1,.22.29c.06.19-.06,0-.09.06s.31.38.17,0l0,0a2.15,2.15,0,0,1-.18-.84A1.49,1.49,0,0,0,90.77,66.83Z" transform="translate(6.85 1.82)"/><path class="cls-6" d="M90,64.71,89.51,64l.09.42.05-.06C89.84,64.81,89.88,64.68,90,64.71Z" transform="translate(6.85 1.82)"/><polygon class="cls-6" points="95.12 62.44 95.3 62.47 94.9 62.15 95.12 62.44"/><polygon class="cls-6" points="94.61 61.53 94.74 61.5 94.55 61.29 94.61 61.53"/><path class="cls-6" d="M56.79,73.53l.14.19A1.33,1.33,0,0,0,56.79,73.53Z" transform="translate(6.85 1.82)"/><path class="cls-6" d="M56,72h-.08C56,72.05,56,72.07,56,72Z" transform="translate(6.85 1.82)"/><path class="cls-6" d="M69.69,52.78c-.36.06-.79.07-.68.18l.15.07A1.9,1.9,0,0,1,69.69,52.78Z" transform="translate(6.85 1.82)"/><path class="cls-6" d="M54.52,61.75h.1l.15-.22Z" transform="translate(6.85 1.82)"/><path class="cls-6" d="M54.57,62.37l-.45.14A3.44,3.44,0,0,0,54.57,62.37Z" transform="translate(6.85 1.82)"/><path class="cls-6" d="M61.3,81.73l.26.18C61.36,81.52,61.38,81.73,61.3,81.73Z" transform="translate(6.85 1.82)"/><path class="cls-6" d="M82.69,50.26a5.18,5.18,0,0,0-.27-.7C82.52,49.91,82.55,50.23,82.69,50.26Z" transform="translate(6.85 1.82)"/><path class="cls-6" d="M55.18,73.62c.09.11.15.15.17.14S55.2,73.57,55.18,73.62Z" transform="translate(6.85 1.82)"/><path class="cls-6" d="M82,48.8l0,.16a5.28,5.28,0,0,1,.36.6A1.6,1.6,0,0,0,82,48.8Z" transform="translate(6.85 1.82)"/><path class="cls-6" d="M84.77,83l.07,0S84.81,83,84.77,83Z" transform="translate(6.85 1.82)"/><path class="cls-6" d="M94.16,79.62l-.36.2A1.55,1.55,0,0,0,94.16,79.62Z" transform="translate(6.85 1.82)"/><path class="cls-6" d="M85.84,56c.11.19,0,0,0,0Z" transform="translate(6.85 1.82)"/><path class="cls-6" d="M85.87,57.16s-.07,0-.11,0A.21.21,0,0,1,85.87,57.16Z" transform="translate(6.85 1.82)"/><path class="cls-6" d="M79.94,48.26h0C80,48.27,80,48.27,79.94,48.26Z" transform="translate(6.85 1.82)"/><path class="cls-6" d="M85.94,56.28a2.13,2.13,0,0,0-.09-.27A2.66,2.66,0,0,0,85.94,56.28Z" transform="translate(6.85 1.82)"/><path class="cls-6" d="M86,56.21a1.59,1.59,0,0,0,.08.18S86.09,56.37,86,56.21Z" transform="translate(6.85 1.82)"/><path class="cls-6" d="M85.69,55.69c.06.11.11.21.16.32s0-.06,0,0Z" transform="translate(6.85 1.82)"/><path class="cls-6" d="M68.87,91.87h0C69.09,91.71,69,91.76,68.87,91.87Z" transform="translate(6.85 1.82)"/><polygon class="cls-6" points="72.1 58.57 72.12 58.55 72.09 58.56 72.1 58.57"/><path class="cls-6" d="M64.6,57.21a1.13,1.13,0,0,1,.64-.47l-.42-.22Z" transform="translate(6.85 1.82)"/><path class="cls-6" d="M58.75,77.13l-.15-.55c.49.5.66,1,.57.42-.42.13-1.06-1.9-1.48-1.77l-.09-.37c0,.1.07.1.12.2-.15-.74-.53-.33-.91-1.18-.12-.3-.17-.52,0-.35l-.43-.59c-.09-.19,0-.18.09,0l-.54-1h0c-.13-.11-.39-.37-.51-.5-.08-.28.11.1.12,0L55.15,71c0-.27.32.13.5.51.11-.71-.33-.4-.68-1.6l.31.48c0-.44-.24-.79-.41-1.43,0,.17.27,1.32-.13.79a1.86,1.86,0,0,0-.41-.68c.14-.07-.06-.36-.27-.74l.19-.07c-.27-.39-.34-.3-.55-.5a.85.85,0,0,1-.08-.82c-.37-.75.05.63-.45-.23A7.23,7.23,0,0,0,52.11,65c-.17-.46.15,0,.12-.16l-.35-.31c0-.08,0-.06,0-.08-.13-.12-.18.09-.41-.22-.12,0-.15-.19-.15-.32.36-.1.58-.09.74-.34.18,0,0,.15.07.2a10.9,10.9,0,0,0,1.28-1.07l.66-.2c-.51.1,0-.36.4-.76l-.46.06.73-.52c.11,0,.07.08,0,.23l.12-.12c.32-.08.23.1.08.3l-.35,0c-.13.22-.25.43-.15.52a1,1,0,0,1,.23-.19c0,.06-.06.1,0,.11s.1-.08.2-.2l.29.11V62l1.09-.42a12.32,12.32,0,0,1,2.25-1.94c-.22.3.06.27.14.46-.42,0-.87.56-1.49.84.32-.15.3,0,.23,0l1-.74c0,.16.28,0,.6-.1-.37-.17.7-.62,1.1-.94.08.08,0,.23-.53.5.71-.11.59-.74,1.27-.87-.13.07-.21.09-.23.17.26-.25,1-.58.91-.4l-.13.07C62.27,58.23,64,57.26,64,57a1.43,1.43,0,0,1,0,.42l1.13-1.62c0,.27.75.48.09,1a2.93,2.93,0,0,0,.9-.49c-.16,0-.51-.11-.33-.23A6.07,6.07,0,0,0,67,55.79c-.23.07-.17-.38.17-.55,0,.08.2.31.09.4l.67-.75c-.18.16.11.28.34.27-.12,0,.72-.37.93-.52l-.39.11c1-.45.69-.94,1.64-1.41-.08.12-.07.54.43.33a4.82,4.82,0,0,1,1.31-1.85h.21l.58-.44a16.52,16.52,0,0,1-1.61,2.07c.39-.11.16.06.68-.23.23,0-.22.28-.37.37L73,53c-.16-.16.84-.68.71-.82l-1.23.91c-.16-.16.49-1,1.37-1.38.27,0,0,.43.07.48a3.17,3.17,0,0,1,.86-.56l-.31.3c.52-.19.66-.67,1.33-.8.21-.09.73-.07.71-.2-.44,0-.86-.68-.73-1a15,15,0,0,1,1.45-.37c.42,0-.28.67.08.67,0-.06.13-.22.2-.28.23-.07,0,.2.44-.06,0-.24.94-.48.13-.28a9.75,9.75,0,0,1,1-.5c-.21,0,.22-.66.71-1,0,.07.11.08.16.09l.63-.3c.27.6.41,1,.75,1.62,0,.1.16.54,0,.41a1.71,1.71,0,0,1,.37.45c.11.6-.34-.58-.33-.08.13,0,.52.6.79.94.11-.21-.43-.89-.7-1.23.24-.12.83.4,1.42,1.24.43.68,0,.39.11.5.67,1.36,1,.92,1.43,2.12.09.52-.29.18-.34.33a8.58,8.58,0,0,1-.59-1.33l.18.52a2.31,2.31,0,0,1-.46-.76c.06.44,1.17,2.28,1.6,3.38.15.15.37.44.35.26l-.2-.31c0-.37.5.52.33.08a5.3,5.3,0,0,1,1,1.46l-.11.21a1.12,1.12,0,0,0-.26-.6c.21.22.27,1.07.64,1.23l-.11-.49a6,6,0,0,1,1,1.41c0-.34-.09-.11-.09-.61-.07.47-.74-1.4-.71-.72,0-.52-.27-.75-.35-1.37,0,.05,0,.24-.22-.23a.38.38,0,0,1-.11-.08v0s0,0,0,0a.87.87,0,0,1,0,.28c-.25-.16-.63-.89-.83-1.1s.12.08.1-.1L85,55.08c.1-.1-.18-.83.24-.23l-.3-.58a3.65,3.65,0,0,0-.54-1.12c-.12-.29-.5-.62-.28-.43l-.56-.87,0,0A14.89,14.89,0,0,1,82.06,49l-.15-.22-.07-.12-.12-.2c-.16-.28-.33-.61-.54-1l0-.3L81,46.7a12.73,12.73,0,0,0-1.88,1c-.57-.08-1.91.93-2.61,1.24l.05.15a14.44,14.44,0,0,0-1.45.88l.1.11a22.56,22.56,0,0,1-2.12,1c0-.08.23-.17.39-.22-1.09.22-1.88,1.27-2.85,1.51a1.34,1.34,0,0,1-.52.28l0,0-.09,0-.33.09.28-.07c-.16.09-.4.24-.63.4L69.16,53l0,0c-.27.07-.16.16,0,.2a1.76,1.76,0,0,0-.28.25c-.31-.11-.6.41-1,.32-.11.2-1.19.74-1.19,1,0,0-.11,0,0-.08a2.47,2.47,0,0,0-.78.44l-.21-.11-.47.54c-.42.09-.6.11-.31-.21-.77.66-.67.45-1.3,1l0-.13c-.27.15-.61.52-.82.51-.7.1-2.94,1.52-4.56,2.13.47.17-.78.23-.71.51-.13,0-.36,0-.15-.16-.73.49-1.23.5-1.65,1-.13,0,.11-.2,0-.2s-.21.2-.31.19.08-.12.18-.22c-.78.43-.74.71-.68,1a1.19,1.19,0,0,0-.86.52c-.18,0-.45.05,0-.23-.28.13-1.75.78-1.68,1a1.29,1.29,0,0,0-.46.25l-.77.39-.85.46.26-.1a.34.34,0,0,1-.19.24c.13.22.19.49.42.89l0,0a3.62,3.62,0,0,0,.43.93,2.55,2.55,0,0,1,.36.83l.11-.14c.34,0,.35,1.08.8,1.66l0-.27c.29.3.13,1.19.28,1.57,0,.09-.1-.1-.18-.2.32,1,.24,0,.65.69,0,.18-.33,0-.1.44,0,.27,1,1.19,1.18,1.92,0-.18,0-.36.22-.07.29.48.43,1.48.89,1.8,0,.07,0,.1,0,.12a9.83,9.83,0,0,0,1,1.32c-.28.6,1.47,2.22,1,2.44L58,78.66H58a3,3,0,0,0,.84,1.17c.06.18,0,.08-.07.08a5.35,5.35,0,0,0,1.25,2l-.09.17a24,24,0,0,0,1.34,2.64s-.06,0-.13-.08c.8,1.11,1.13,3.06,1.86,3.22l.55.72c-.5-1,.3,0,.16-.43.24.39.39,1.12.11.64l0-.09c-.36,0,.58,1.31.38,1.38.34.63.66,1.27,1,1.9.4.81.8,1.63,1.2,2.43L69,93.06,68.65,93l.66-.34c.2,0,.31,0-.16.28.31,0,.73-.51.72-.56,1-.4-.23.43.06.28l.37-.21-.1,0A2.16,2.16,0,0,1,71,91.8c.38-.15.25,0,.39,0s.06,0,.22-.1l.83-.42H72c.32-.27.77-.4.3-.38.71,0,3.12-1.53,3.51-1.62a7.31,7.31,0,0,1,1.59-1c-.18,0-.37-.08.18-.34,0,.48,1.08-.36,1.66-.32-.49,0,1.51-.86.76-.79.47-.21.1.12.49,0,1-.71,2.41-1.15,3.71-1.9,0-.06-.27,0,0-.25l.83-.12c.25-.16.09-.41.66-.49-.09,0-.22,0-.06-.13,2.72-1.13,5.2-3,8.07-3.95-.41.1-.18,0,.09-.19-.19.07-.06-.12-.13-.17l1.2-.4c.1-.29,1.18-.64,1.2-.87l-.33.21c.35-.45-.9-.12-1-.42-.39.51-1.55.37-2.22,1.16-.22,0,.11-.17,0-.18a1.9,1.9,0,0,1-.92.6l0-.06c-1.34.75-2,1-3.55,1.68l.18.07a2.37,2.37,0,0,1-.6.2c-.27.4.93-.48.71-.07-.58,0-2.32,1.22-2.78,1.07-.5.26.23.07-.27.34h-.18l-.07.17c-.34.16-.56.14-.61.08s.21-.14.3-.19a10.39,10.39,0,0,0-1.36.72l.51-.21c-1.33.81-3.07,1.59-4.31,2.47h.13a21.72,21.72,0,0,1-1.94,1l0,0a3.2,3.2,0,0,1-.78.52c.24-.22-.61.14-.28-.14-1,.71-.5.39-1.1,1h-.22a2,2,0,0,1-.74.6c.41-.33-.44,0,0-.36-1.29.4-1.61,1.15-2.32,1.11-.39.57,1.09-.38.82-.16.31,0-.33.45-.71.62s-.83,0-1.76.47c.09-.05.08-.08.18-.12-.39.11-.64.46-1.13.57-.15.3-.57.29-.52.55l.84-.51a5.34,5.34,0,0,1-1.65,1.12,2,2,0,0,1,.39-.39c-.27.06-.43.29-.71.35,0-.26,1-.6,1.46-1-.31,0-.91.69-.77.31-.22.5-.95.45-1.46,1l0-.16c-.08.07-.12.17-.22.23a2.13,2.13,0,0,0,.09-.27.24.24,0,0,1-.31.11c0-.09,0-.15-.07-.17a.42.42,0,0,1,.06.21c0,.06-.15.27,0,.29l-.09.08a.57.57,0,0,1-.14-.59c.08-.07,0-.45-.36-1.09.12.18.3.77.08.5a4.16,4.16,0,0,1-.28-.88c-.53-.93-.06.22-.35-.14,0-.41-.31-.43-.59-.82l.14-.07c-.49-1.13-.44-.14-.85-1.17l.41.31-.32-.48.21,0A4,4,0,0,1,64,87.18c0,.17-.28.06-.54-.42-.09-.37.23.12-.15-.55a.69.69,0,0,1,.39.58c.06,0,.17.11.23.11a5.38,5.38,0,0,0-.58-1.13,1.46,1.46,0,0,1,.11.28l-.71-.88c0-.19.07-.08.18,0-.12-.2-.26-.3-.42-.59.15,0,.25-.06.52.33l-.62-.87c0-.09-.12-.55,0-.45-.21-.55-.89-1.16-1.17-1.89a1,1,0,0,1-.19-.22,8.34,8.34,0,0,0-1-2L60,79c-.36-.58.06.72-.54-.24-.44-.68,0-.35-.05-.63a3.47,3.47,0,0,1-1-1.54C58.57,76.76,58.63,76.94,58.75,77.13Zm-4-7.35c.1.13.34.37.32.52C54.82,70.22,54.82,70.05,54.74,69.78Zm1-8.34a.9.9,0,0,1-.47.21A1.71,1.71,0,0,1,55.74,61.44Zm28.85-7.58h0C84.46,53.5,84.5,53.63,84.59,53.86Zm.29.7c.06.06.07,0,.08,0a.86.86,0,0,1-.22-.35C84.73,54.28,84.75,54.38,84.88,54.56ZM71.45,91.68l-.15,0C71.57,91.51,71.51,91.59,71.45,91.68Z" transform="translate(6.85 1.82)"/><path class="cls-6" d="M54.57,62.3a.12.12,0,0,1-.1,0C54.42,62.31,54.43,62.34,54.57,62.3Z" transform="translate(6.85 1.82)"/><path class="cls-6" d="M61.26,81.69v0h0Z" transform="translate(6.85 1.82)"/><path class="cls-6" d="M77.58,50.2a1.06,1.06,0,0,1-.3.07S77.37,50.3,77.58,50.2Z" transform="translate(6.85 1.82)"/><path class="cls-6" d="M87,58l-.26-.4a1.89,1.89,0,0,1,.16.4S86.91,57.82,87,58Z" transform="translate(6.85 1.82)"/><path class="cls-6" d="M88.1,62.09c.05,0,.07.13.12.18l0-.05C88.13,62,88,61.8,88.1,62.09Z" transform="translate(6.85 1.82)"/><path class="cls-6" d="M86.74,58.59c-.1.09.08.34.26.62l0-.05C87.18,59.16,87,58.87,86.74,58.59Z" transform="translate(6.85 1.82)"/><path class="cls-6" d="M87,59.28a1.82,1.82,0,0,1,.15.27C87.27,59.55,87.14,59.43,87,59.28Z" transform="translate(6.85 1.82)"/><path class="cls-6" d="M85.41,55.36c0,.16.19,0,.18.12C85.82,55.56,84.92,54.63,85.41,55.36Z" transform="translate(6.85 1.82)"/><polygon class="cls-6" points="93.34 60.85 93.43 60.66 93.22 60.56 93.34 60.85"/><path class="cls-6" d="M85.35,56.62l.21.5s.07,0,.12.1C85.52,56.92,85.38,56.59,85.35,56.62Z" transform="translate(6.85 1.82)"/><path class="cls-6" d="M85.68,57.22a1.5,1.5,0,0,0,.22.37A3.23,3.23,0,0,0,85.68,57.22Z" transform="translate(6.85 1.82)"/><polygon class="cls-6" points="92.95 60.22 92.91 60.06 92.74 59.72 92.95 60.22"/><path class="cls-6" d="M82.66,51.49l-.31-.5c-.08,0,0,.13.09.31S82.66,51.59,82.66,51.49Z" transform="translate(6.85 1.82)"/><path class="cls-6" d="M83.11,53.26a.56.56,0,0,1,0-.28l-.18.08Z" transform="translate(6.85 1.82)"/><path class="cls-6" d="M82.27,51.77c-.08,0-.54-.68-.18,0C82.16,51.77,82.48,52.27,82.27,51.77Z" transform="translate(6.85 1.82)"/><polygon class="cls-6" points="83.37 51.97 83.5 51.89 83.33 51.62 83.37 51.97"/><path class="cls-6" d="M70,54.49c.65-.26.05-.26.65-.47.11-.14-.49.17-.37,0C69.93,54.32,69.72,54.39,70,54.49Z" transform="translate(6.85 1.82)"/><path class="cls-6" d="M70.27,54.06l.16-.15A1.29,1.29,0,0,0,70.27,54.06Z" transform="translate(6.85 1.82)"/><polygon class="cls-6" points="102.54 80.83 102.97 80.68 102.66 80.72 102.54 80.83"/><path class="cls-6" d="M96.33,78.39l.19.14.15-.29A.79.79,0,0,1,96.33,78.39Z" transform="translate(6.85 1.82)"/><path class="cls-6" d="M54.52,68.49h-.06a.67.67,0,0,0,.13.37Z" transform="translate(6.85 1.82)"/><polygon class="cls-6" points="64.08 75.75 64.04 75.66 63.97 75.92 64.08 75.75"/><path class="cls-6" d="M59.83,78.32c-.09-.18-.24-.38-.33-.57C59.74,78.14,59.65,78.48,59.83,78.32Z" transform="translate(6.85 1.82)"/></g></g></g></g></svg>