<svg xmlns="http://www.w3.org/2000/svg" xmlns:xlink="http://www.w3.org/1999/xlink" viewBox="0 0 116.35 102.33"><defs><style>.cls-1{fill:none;}.cls-2{clip-path:url(#clip-path);}.cls-3{fill:#5a8589;}.cls-4,.cls-6{fill:#fff;}.cls-4{opacity:0.31;}.cls-5{opacity:0.65;}</style><clipPath id="clip-path"><path class="cls-1" d="M8,21.32S-4.24-3.09,3.9,2.33,18.82,13.18,18.82,13.18,67.63-.38,97.47,14.54c0,0,8.13-19,10.84-13.57s-4.06,20.35-4.06,20.35,1.35,52.88-4.07,65.08c0,0,10.85,10.85,5.42,14.92S94.75,95.9,94.75,95.9s-56.95,0-80-4.07c0,0-8.14,6.78-13.56,6.78s9.49-14.92,9.49-14.92S2.54,25.38,8,21.32Z"/></clipPath></defs><g id="Calque_2" data-name="Calque 2"><g id="Calque_3" data-name="Calque 3"><g class="cls-2"><path class="cls-3" d="M8,21.32S-4.24-3.09,3.9,2.33,18.82,13.18,18.82,13.18,67.63-.38,97.47,14.54c0,0,8.13-19,10.84-13.57s-4.06,20.35-4.06,20.35,1.35,52.88-4.07,65.08c0,0,10.85,10.85,5.42,14.92S94.75,95.9,94.75,95.9s-56.95,0-80-4.07c0,0-8.14,6.78-13.56,6.78s9.49-14.92,9.49-14.92S2.54,25.38,8,21.32Z"/><path class="cls-4" d="M15.91,59.25c-.13,4.82-.55,10.2.26,15a14.71,14.71,0,0,0,2.12,6.17c.28.49.46.84.57,1.08s.35.33.59.58,2.33,1.88,2.32,2c.86.52,1.73,1,2.63,1.49a12.35,12.35,0,0,0,1.52.61,72.12,72.12,0,0,0,10,2.43l.51.1,1,.09c1.83.19,3.66.34,5.49.47,7.32.5,14.66.58,22,.93a167.9,167.9,0,0,0,37-1.88c-1-1.15-1.72-1.89-1.72-1.89,5.42-12.2,4.07-65.08,4.07-65.08S111,6.4,108.31,1,97.47,14.54,97.47,14.54C67.63-.38,18.82,13.18,18.82,13.18s-1.12-.89-3-2.3C18,26.8,16.33,43.12,15.91,59.25Z"/><g class="cls-5"><polygon class="cls-6" points="65.17 34.67 44.54 17.72 21.27 31.24 1.4 12.79 2.56 11.68 21.51 29.27 44.71 15.79 65.26 32.67 87.05 17.46 111.28 30.92 110.44 32.26 87.15 19.33 65.17 34.67"/></g><g class="cls-5"><polygon class="cls-6" points="65.98 54.15 45.01 36.41 20.57 48.79 0.68 29.25 1.77 28.14 20.86 46.9 45.23 34.55 66.09 52.21 88.71 37.33 89.09 37.48 115.23 47.73 114.66 49.19 88.9 39.08 65.98 54.15"/></g><g class="cls-5"><polygon class="cls-6" points="65.98 71.84 45.01 54.1 20.57 66.48 0.68 46.94 1.77 45.83 20.86 64.59 45.23 52.24 66.09 69.9 88.71 55.02 89.09 55.17 115.23 65.42 114.66 66.88 88.9 56.77 65.98 71.84"/></g><g class="cls-5"><polygon class="cls-6" points="68.52 90.99 47.09 74.04 22.9 86.52 3.81 66.5 4.94 65.43 23.22 84.59 47.27 72.2 68.51 88.99 89.15 72.08 116.35 77.25 116.06 78.78 89.58 73.75 68.52 90.99"/></g></g></g></g></svg>