<svg xmlns="http://www.w3.org/2000/svg" viewBox="0 0 329.01 155.76"><defs><style>.cls-1{fill:#f6af68;}.cls-2{fill:#bc5f20;}.cls-3{fill:#935328;}.cls-4{fill:#d96b20;}</style></defs><g id="Calque_2" data-name="Calque 2"><g id="Calque_3" data-name="Calque 3"><rect class="cls-1" x="15.94" y="123.39" width="138" height="0.05"/><polygon class="cls-1" points="296.07 125 13.47 125 13.47 123.44 6.57 130.22 302.98 130.22 296.07 123.44 296.07 125"/><rect class="cls-1" x="156.41" y="123.41" width="137.2" height="0.03"/><rect class="cls-1" x="156.41" y="6.77" width="137.2" height="0.03"/><polygon class="cls-1" points="296.07 5.21 309.05 17.95 309.05 0 0.5 0 0.5 17.95 13.47 5.21 296.07 5.21"/><rect class="cls-2" x="15.94" y="68.17" width="138" height="55.21"/><rect class="cls-2" x="15.94" y="6.77" width="138" height="58.33"/><rect class="cls-2" x="156.41" y="6.8" width="137.2" height="58.31"/><rect class="cls-2" x="156.41" y="68.17" width="137.2" height="55.24"/><rect class="cls-3" x="15.94" y="65.11" width="138" height="3.06"/><rect class="cls-3" x="156.41" y="65.11" width="137.2" height="3.06"/><path class="cls-4" d="M13.47,123.44V125h282.6V5.22H13.47Zm2.47,0V6.77h138V65.11h2.47V6.77h137.2v0h.8V123.41h-.8v0H156.41V68.17h-2.47v55.27h-138Z"/><rect class="cls-4" x="293.61" y="6.8" width="0.8" height="58.31"/><rect class="cls-4" x="293.61" y="68.17" width="0.8" height="55.24"/><rect class="cls-4" x="153.94" y="65.11" width="2.47" height="3.06"/><rect class="cls-4" x="293.61" y="65.11" width="0.8" height="3.06"/><polygon class="cls-4" points="309.05 17.95 309.05 130.22 302.98 130.22 329.01 155.76 329.01 37.54 309.05 17.95"/><polygon class="cls-4" points="309.05 17.95 296.07 5.21 296.07 123.44 302.98 130.22 309.05 130.22 309.05 17.95"/><polygon class="cls-4" points="0.5 17.95 0 18.43 0 136.66 6.57 130.22 0.5 130.22 0.5 17.95"/><polygon class="cls-4" points="13.47 5.21 0.5 17.95 0.5 130.22 6.57 130.22 13.47 123.44 13.47 5.21"/></g></g></svg>