<svg xmlns="http://www.w3.org/2000/svg" viewBox="0 0 308.55 130.22"><defs><style>.cls-1{fill:#f6af68;}.cls-2{fill:#d96b20;}</style></defs><g id="Calque_2" data-name="Calque 2"><g id="Calque_3" data-name="Calque 3"><rect class="cls-1" width="308.55" height="130.22"/><path class="cls-2" d="M13,5.22V125H295.58V5.22Zm2.47,1.55h138V123.44h-138ZM293.11,123.44H155.91V6.77h137.2Z"/><path class="cls-2" d="M138,77c-.68,0-1.24-.35-1.24-.78V54c0-.43.56-.78,1.24-.78s1.23.35,1.23.78V76.2C139.27,76.63,138.72,77,138,77Z"/><path class="cls-2" d="M170.51,77c-.68,0-1.23-.35-1.23-.78V54c0-.43.55-.78,1.23-.78s1.24.35,1.24.78V76.2C171.75,76.63,171.19,77,170.51,77Z"/></g></g></svg>