<svg xmlns="http://www.w3.org/2000/svg" viewBox="0 0 163.33 30.81"><defs><style>.cls-1{fill:#5a8589;}.cls-2{fill:#313f4d;}</style></defs><g id="Calque_2" data-name="Calque 2"><g id="Calque_3" data-name="Calque 3"><path class="cls-1" d="M4,0A582.18,582.18,0,0,1,163.33,30.81C107.78,28.82,50.55,26.45,0,3.32Z"/><path class="cls-2" d="M134.88,26.06c-5.54-.62-11.07-1.31-16.6-2s-11-1.5-16.56-2.29c-11-1.6-22-3.42-33-5.34L60.49,14.9l-8.2-1.62c-2.74-.53-5.46-1.13-8.18-1.72S38.65,10.41,36,9.72C25.11,7.16,14.27,4.3,4,0L7.91,1.41l2,.71c.65.24,1.31.47,2,.65,2.67.78,5.33,1.6,8,2.34L28,7.2c2.71.65,5.43,1.25,8.14,1.87,10.87,2.4,21.79,4.6,32.77,6.51s21.95,3.79,32.95,5.53q8.27,1.29,16.52,2.53C123.85,24.47,129.36,25.3,134.88,26.06Z"/></g></g></svg>