<svg xmlns="http://www.w3.org/2000/svg" viewBox="0 0 35.24 26.44"><defs><style>.cls-1{fill:#5a8589;}.cls-2{fill:#fff;opacity:0.49;}</style></defs><g id="Calque_2" data-name="Calque 2"><g id="Calque_3" data-name="Calque 3"><path class="cls-1" d="M27.12,12.83s3.75-10-1.24-12.47S3.41,9.09.3,16s19.34,13.11,26.82,9.36S40.85,16.58,27.12,12.83Z"/><path class="cls-2" d="M27.12,12.83a9.19,9.19,0,0,0-4.91-1.54l.12-.13-1.25-.3A36.76,36.76,0,0,0,14,9.71a30.89,30.89,0,0,0,4.29,1.83,26.11,26.11,0,0,0-4.39,1.1A38.87,38.87,0,0,0,2.17,19.07c4.1-1.76,8.11-3.56,12.24-5a36.09,36.09,0,0,1,4-1.14c-.49.52-1,1-1.46,1.58a32.76,32.76,0,0,0-3,3.9,32.76,32.76,0,0,0,3.9-3c1.1-1,2.16-2,3.17-3A12.75,12.75,0,0,1,27.12,12.83Z"/></g></g></svg>