<svg xmlns="http://www.w3.org/2000/svg" viewBox="0 0 19.24 14.43"><defs><style>.cls-1{fill:#5a8589;}.cls-2{fill:#fff;opacity:0.49;}</style></defs><g id="Calque_2" data-name="Calque 2"><g id="Calque_3" data-name="Calque 3"><path class="cls-1" d="M14.81,7s2-5.45-.69-6.82S1.86,5,.16,8.71s10.56,7.15,14.65,5.11S22.3,9.05,14.81,7Z"/><path class="cls-2" d="M14.81,7a5,5,0,0,0-2.69-.85l.07-.07-.68-.16A20.59,20.59,0,0,0,7.65,5.3,17.7,17.7,0,0,0,10,6.3a13.94,13.94,0,0,0-2.39.6,21.23,21.23,0,0,0-6.42,3.51c2.24-1,4.43-1.95,6.69-2.71a21,21,0,0,1,2.19-.62l-.79.86a18.08,18.08,0,0,0-1.62,2.13A17.06,17.06,0,0,0,9.78,8.45c.6-.53,1.18-1.08,1.73-1.65A6.86,6.86,0,0,1,14.81,7Z"/></g></g></svg>