<svg xmlns="http://www.w3.org/2000/svg" viewBox="0 0 95.85 9.53"><defs><style>.cls-1{fill:#5a8589;}.cls-2{fill:#313f4d;}</style></defs><g id="Calque_2" data-name="Calque 2"><g id="Calque_3" data-name="Calque 3"><path class="cls-1" d="M94,6.21A337.13,337.13,0,0,1,0,6.28c31.79-5,64.57-10,95.85-2.39Z"/><path class="cls-2" d="M16.69,5.84c3.22-.26,6.44-.48,9.65-.69s6.45-.36,9.67-.52C42.45,4.32,48.9,4.14,55.35,4l4.84,0L65,4c1.62,0,3.23,0,4.84.07s3.23,0,4.84.14A118.22,118.22,0,0,1,94,6.21l-2.39-.37-1.19-.18c-.4-.07-.8-.13-1.2-.16-1.61-.14-3.21-.32-4.82-.44l-4.82-.29c-1.61-.08-3.22-.12-4.83-.17-6.44-.17-12.89-.21-19.34-.08S42.47,4.78,36,5q-4.83.17-9.66.38C23.13,5.53,19.91,5.66,16.69,5.84Z"/></g></g></svg>