<svg xmlns="http://www.w3.org/2000/svg" viewBox="0 0 25.85 20.42"><defs><style>.cls-1{fill:#5a8589;}.cls-2{fill:#fff;opacity:0.49;}</style></defs><g id="Calque_2" data-name="Calque 2"><g id="Calque_3" data-name="Calque 3"><path class="cls-1" d="M5.41,10.81S1.59,4.06,5,1,22.44,2.46,25.47,7,12.66,21.46,6.76,20.34-4.27,16.85,5.41,10.81Z"/><path class="cls-2" d="M5.41,10.81A8.25,8.25,0,0,1,8.86,8.49l-.1-.07.88-.52a31.4,31.4,0,0,1,5.07-2.5,29.94,29.94,0,0,1-3,2.38A18.07,18.07,0,0,1,15.1,7.6a24.64,24.64,0,0,1,9.33,2.19c-3.21-.39-6.35-.84-9.54-.95a26.43,26.43,0,0,0-3.08.06c.42.29.83.57,1.24.87a20,20,0,0,1,2.6,2.29,19.24,19.24,0,0,1-3.19-1.36c-.91-.49-1.79-1-2.65-1.58A10.32,10.32,0,0,0,5.41,10.81Z"/></g></g></svg>