<svg xmlns="http://www.w3.org/2000/svg" viewBox="0 0 104.51 451.44"><defs><style>.cls-1{isolation:isolate;}.cls-2{fill:#5a8589;}.cls-3{fill:#313f4d;}.cls-4,.cls-6{fill:#d96b20;}.cls-5{fill:#fcd66a;}.cls-6{mix-blend-mode:multiply;opacity:0.42;}.cls-7{fill:#fff;opacity:0.46;}</style></defs><g class="cls-1"><g id="Calque_2" data-name="Calque 2"><g id="Calque_3" data-name="Calque 3"><path class="cls-2" d="M45.37,293.69A1053.69,1053.69,0,0,1,45.16,0c15.61,99.37,31.13,201.84,7.47,299.61Z"/><path class="cls-3" d="M46.53,52.18c.8,10,1.49,20.11,2.15,30.17s1.14,20.13,1.64,30.21c1,20.14,1.53,40.3,1.9,60.47l.13,15.13-.06,15.13c0,5-.11,10.09-.22,15.13s-.17,10.09-.46,15.12c-.81,20.14-2.15,40.38-6.24,60.15l1.15-7.48.58-3.73c.2-1.24.38-2.49.48-3.75.45-5,1-10,1.38-15l.92-15.08c.23-5,.35-10.07.53-15.11.51-20.14.64-40.29.26-60.45s-.83-40.3-1.54-60.44q-.54-15.12-1.2-30.22C47.51,72.32,47.08,62.25,46.53,52.18Z"/><path class="cls-2" d="M58.51,287.12A782.89,782.89,0,0,1,77.05,69.69C82.28,144.25,87.25,221.1,63.51,292Z"/><path class="cls-3" d="M74.75,108.4c0,7.49-.19,15-.33,22.48s-.44,15-.71,22.46c-.57,15-1.44,29.94-2.44,44.9l-.87,11.2-1,11.2c-.31,3.74-.72,7.46-1.13,11.19S67.5,239.28,67,243c-1.88,14.85-4.16,29.75-8.45,44.12l1.33-5.46.66-2.72c.23-.91.45-1.82.6-2.75.65-3.68,1.38-7.36,2-11.05L64.72,254c.49-3.72.9-7.44,1.35-11.15,1.66-14.88,3-29.79,4-44.74s2-29.89,2.71-44.85q.57-11.22,1-22.44C74.19,123.37,74.51,115.89,74.75,108.4Z"/><path class="cls-2" d="M34.55,289.44A782.51,782.51,0,0,1,5.16,73.2c21.39,71.62,43,145.53,35.33,219.88Z"/><path class="cls-3" d="M11.36,111.49c1.59,7.32,3.1,14.66,4.59,22s2.84,14.71,4.21,22.08c2.72,14.74,5.14,29.53,7.43,44.34L29.19,211l1.46,11.15c.51,3.71.92,7.44,1.34,11.16s.89,7.44,1.17,11.18c1.41,14.91,2.44,29.94,1.39,44.91l.11-5.62.05-2.8c0-.94,0-1.87,0-2.81-.16-3.74-.26-7.48-.48-11.22l-.82-11.19c-.34-3.73-.75-7.45-1.11-11.18-1.64-14.88-3.55-29.74-5.84-44.54s-4.62-29.59-7.15-44.35q-1.91-11.08-3.89-22.13C14.09,126.22,12.77,118.85,11.36,111.49Z"/><path class="cls-4" d="M6.17,264v76.64c0,11.36,8.6,20.64,19.11,20.64h49c10.52,0,19.12-9.28,19.12-20.64V264Z"/><path class="cls-5" d="M48.86,333.18c-3.21,1.92-8.44.26-9.17-3.73-2.08-11.53-2.06-23.25-3-34.88-10.67,11.05-20.38,23-30.53,34.52v11.57c0,11.36,8.6,20.64,19.11,20.64h49c10.52,0,19.12-9.28,19.12-20.64v-39C79.12,313,64.51,323.79,48.86,333.18Z"/><path class="cls-6" d="M34.1,351c-20.53-22.28-16.85-58.56-16.48-87H6.17v76.64c0,11.36,8.6,20.64,19.11,20.64h25A40.52,40.52,0,0,1,34.1,351Z"/><path class="cls-7" d="M81.24,264c-4.35,28.34-.31,59.09-12.63,85.6a54.48,54.48,0,0,1-7.44,11.68H74.23c10.52,0,19.12-9.28,19.12-20.64V264Z"/><path class="cls-3" d="M104.47,436.24l-21-112.82H96.63a2.91,2.91,0,1,0,0-5.82H3.51a2.91,2.91,0,0,0,0,5.82H21.05L0,436.24a2.18,2.18,0,1,0,4.29.8L25.49,323.42H52.26V449.49a2,2,0,1,0,3.9,0V323.42H79L100.18,437a2.18,2.18,0,1,0,4.29-.8Z"/></g></g></g></svg>