<svg xmlns="http://www.w3.org/2000/svg" viewBox="0 0 32.55 80.87"><defs><style>.cls-1{fill:#fcd66a;}.cls-2{fill:#5a8589;}</style></defs><g id="Calque_2" data-name="Calque 2"><g id="Calque_3" data-name="Calque 3"><path class="cls-1" d="M29.36,55a2.83,2.83,0,0,0-.44-5.63H4.33a2.83,2.83,0,0,0-1,5.47,16.27,16.27,0,1,0,29.26,9.8A16.11,16.11,0,0,0,29.36,55Z"/><path class="cls-2" d="M10.42,49.18l-.6-13.91S3.7,31.19,4.68,23.66s3.75.81,5.55,2.79S7.77-1.44,12.75.05s5.43,31.82,5.43,31.82,2.46-11.87,4.2-8.63.37,19,.37,19l-.33,6.93Z"/></g></g></svg>