<svg xmlns="http://www.w3.org/2000/svg" viewBox="0 0 88.42 216.12"><defs><style>.cls-1{isolation:isolate;}.cls-2{fill:#313f4d;}.cls-3,.cls-5,.cls-8{fill:#fff;}.cls-3{opacity:0.21;}.cls-4{fill:#5a8589;}.cls-5{opacity:0.49;}.cls-6,.cls-7{fill:#d96b20;}.cls-7{mix-blend-mode:multiply;opacity:0.42;}</style></defs><g class="cls-1"><g id="Calque_2" data-name="Calque 2"><g id="Calque_3" data-name="Calque 3"><ellipse class="cls-2" cx="44.56" cy="205.03" rx="35.65" ry="11.09"/><polygon class="cls-2" points="78.27 204.03 87.03 113.85 85.64 113.63 76.85 204.03 78.27 204.03"/><polygon class="cls-2" points="11.79 204.03 42.58 126.79 74.11 204.03 75.69 204.03 42.56 122.87 11.04 201.97 3.48 117.05 2.09 117.26 9.81 204.03 11.79 204.03"/><polygon class="cls-2" points="47.6 204.03 73.06 121.75 71.75 121.09 46.09 204.03 47.6 204.03"/><polygon class="cls-2" points="44.03 204.03 12.7 120.18 11.44 120.96 42.48 204.03 44.03 204.03"/><path class="cls-2" d="M88.42,113.74c0,6.13-19.64,11.09-43.86,11.09S.7,119.87.7,113.74s19.63-11.09,43.86-11.09S88.42,107.62,88.42,113.74Z"/><ellipse class="cls-3" cx="43.86" cy="112.04" rx="43.86" ry="9.38"/><path class="cls-4" d="M30.45,26S26,16.32,20.74,18.09,11,40.15,13.68,47.2s23-4.41,25.59-12.35S42.8,19,30.45,26Z"/><path class="cls-5" d="M30.45,26a9.23,9.23,0,0,0-4.57,2.38v-.17l-1.09.66A36.63,36.63,0,0,0,19,33.09a32,32,0,0,0,4.32-1.75A26.51,26.51,0,0,0,21,35.23a39.09,39.09,0,0,0-3.76,12.86c1.66-4.15,3.22-8.26,5.16-12.17a35.87,35.87,0,0,1,2-3.65c0,.71.05,1.43.09,2.14a32.13,32.13,0,0,0,.67,4.85,33.44,33.44,0,0,0,.66-4.85c.08-1.46.12-2.92.09-4.38A12.71,12.71,0,0,1,30.45,26Z"/><path class="cls-4" d="M55.33,9S58.7-1.1,64.15.1,76.12,21,74.22,28.32s-23.27-2-26.74-9.61S42.31,3.29,55.33,9Z"/><path class="cls-5" d="M55.33,9a9.26,9.26,0,0,1,4.8,1.9l0-.18,1.16.55a37.65,37.65,0,0,1,6.21,3.55A31.59,31.59,0,0,1,63,13.55a27.17,27.17,0,0,1,2.72,3.62,39.19,39.19,0,0,1,5.09,12.39c-2.09-3.95-4.07-7.87-6.4-11.55A39.74,39.74,0,0,0,62,14.58c0,.72.1,1.43.13,2.15A30.86,30.86,0,0,1,62,21.62a32.05,32.05,0,0,1-1.16-4.76c-.24-1.44-.43-2.89-.56-4.35A12.81,12.81,0,0,0,55.33,9Z"/><path class="cls-4" d="M41,70C39.81,31.87,43,11.07,50.42,8.19c3.73-1.45,6.89,2.19,7,2.35l-1.18,1s-2.58-3-5.28-1.9C47.17,11.13,41,20.94,42.58,70Z"/><path class="cls-4" d="M37,72.55c-1.76-44.34-6-45.82-6.19-45.86,0,0,.09,0,.19-.08l-1-1.17a1.4,1.4,0,0,1,1.48-.18c4.41,1.88,6.31,26.72,7.12,47.23Z"/><path class="cls-4" d="M46.6,71c-.58-15.08,1.06-23,5-24.3C55.84,45.36,60.49,52.18,61,53l-1.3.86c-1.22-1.85-5-6.45-7.6-5.62-1.78.58-4.65,4.3-3.94,22.76Z"/><polygon class="cls-6" points="66.38 111.55 24.62 111.55 14.8 67.29 74.57 67.29 66.38 111.55"/><path class="cls-7" d="M38.43,96.49a118,118,0,0,1-17.55-29.2H14.8l9.82,44.26H54.28A73.31,73.31,0,0,1,38.43,96.49Z"/><path class="cls-8" d="M27.08,78.57a2,2,0,1,1-2-2.09A2.07,2.07,0,0,1,27.08,78.57Z"/><ellipse class="cls-8" cx="35.68" cy="88.17" rx="2.05" ry="2.09"/><path class="cls-8" d="M47.55,77.31a2,2,0,1,1-2-2.08A2.07,2.07,0,0,1,47.55,77.31Z"/><path class="cls-8" d="M47.14,101.53a2,2,0,1,1-2-2.09A2.07,2.07,0,0,1,47.14,101.53Z"/><ellipse class="cls-8" cx="57.78" cy="87.33" rx="2.05" ry="2.09"/><ellipse class="cls-8" cx="58.19" cy="104.45" rx="2.05" ry="2.09"/><path class="cls-8" d="M67.61,76.48a2,2,0,1,1-2-2.09A2.07,2.07,0,0,1,67.61,76.48Z"/><path class="cls-8" d="M32.4,105.28a2,2,0,1,1-2-2.08A2.06,2.06,0,0,1,32.4,105.28Z"/><path class="cls-4" d="M60.35,53.39s4.41-9.7,9.71-7.94,9.7,22.06,7.06,29.12-23-4.41-25.59-12.35S48,46.34,60.35,53.39Z"/><path class="cls-5" d="M60.35,53.39a9.24,9.24,0,0,1,4.57,2.39V55.6l1.09.67a37.21,37.21,0,0,1,5.8,4.18,30.69,30.69,0,0,1-4.32-1.74,26.51,26.51,0,0,1,2.33,3.89,39.1,39.1,0,0,1,3.76,12.85c-1.66-4.15-3.22-8.26-5.16-12.16a35.19,35.19,0,0,0-2-3.66c0,.72-.05,1.43-.09,2.15a33.82,33.82,0,0,1-.66,4.85A32.49,32.49,0,0,1,65,61.78c-.08-1.46-.12-2.93-.09-4.39A12.71,12.71,0,0,0,60.35,53.39Z"/></g></g></g></svg>