<svg xmlns="http://www.w3.org/2000/svg" viewBox="0 0 50.32 70.96"><defs><style>.cls-1{isolation:isolate;}.cls-2{fill:#5a8589;}.cls-3{fill:#fcd66a;}.cls-4{fill:#d96b20;mix-blend-mode:multiply;opacity:0.42;}.cls-5,.cls-6,.cls-8{fill:#fff;}.cls-5{opacity:0.21;}.cls-6{opacity:0.32;}.cls-7{opacity:0.75;}</style></defs><g class="cls-1"><g id="Calque_2" data-name="Calque 2"><g id="Calque_3" data-name="Calque 3"><path class="cls-2" d="M4.83,38S-1.46,19.59.32,15.15,17.39,33.29,15.08,38,4.83,38,4.83,38Z"/><path class="cls-2" d="M22.21,34.36s3.52-19.13,7.25-22.14,6,24.18,1.69,27.16S22.21,34.36,22.21,34.36Z"/><path class="cls-2" d="M13.39,35.23S12.49,6.92,15.51.71s11.56,30,7.94,36.48S13.39,35.23,13.39,35.23Z"/><path class="cls-2" d="M43.12,38.9s8.34-27.06,7.07-33.85S31.12,30.9,32.89,38.13,43.12,38.9,43.12,38.9Z"/><path class="cls-3" d="M3.69,38c0,.84-.08,1.68-.08,2.53C3.61,57.34,13.43,71,25.53,71S47.45,57.34,47.45,40.53c0-.85,0-1.69-.08-2.53Z"/><path class="cls-4" d="M24.81,69.32C16.25,63.9,12.61,50.56,11.87,38H4.49C5.9,47.5,7.33,56.78,13,63.64a27,27,0,0,0,8,6.64,15.92,15.92,0,0,0,7,.5A13.71,13.71,0,0,1,24.81,69.32Z"/><path class="cls-5" d="M47.37,38h-7.7a94.8,94.8,0,0,1-.44,12.37c-.77,7-3.34,15.12-7.68,19.42,9.18-3.63,15.9-15.35,15.9-29.26C47.45,39.68,47.42,38.84,47.37,38Z"/><path class="cls-6" d="M47.37,38H43.49a79.55,79.55,0,0,1-4.4,26.42c5.09-5.57,8.36-14.19,8.36-23.89C47.45,39.68,47.42,38.84,47.37,38Z"/><g class="cls-7"><polygon class="cls-8" points="47.45 44.81 3.99 44.03 4 42.74 47.46 43.52 47.45 44.81"/></g><g class="cls-7"><rect class="cls-8" x="4" y="46.64" width="42.33" height="1.29"/></g></g></g></g></svg>