<svg xmlns="http://www.w3.org/2000/svg" viewBox="0 0 1280 720"><defs><style>.cls-1,.cls-17,.cls-5{fill:#e6e6e6;}.cls-18,.cls-2{fill:#c7b299;}.cls-2{stroke:#9b8b7c;}.cls-2,.cls-4{stroke-miterlimit:10;}.cls-2,.cls-3,.cls-4{stroke-width:2px;}.cls-10,.cls-27,.cls-3{fill:#333;}.cls-3,.cls-5,.cls-6,.cls-8,.cls-9{stroke:#4d4d4d;}.cls-10,.cls-11,.cls-12,.cls-13,.cls-14,.cls-15,.cls-16,.cls-17,.cls-18,.cls-19,.cls-20,.cls-21,.cls-22,.cls-23,.cls-24,.cls-25,.cls-29,.cls-3,.cls-30,.cls-31,.cls-32,.cls-33,.cls-5,.cls-6,.cls-7,.cls-8,.cls-9{stroke-linecap:round;stroke-linejoin:round;}.cls-4{fill:#1b1464;}.cls-10,.cls-11,.cls-12,.cls-13,.cls-14,.cls-15,.cls-16,.cls-17,.cls-22,.cls-29,.cls-30,.cls-31,.cls-32,.cls-33,.cls-4{stroke:#333;}.cls-10,.cls-11,.cls-12,.cls-13,.cls-14,.cls-15,.cls-16,.cls-17,.cls-18,.cls-19,.cls-20,.cls-21,.cls-22,.cls-23,.cls-24,.cls-25,.cls-29,.cls-30,.cls-31,.cls-32,.cls-33,.cls-5,.cls-6,.cls-7,.cls-8,.cls-9{stroke-width:1.5px;}.cls-6{fill:#fffdc7;}.cls-7{fill:none;}.cls-18,.cls-19,.cls-20,.cls-21,.cls-23,.cls-24,.cls-25,.cls-7{stroke:#000;}.cls-8{fill:#ffc7de;}.cls-9{fill:#d4ffd8;}.cls-11{fill:#ccc;}.cls-12{fill:#ffedd7;}.cls-13{fill:#cab86f;}.cls-14{fill:#9e005d;}.cls-15{fill:#f4f4f4;}.cls-16{fill:#ffecd9;}.cls-19{fill:#fff;}.cls-20{fill:#d9e021;}.cls-21,.cls-29{fill:#f2f2f2;}.cls-22{fill:#009245;}.cls-23{fill:#ed1e79;}.cls-24{fill:#00a99d;}.cls-25,.cls-28,.cls-33{fill:#4d4d4d;}.cls-26{fill:#1a1a1a;}.cls-30{fill:#42210b;}.cls-31{fill:#8cc63f;}.cls-32{fill:#999;}</style></defs><g id="Calque_2" data-name="Calque 2"><rect class="cls-1" x="-40.76" y="-20.56" width="1323.35" height="337.66"/><polygon class="cls-2" points="393.39 697.03 380.04 720.16 562.9 720.16 576.25 697.03 393.39 697.03"/><polygon class="cls-2" points="576.18 697.03 562.83 720.16 745.69 720.16 759.04 697.03 576.18 697.03"/><polygon class="cls-2" points="758.62 697.03 745.27 720.16 928.13 720.16 941.48 697.03 758.62 697.03"/><polygon class="cls-2" points="941.41 697.03 928.06 720.16 1110.92 720.16 1124.27 697.03 941.41 697.03"/><polygon class="cls-2" points="27.69 697.03 14.34 720.16 197.2 720.16 210.55 697.03 27.69 697.03"/><polygon class="cls-2" points="210.48 697.03 197.13 720.16 379.99 720.16 393.34 697.03 210.48 697.03"/><polygon class="cls-2" points="466.84 674.56 453.49 697.68 636.35 697.68 649.7 674.56 466.84 674.56"/><polygon class="cls-2" points="649.63 674.56 636.28 697.68 819.14 697.68 832.49 674.56 649.63 674.56"/><polygon class="cls-2" points="832.07 674.56 818.72 697.68 1001.58 697.68 1014.93 674.56 832.07 674.56"/><polygon class="cls-2" points="1014.86 674.56 1001.51 697.68 1184.37 697.68 1197.72 674.56 1014.86 674.56"/><polygon class="cls-2" points="101.13 674.56 87.78 697.68 270.65 697.68 284 674.56 101.13 674.56"/><polygon class="cls-2" points="283.93 674.56 270.57 697.68 453.44 697.68 466.79 674.56 283.93 674.56"/><polygon class="cls-2" points="661.71 337.79 648.35 360.91 831.22 360.91 844.57 337.79 661.71 337.79"/><polygon class="cls-2" points="844.5 337.79 831.14 360.91 1014.01 360.91 1027.36 337.79 844.5 337.79"/><polygon class="cls-2" points="1026.93 337.79 1013.58 360.91 1196.45 360.91 1209.8 337.79 1026.93 337.79"/><polygon class="cls-2" points="1209.72 337.79 1196.38 360.91 1379.24 360.91 1392.59 337.79 1209.72 337.79"/><polygon class="cls-2" points="296 337.79 282.65 360.91 465.52 360.91 478.87 337.79 296 337.79"/><polygon class="cls-2" points="478.79 337.79 465.44 360.91 648.31 360.91 661.66 337.79 478.79 337.79"/><polygon class="cls-2" points="735.15 315.31 721.8 338.44 904.66 338.44 918.01 315.31 735.15 315.31"/><polygon class="cls-2" points="917.94 315.31 904.59 338.44 1087.46 338.44 1100.81 315.31 917.94 315.31"/><polygon class="cls-2" points="1100.38 315.31 1087.03 338.44 1269.89 338.44 1283.24 315.31 1100.38 315.31"/><polygon class="cls-2" points="1283.17 315.31 1269.82 338.44 1452.68 338.44 1466.04 315.31 1283.17 315.31"/><polygon class="cls-2" points="369.45 315.31 356.1 338.44 538.96 338.44 552.31 315.31 369.45 315.31"/><polygon class="cls-2" points="552.24 315.31 538.89 338.44 721.75 338.44 735.1 315.31 552.24 315.31"/><polygon class="cls-2" points="540.74 652.26 527.39 675.38 710.26 675.38 723.61 652.26 540.74 652.26"/><polygon class="cls-2" points="723.53 652.26 710.18 675.38 893.05 675.38 906.4 652.26 723.53 652.26"/><polygon class="cls-2" points="905.97 652.26 892.62 675.38 1075.49 675.38 1088.84 652.26 905.97 652.26"/><polygon class="cls-2" points="1088.76 652.26 1075.41 675.38 1258.28 675.38 1271.63 652.26 1088.76 652.26"/><polygon class="cls-2" points="175.04 652.26 161.69 675.38 344.56 675.38 357.9 652.26 175.04 652.26"/><polygon class="cls-2" points="357.83 652.26 344.48 675.38 527.35 675.38 540.7 652.26 357.83 652.26"/><polygon class="cls-2" points="615.62 629.45 602.26 652.57 785.13 652.57 798.48 629.45 615.62 629.45"/><polygon class="cls-2" points="798.41 629.45 785.06 652.57 967.92 652.57 981.27 629.45 798.41 629.45"/><polygon class="cls-2" points="980.84 629.45 967.49 652.57 1150.36 652.57 1163.71 629.45 980.84 629.45"/><polygon class="cls-2" points="1163.63 629.45 1150.29 652.57 1333.15 652.57 1346.5 629.45 1163.63 629.45"/><polygon class="cls-2" points="249.91 629.45 236.56 652.57 419.43 652.57 432.78 629.45 249.91 629.45"/><polygon class="cls-2" points="432.7 629.45 419.35 652.57 602.22 652.57 615.57 629.45 432.7 629.45"/><polygon class="cls-2" points="505.88 607.23 492.53 630.36 675.39 630.36 688.74 607.23 505.88 607.23"/><polygon class="cls-2" points="688.67 607.23 675.32 630.36 858.18 630.36 871.53 607.23 688.67 607.23"/><polygon class="cls-2" points="871.11 607.23 857.76 630.36 1040.62 630.36 1053.97 607.23 871.11 607.23"/><polygon class="cls-2" points="1053.9 607.23 1040.55 630.36 1223.41 630.36 1236.76 607.23 1053.9 607.23"/><polygon class="cls-2" points="140.18 607.23 126.83 630.36 309.69 630.36 323.04 607.23 140.18 607.23"/><polygon class="cls-2" points="322.97 607.23 309.62 630.36 492.48 630.36 505.83 607.23 322.97 607.23"/><polygon class="cls-2" points="579.33 584.76 565.98 607.88 748.84 607.88 762.19 584.76 579.33 584.76"/><polygon class="cls-2" points="762.12 584.76 748.77 607.88 931.63 607.88 944.98 584.76 762.12 584.76"/><polygon class="cls-2" points="944.55 584.76 931.2 607.88 1114.07 607.88 1127.42 584.76 944.55 584.76"/><polygon class="cls-2" points="1127.35 584.76 1113.99 607.88 1296.86 607.88 1310.21 584.76 1127.35 584.76"/><polygon class="cls-2" points="213.62 584.76 200.27 607.88 383.14 607.88 396.49 584.76 213.62 584.76"/><polygon class="cls-2" points="396.41 584.76 383.06 607.88 565.93 607.88 579.28 584.76 396.41 584.76"/><polygon class="cls-2" points="653.23 562.46 639.88 585.58 822.75 585.58 836.1 562.46 653.23 562.46"/><polygon class="cls-2" points="836.02 562.46 822.67 585.58 1005.54 585.58 1018.89 562.46 836.02 562.46"/><polygon class="cls-2" points="1018.46 562.46 1005.11 585.58 1187.98 585.58 1201.33 562.46 1018.46 562.46"/><polygon class="cls-2" points="1201.25 562.46 1187.9 585.58 1370.77 585.58 1384.12 562.46 1201.25 562.46"/><polygon class="cls-2" points="287.53 562.46 274.18 585.58 457.04 585.58 470.39 562.46 287.53 562.46"/><polygon class="cls-2" points="470.32 562.46 456.97 585.58 639.84 585.58 653.19 562.46 470.32 562.46"/><polygon class="cls-2" points="728.11 539.64 714.75 562.77 897.62 562.77 910.97 539.64 728.11 539.64"/><polygon class="cls-2" points="910.9 539.64 897.54 562.77 1080.41 562.77 1093.76 539.64 910.9 539.64"/><polygon class="cls-2" points="1093.33 539.64 1079.98 562.77 1262.85 562.77 1276.2 539.64 1093.33 539.64"/><polygon class="cls-2" points="1276.13 539.64 1262.78 562.77 1445.64 562.77 1458.99 539.64 1276.13 539.64"/><polygon class="cls-2" points="362.4 539.64 349.05 562.77 531.92 562.77 545.27 539.64 362.4 539.64"/><polygon class="cls-2" points="545.19 539.64 531.84 562.77 714.71 562.77 728.06 539.64 545.19 539.64"/><polygon class="cls-2" points="436.85 517.01 423.5 540.14 606.37 540.14 619.72 517.01 436.85 517.01"/><polygon class="cls-2" points="619.64 517.01 606.29 540.14 789.16 540.14 802.51 517.01 619.64 517.01"/><polygon class="cls-2" points="802.08 517.01 788.73 540.14 971.59 540.14 984.95 517.01 802.08 517.01"/><polygon class="cls-2" points="984.87 517.01 971.52 540.14 1154.38 540.14 1167.74 517.01 984.87 517.01"/><polygon class="cls-2" points="71.15 517.01 57.8 540.14 240.66 540.14 254.01 517.01 71.15 517.01"/><polygon class="cls-2" points="253.94 517.01 240.59 540.14 423.45 540.14 436.8 517.01 253.94 517.01"/><polygon class="cls-2" points="510.3 494.54 496.95 517.66 679.81 517.66 693.16 494.54 510.3 494.54"/><polygon class="cls-2" points="693.09 494.54 679.74 517.66 862.6 517.66 875.95 494.54 693.09 494.54"/><polygon class="cls-2" points="875.53 494.54 862.18 517.66 1045.04 517.66 1058.39 494.54 875.53 494.54"/><polygon class="cls-2" points="1058.32 494.54 1044.97 517.66 1227.83 517.66 1241.18 494.54 1058.32 494.54"/><polygon class="cls-2" points="144.6 494.54 131.25 517.66 314.11 517.66 327.46 494.54 144.6 494.54"/><polygon class="cls-2" points="327.39 494.54 314.04 517.66 496.9 517.66 510.25 494.54 327.39 494.54"/><polygon class="cls-2" points="584.21 472.24 570.86 495.36 753.72 495.36 767.07 472.24 584.21 472.24"/><polygon class="cls-2" points="767 472.24 753.65 495.36 936.51 495.36 949.86 472.24 767 472.24"/><polygon class="cls-2" points="949.44 472.24 936.09 495.36 1118.95 495.36 1132.3 472.24 949.44 472.24"/><polygon class="cls-2" points="1132.23 472.24 1118.88 495.36 1301.74 495.36 1315.09 472.24 1132.23 472.24"/><polygon class="cls-2" points="218.5 472.24 205.15 495.36 388.02 495.36 401.37 472.24 218.5 472.24"/><polygon class="cls-2" points="401.3 472.24 387.94 495.36 570.81 495.36 584.16 472.24 401.3 472.24"/><polygon class="cls-2" points="659.08 449.43 645.73 472.55 828.59 472.55 841.94 449.43 659.08 449.43"/><polygon class="cls-2" points="841.87 449.43 828.52 472.55 1011.38 472.55 1024.73 449.43 841.87 449.43"/><polygon class="cls-2" points="1024.31 449.43 1010.96 472.55 1193.82 472.55 1207.17 449.43 1024.31 449.43"/><polygon class="cls-2" points="1207.1 449.43 1193.75 472.55 1376.61 472.55 1389.96 449.43 1207.1 449.43"/><polygon class="cls-2" points="293.38 449.43 280.03 472.55 462.89 472.55 476.24 449.43 293.38 449.43"/><polygon class="cls-2" points="476.17 449.43 462.82 472.55 645.68 472.55 659.03 449.43 476.17 449.43"/><polygon class="cls-2" points="549.34 427.21 535.99 450.33 718.86 450.33 732.21 427.21 549.34 427.21"/><polygon class="cls-2" points="732.13 427.21 718.78 450.33 901.65 450.33 915 427.21 732.13 427.21"/><polygon class="cls-2" points="914.57 427.21 901.22 450.33 1084.08 450.33 1097.43 427.21 914.57 427.21"/><polygon class="cls-2" points="1097.36 427.21 1084.01 450.33 1266.88 450.33 1280.22 427.21 1097.36 427.21"/><polygon class="cls-2" points="183.64 427.21 170.29 450.33 353.15 450.33 366.5 427.21 183.64 427.21"/><polygon class="cls-2" points="366.43 427.21 353.08 450.33 535.94 450.33 549.29 427.21 366.43 427.21"/><polygon class="cls-2" points="622.79 404.74 609.44 427.86 792.3 427.86 805.65 404.74 622.79 404.74"/><polygon class="cls-2" points="805.58 404.74 792.23 427.86 975.09 427.86 988.44 404.74 805.58 404.74"/><polygon class="cls-2" points="988.02 404.74 974.67 427.86 1157.53 427.86 1170.88 404.74 988.02 404.74"/><polygon class="cls-2" points="1170.81 404.74 1157.46 427.86 1340.32 427.86 1353.67 404.74 1170.81 404.74"/><polygon class="cls-2" points="257.09 404.74 243.74 427.86 426.6 427.86 439.95 404.74 257.09 404.74"/><polygon class="cls-2" points="439.88 404.74 426.53 427.86 609.39 427.86 622.74 404.74 439.88 404.74"/><polygon class="cls-2" points="696.7 382.44 683.35 405.56 866.21 405.56 879.56 382.44 696.7 382.44"/><polygon class="cls-2" points="879.49 382.44 866.14 405.56 1049 405.56 1062.35 382.44 879.49 382.44"/><polygon class="cls-2" points="1061.92 382.44 1048.58 405.56 1231.44 405.56 1244.79 382.44 1061.92 382.44"/><polygon class="cls-2" points="1244.72 382.44 1231.37 405.56 1414.23 405.56 1427.58 382.44 1244.72 382.44"/><polygon class="cls-2" points="330.99 382.44 317.64 405.56 500.51 405.56 513.86 382.44 330.99 382.44"/><polygon class="cls-2" points="513.78 382.44 500.43 405.56 683.3 405.56 696.65 382.44 513.78 382.44"/><polygon class="cls-2" points="771.57 359.62 758.22 382.75 941.08 382.75 954.43 359.62 771.57 359.62"/><polygon class="cls-2" points="954.36 359.62 941.01 382.75 1123.87 382.75 1137.22 359.62 954.36 359.62"/><polygon class="cls-2" points="1136.8 359.62 1123.45 382.75 1306.31 382.75 1319.66 359.62 1136.8 359.62"/><polygon class="cls-2" points="405.87 359.62 392.51 382.75 575.38 382.75 588.73 359.62 405.87 359.62"/><polygon class="cls-2" points="588.66 359.62 575.31 382.75 758.17 382.75 771.52 359.62 588.66 359.62"/><polygon class="cls-2" points="-153.32 697.42 -166.67 720.54 16.2 720.54 29.55 697.42 -153.32 697.42"/><polygon class="cls-2" points="-79.87 674.95 -93.22 698.07 89.64 698.07 102.99 674.95 -79.87 674.95"/><polygon class="cls-2" points="-67.79 338.18 -81.14 361.3 101.72 361.3 115.07 338.18 -67.79 338.18"/><polygon class="cls-2" points="115 338.18 101.65 361.3 284.51 361.3 297.86 338.18 115 338.18"/><polygon class="cls-2" points="-176.78 315.7 -190.13 338.82 -7.27 338.82 6.08 315.7 -176.78 315.7"/><polygon class="cls-2" points="5.65 315.7 -7.7 338.82 175.17 338.82 188.52 315.7 5.65 315.7"/><polygon class="cls-2" points="188.44 315.7 175.09 338.82 357.96 338.82 371.31 315.7 188.44 315.7"/><polygon class="cls-2" points="-5.96 652.65 -19.31 675.77 163.55 675.77 176.9 652.65 -5.96 652.65"/><polygon class="cls-2" points="-113.88 629.83 -127.23 652.96 55.63 652.96 68.98 629.83 -113.88 629.83"/><polygon class="cls-2" points="68.91 629.83 55.56 652.96 238.42 652.96 251.77 629.83 68.91 629.83"/><polygon class="cls-2" points="-40.83 607.62 -54.18 630.74 128.68 630.74 142.03 607.62 -40.83 607.62"/><polygon class="cls-2" points="-150.17 585.15 -163.52 608.27 19.34 608.27 32.69 585.15 -150.17 585.15"/><polygon class="cls-2" points="32.62 585.15 19.27 608.27 202.13 608.27 215.48 585.15 32.62 585.15"/><polygon class="cls-2" points="-76.27 562.85 -89.62 585.97 93.25 585.97 106.6 562.85 -76.27 562.85"/><polygon class="cls-2" points="106.53 562.85 93.17 585.97 276.04 585.97 289.39 562.85 106.53 562.85"/><polygon class="cls-2" points="-183.83 540.03 -197.18 563.15 -14.32 563.15 -0.97 540.03 -183.83 540.03"/><polygon class="cls-2" points="-1.39 540.03 -14.74 563.15 168.12 563.15 181.47 540.03 -1.39 540.03"/><polygon class="cls-2" points="181.4 540.03 168.05 563.15 350.91 563.15 364.26 540.03 181.4 540.03"/><polygon class="cls-2" points="-109.86 517.4 -123.21 540.52 59.66 540.52 73.01 517.4 -109.86 517.4"/><polygon class="cls-2" points="-36.41 494.93 -49.76 518.05 133.1 518.05 146.46 494.93 -36.41 494.93"/><polygon class="cls-2" points="-145.29 472.63 -158.64 495.75 24.22 495.75 37.57 472.63 -145.29 472.63"/><polygon class="cls-2" points="37.5 472.63 24.15 495.75 207.01 495.75 220.36 472.63 37.5 472.63"/><polygon class="cls-2" points="-70.42 449.81 -83.77 472.94 99.09 472.94 112.44 449.81 -70.42 449.81"/><polygon class="cls-2" points="112.37 449.81 99.02 472.94 281.88 472.94 295.24 449.81 112.37 449.81"/><polygon class="cls-2" points="-180.16 427.6 -193.51 450.72 -10.64 450.72 2.71 427.6 -180.16 427.6"/><polygon class="cls-2" points="2.63 427.6 -10.72 450.72 172.15 450.72 185.5 427.6 2.63 427.6"/><polygon class="cls-2" points="-106.71 405.13 -120.06 428.25 62.8 428.25 76.15 405.13 -106.71 405.13"/><polygon class="cls-2" points="76.08 405.13 62.73 428.25 245.59 428.25 258.94 405.13 76.08 405.13"/><polygon class="cls-2" points="-32.8 382.82 -46.15 405.95 136.71 405.95 150.06 382.82 -32.8 382.82"/><polygon class="cls-2" points="149.99 382.82 136.64 405.95 319.5 405.95 332.85 382.82 149.99 382.82"/><polygon class="cls-2" points="-140.37 360.01 -153.72 383.13 29.14 383.13 42.49 360.01 -140.37 360.01"/><polygon class="cls-2" points="42.07 360.01 28.72 383.13 211.58 383.13 224.93 360.01 42.07 360.01"/><polygon class="cls-2" points="224.86 360.01 211.51 383.13 394.37 383.13 407.72 360.01 224.86 360.01"/><polygon class="cls-2" points="1124.07 697.26 1110.72 720.38 1293.58 720.38 1306.93 697.26 1124.07 697.26"/><polygon class="cls-2" points="1197.52 674.78 1184.17 697.91 1367.03 697.91 1380.38 674.78 1197.52 674.78"/><polygon class="cls-2" points="1271.42 652.48 1258.07 675.61 1440.94 675.61 1454.29 652.48 1271.42 652.48"/><polygon class="cls-2" points="1236.56 607.46 1223.21 630.58 1406.07 630.58 1419.42 607.46 1236.56 607.46"/><polygon class="cls-2" points="1167.53 517.24 1154.18 540.36 1337.05 540.36 1350.4 517.24 1167.53 517.24"/><polygon class="cls-2" points="1240.98 494.76 1227.63 517.89 1410.49 517.89 1423.84 494.76 1240.98 494.76"/><polygon class="cls-2" points="1280.02 427.44 1266.67 450.56 1449.54 450.56 1462.88 427.44 1280.02 427.44"/><polygon class="cls-3" points="188.23 0.41 188.23 315.41 81.09 496.16 81.09 0.41 188.23 0.41"/><polygon class="cls-4" points="179.73 0.44 179.73 314.44 89.3 467.32 89.3 -20.56 179.73 0.44"/></g><g id="cadres"><rect class="cls-5" x="454.21" y="149.54" width="39.16" height="29.73"/><rect class="cls-6" x="458.16" y="151.56" width="31.25" height="25.86"/><polygon class="cls-5" points="495.36 148.2 493.37 149.54 454.21 149.54 456.19 148.2 495.36 148.2"/><polyline class="cls-7" points="493.37 179.27 495.36 177.43 495.36 148.2"/><rect class="cls-5" x="452.22" y="69.87" width="52.19" height="32.65"/><rect class="cls-6" x="457.49" y="72.09" width="41.65" height="28.41"/><polygon class="cls-5" points="507.06 68.4 504.42 69.87 452.22 69.87 454.87 68.4 507.06 68.4"/><polyline class="cls-7" points="504.42 102.52 507.06 100.5 507.06 68.4"/><rect class="cls-5" x="264.6" y="168.29" width="22.94" height="32.48"/><rect class="cls-8" x="266.92" y="170.5" width="18.3" height="28.25"/><polygon class="cls-5" points="288.7 166.83 287.54 168.29 264.6 168.29 265.76 166.83 288.7 166.83"/><polyline class="cls-7" points="287.54 200.76 288.7 198.75 288.7 166.83"/><rect class="cls-5" x="391.15" y="142.56" width="43.39" height="61.44"/><rect class="cls-8" x="395.53" y="146.73" width="34.63" height="53.45"/><polygon class="cls-5" points="436.75 139.8 434.54 142.56 391.15 142.56 393.36 139.8 436.75 139.8"/><polyline class="cls-7" points="434.54 204 436.75 200.18 436.75 139.8"/><rect class="cls-5" x="256.38" y="38.57" width="63.65" height="78.64"/><rect class="cls-9" x="262.81" y="43.92" width="50.79" height="68.41"/><polygon class="cls-5" points="323.26 35.04 320.03 38.58 256.38 38.58 259.62 35.04 323.26 35.04"/><polyline class="cls-7" points="320.03 117.21 323.26 112.33 323.26 35.04"/></g><g id="Calque_3" data-name="Calque 3"><rect class="cls-10" x="989.68" y="17.47" width="148.78" height="70.03" rx="18.33"/><polygon class="cls-11" points="629.7 415.39 549.99 550.73 126.57 550.73 201.94 415.78 629.7 415.39"/><polygon class="cls-12" points="587.55 525.64 543.39 600.61 308.83 600.61 350.58 525.85 587.55 525.64"/><polygon class="cls-13" points="257.99 411.18 488.47 411.18 458.28 463.52 223.96 463.52 257.99 411.18"/><line class="cls-13" x1="223.73" y1="451.22" x2="223.73" y2="510.89"/><line class="cls-13" x1="457.97" y1="450.97" x2="457.97" y2="511.14"/><line class="cls-13" x1="488.47" y1="397.87" x2="488.47" y2="458.53"/><polygon class="cls-13" points="258.61 397.87 488.32 397.87 458.13 450.22 223.81 450.22 258.61 397.87"/><path class="cls-14" d="M194,579.93v79h26.13v-79Q212,571.62,194,579.93Z"/><path class="cls-14" d="M194,579.93q15.87-5.74,26.13,0l34.67-60c-8.27-2.95-17-2.67-26.16,0Z"/><polygon class="cls-14" points="254.83 598.75 254.83 519.93 220.16 579.93 220.16 658.92 254.83 598.75"/><path class="cls-15" d="M254.28,550.68c72.08-4.58,146.36-4.07,222.17,0l-8.51,20.23-225.22.9Z"/><path class="cls-15" d="M443.49,573.88V660H220.16V573.88A996.29,996.29,0,0,1,443.49,573.88Z"/><path class="cls-14" d="M443.27,581.05v79H469.4v-79C461.45,577.8,452.63,578.29,443.27,581.05Z"/><path class="cls-14" d="M443.27,581.05a47.17,47.17,0,0,1,19.27-1.19c4,.56,6.86,1.19,6.86,1.19l34.67-60c-8.93-4.2-17.66-4.41-26.16,0Z"/><polygon class="cls-14" points="504.07 599.87 504.07 521.05 469.4 581.05 469.4 660.04 504.07 599.87"/><path class="cls-15" d="M220.16,573.93l10-15.95c76.44-6.15,150.5-5.43,222.87.11l-9.55,15.84Q329.76,564.18,220.16,573.93Z"/><polygon class="cls-16" points="443.49 573.93 453.04 558.09 453.04 566.01 443.49 581.61 443.49 573.93"/><path class="cls-14" d="M218.21,287.23v79h26.13v-79C235.78,282,227.06,282.18,218.21,287.23Z"/><path class="cls-14" d="M218.21,287.23a39.68,39.68,0,0,1,26.13,0l34.67-60a41.42,41.42,0,0,0-26.16,0Z"/><polygon class="cls-14" points="279.01 306.05 279.01 227.23 244.34 287.23 244.34 366.23 279.01 306.05"/><rect class="cls-15" x="279.01" y="220.23" width="223.33" height="86.17"/><path class="cls-15" d="M492.79,236v86.17H269.46V236A816.42,816.42,0,0,1,492.79,236Z"/><path class="cls-15" d="M269.46,236.32l10-15.95c71.19-6.3,145.72-5.77,222.87.11l-9.55,15.84A1157.07,1157.07,0,0,0,269.46,236.32Z"/><polygon class="cls-16" points="493.07 236.21 502.63 220.37 502.63 228.29 493.07 243.9 493.07 236.21"/><polygon class="cls-15" points="269.32 296.35 483.32 296.35 460.52 335.85 246.37 336.1 269.32 296.35"/><path class="cls-15" d="M269.32,282.44c69.12-9.27,144.37-8,223.66.12l-22.81,39.5-223.8.13Z"/><path class="cls-15" d="M246.37,322.34v22l221.08-.41v-22Q358.51,308.43,246.37,322.34Z"/><path class="cls-14" d="M467.45,288.35v79h26.13v-79Q482,283.17,467.45,288.35Z"/><polygon class="cls-14" points="528.25 307.17 528.25 228.35 493.58 288.35 493.58 367.35 528.25 307.17"/><path class="cls-14" d="M467.45,288.35l34.64-60c8.92-3.44,17.65-3.6,26.16,0l-34.67,60C485.14,284.8,476.42,285,467.45,288.35Z"/><polygon class="cls-13" points="621.97 321.88 596.28 366.18 589.24 366.18 614.93 321.88 621.97 321.88"/><rect class="cls-13" x="589.24" y="354.86" width="7.04" height="11.32"/><rect class="cls-13" x="841.19" y="310.56" width="7.04" height="11.32"/><polygon class="cls-13" points="848.22 321.88 822.53 366.18 815.5 366.18 841.19 321.88 848.22 321.88"/><polygon class="cls-13" points="605.45 254.61 856.44 254.61 831.43 296.74 581.13 296.74 605.45 254.61"/><polygon class="cls-13" points="856.44 254.61 856.44 310.56 831.43 354.86 831.43 296.74 856.44 254.61"/><rect class="cls-13" x="581.13" y="296.74" width="250.31" height="58.12"/><rect class="cls-13" x="815.5" y="354.86" width="7.04" height="11.32"/><rect class="cls-13" x="589.24" y="304.73" width="73.86" height="42.78"/><rect class="cls-13" x="669.67" y="304.73" width="73.86" height="42.78"/><rect class="cls-13" x="750.25" y="304.73" width="73.86" height="42.78"/><circle class="cls-13" cx="626.03" cy="316.22" r="2.91"/><circle class="cls-13" cx="784.72" cy="316.22" r="2.91"/><circle class="cls-13" cx="705.64" cy="316.22" r="2.91"/><rect class="cls-13" x="852.05" y="477.92" width="7.47" height="122.39"/><polygon class="cls-13" points="852.04 477.92 855.78 474.23 863.09 474.23 863.09 596.27 859.51 600.31 859.51 477.92 852.04 477.92"/><rect class="cls-13" x="999.44" y="477.07" width="7.47" height="122.39"/><polygon class="cls-13" points="999.44 477.07 1003.17 473.38 1010.48 473.38 1010.48 595.42 1006.9 599.46 1006.9 477.07 999.44 477.07"/><rect class="cls-13" x="913.73" y="386.24" width="7.47" height="122.39"/><polygon class="cls-13" points="913.73 386.24 917.46 382.54 924.77 382.54 924.77 504.58 921.19 508.62 921.19 386.24 913.73 386.24"/><rect class="cls-13" x="1061.62" y="382.89" width="7.47" height="122.39"/><polygon class="cls-13" points="1061.62 382.89 1065.35 379.2 1072.66 379.2 1072.66 501.24 1069.08 505.28 1069.08 382.89 1061.62 382.89"/><polygon class="cls-13" points="899.94 373.1 1082.8 373.1 1017.49 486.23 834.81 486.23 899.94 373.1"/><rect class="cls-13" x="834.81" y="486.23" width="182.68" height="8.8"/><polygon class="cls-13" points="1017.49 495.03 1082.8 379.7 1082.8 373.1 1017.49 486.23 1017.49 495.03"/><polygon class="cls-17" points="-5.74 262.72 79.37 115.31 78.61 447.41 -2.19 588.93 -5.74 262.72"/><polygon class="cls-17" points="78.61 115.31 117.98 115.31 117.98 448.26 78.61 447.46 78.61 115.31"/><polygon class="cls-17" points="-6.49 259.55 34 259.55 117.98 115.31 78.61 115.31 -6.49 259.55"/><polygon class="cls-17" points="117.98 448.26 34 588.93 -6.49 588.93 78.61 447.41 117.98 448.26"/><rect class="cls-18" x="38.44" y="489.88" width="24.58" height="35.12"/><path class="cls-19" d="M40.05,491.14l-2.16,3.57H60.83A3.12,3.12,0,0,0,63,491.14Z"/><rect class="cls-18" x="36.31" y="493.5" width="24.58" height="35.12"/><path class="cls-18" d="M60.89,493.5A7.52,7.52,0,0,0,63,489.88l0,34.45c.12,1.47-.83,2.89-2.1,4.29Z"/><rect class="cls-20" x="31.26" y="504.41" width="24.58" height="35.12"/><path class="cls-21" d="M32.88,505.68l-2.16,3.57H53.65a3.13,3.13,0,0,0,2.17-3.57Z"/><rect class="cls-20" x="29.14" y="508.04" width="24.58" height="35.12"/><path class="cls-20" d="M53.71,508a7.45,7.45,0,0,0,2.13-3.63l0,34.46c.12,1.47-.83,2.89-2.11,4.29Z"/><polygon class="cls-17" points="-7.61 531.96 32.32 531.96 116.86 384.56 77.49 384.56 -7.61 531.96"/><polyline class="cls-17" points="691.12 586.49 696.57 575.77 675.9 536.48 669.05 546.5 675.9 536.48 631.55 536.48 624.9 546.5"/><path class="cls-22" d="M638.42,540.22A61.09,61.09,0,0,1,647.61,481S660.26,515.89,638.42,540.22Z"/><path class="cls-22" d="M652.66,540.22s-11.24-33.45,22.46-55c0,0,5.4,45.49-12.28,55S652.66,540.22,652.66,540.22Z"/><path class="cls-22" d="M637.4,542S605.51,518.35,614,491.67C614,491.67,653.29,533.84,637.4,542Z"/><path class="cls-22" d="M642.89,540.22s0-.79,0-2.21c.13-10.18,2.08-52.82,25.39-74,26.59-24.21-17,66.23-17,66.23"/><path class="cls-22" d="M648.57,540.22s-42.2-35.23-35.21-64C613.36,476.22,665.93,532.39,648.57,540.22Z"/><path class="cls-22" d="M658,549.67a61.09,61.09,0,0,0-9.19-59.23S636.18,525.34,658,549.67Z"/><path class="cls-22" d="M643.79,549.67s11.23-33.45-22.47-55c0,0-5.4,45.49,12.28,55S643.79,549.67,643.79,549.67Z"/><path class="cls-22" d="M659,551.42s31.89-23.62,23.38-50.3C682.42,501.12,643.15,543.29,659,551.42Z"/><path class="cls-22" d="M653.55,549.67s0-.79,0-2.21c-.13-10.18-2.08-52.82-25.39-74-26.59-24.21,17,66.23,17,66.23"/><path class="cls-22" d="M647.87,549.67s42.2-35.23,35.21-64C683.08,485.67,630.51,541.84,647.87,549.67Z"/><polygon class="cls-17" points="669.05 546.5 624.9 546.5 602.83 586.49 624.9 626.48 669.05 626.48 691.12 586.49 669.05 546.5"/><polygon class="cls-19" points="47.59 409.73 59.03 386.97 61.65 432.13 50.2 454.66 47.59 409.73"/><path class="cls-19" d="M58.85,387.94l6.08-.35L54,409.36c-2.81,1.25-4.9,1.46-6.08.35Z"/><polygon class="cls-23" points="53.95 409.36 65.39 386.6 68.01 431.76 56.56 454.29 53.95 409.36"/><path class="cls-23" d="M47.59,409.73c1.07,1,3.09,1,6.36-.37l2.61,44.93c-2.85,1.54-5,1.67-6.36.37Z"/><polygon class="cls-19" points="73.95 371.28 81.62 357.99 81.62 385.24 73.95 398.39 73.95 371.28"/><path class="cls-19" d="M81.48,358.57h3.67l-7.34,12.71c-1.73.65-3,.7-3.67,0Z"/><polygon class="cls-23" points="77.79 371.28 85.46 357.99 85.46 385.24 77.79 398.39 77.79 371.28"/><path class="cls-23" d="M74,371.28c.61.65,1.82.71,3.84,0v27.11q-2.66,1.25-3.84,0Z"/><polygon class="cls-24" points="78.16 371.16 85.83 357.86 85.83 385.12 78.16 398.26 78.16 371.16"/><path class="cls-21" d="M85.69,358.44h3.67L82,371.16c-1.73.65-3,.7-3.67,0Z"/><polygon class="cls-24" points="82 371.16 89.67 357.86 89.67 385.12 82 398.26 82 371.16"/><path class="cls-24" d="M78.16,371.16c.61.64,1.82.7,3.83,0v27.1q-2.64,1.25-3.83,0Z"/><polygon class="cls-25" points="83.91 371.16 91.59 357.86 91.59 385.12 83.91 398.26 83.91 371.16"/><path class="cls-21" d="M91.45,358.44h3.67l-7.34,12.72c-1.74.65-3,.7-3.67,0Z"/><polygon class="cls-25" points="87.75 371.16 95.42 357.86 95.42 385.12 87.75 398.26 87.75 371.16"/><path class="cls-25" d="M83.91,371.16c.61.64,1.83.7,3.84,0v27.1q-2.64,1.25-3.84,0Z"/><rect class="cls-18" x="33.95" y="461.67" width="17.21" height="24.59"/><path class="cls-19" d="M35.08,462.55l-1.52,2.51H49.62a2.2,2.2,0,0,0,1.52-2.51Z"/><rect class="cls-18" x="32.46" y="464.21" width="17.21" height="24.59"/><path class="cls-18" d="M49.67,464.21a5.24,5.24,0,0,0,1.48-2.54V485.8a4.31,4.31,0,0,1-1.47,3Z"/><rect class="cls-18" x="30.48" y="466.82" width="17.21" height="24.59"/><path class="cls-19" d="M31.62,467.7l-1.52,2.51H46.16a2.2,2.2,0,0,0,1.52-2.51Z"/><rect class="cls-18" x="29" y="469.36" width="17.21" height="24.59"/><path class="cls-18" d="M46.21,469.36a5.24,5.24,0,0,0,1.48-2.54v24.12a4.31,4.31,0,0,1-1.47,3Z"/><rect class="cls-18" x="27.08" y="470.76" width="17.21" height="24.59"/><path class="cls-19" d="M28.21,471.64l-1.51,2.51H42.76a2.21,2.21,0,0,0,1.52-2.51Z"/><rect class="cls-18" x="25.59" y="473.3" width="17.21" height="24.59"/><path class="cls-18" d="M42.8,473.3a5.18,5.18,0,0,0,1.49-2.54v24.13a4.32,4.32,0,0,1-1.48,3Z"/><polygon class="cls-17" points="-6.49 444.98 33.44 444.98 117.98 297.57 78.61 297.57 -6.49 444.98"/><polygon class="cls-17" points="-5.74 363.08 34.19 363.08 118.73 215.67 79.37 215.67 -5.74 363.08"/><rect class="cls-17" x="-6.49" y="259.54" width="40.49" height="329.39"/><rect class="cls-11" x="987.82" y="19.97" width="148.78" height="70.03" rx="18.33"/></g><g id="Calque_7" data-name="Calque 7"><polygon class="cls-26" points="819.8 274.11 821.79 271.22 821.79 160.44 819.8 162.33 819.8 274.11"/><polygon class="cls-26" points="793.18 273.81 789.58 280.05 789.58 273.16 793.56 273.16 793.18 273.81"/><rect class="cls-27" x="784.76" y="273.81" width="4.82" height="6.24"/><polygon class="cls-26" points="641.78 274.11 638.17 280.36 638.17 273.46 642.15 273.46 641.78 274.11"/><rect class="cls-26" x="608.86" y="159.44" width="212.92" height="111.78"/><rect class="cls-27" x="606.88" y="162.33" width="212.92" height="111.78"/><rect class="cls-28" x="610.51" y="165.29" width="205.96" height="104.68"/><polygon class="cls-26" points="606.88 162.33 608.87 159.44 821.79 159.44 819.8 162.33 606.88 162.33"/><rect class="cls-27" x="633.35" y="274.11" width="4.82" height="6.24"/><polygon class="cls-29" points="980.74 326.25 967.9 348.56 998.24 348.56 1010.7 326.43 980.74 326.25"/><polygon class="cls-29" points="980.74 271.12 980.74 293.2 967.9 293.2 980.74 271.12"/><polygon class="cls-29" points="980.74 271.12 1010.7 271.29 998.24 293.43 980.74 293.2 980.74 271.12"/><polygon class="cls-30" points="980.74 278.37 967.9 300.67 998.24 300.67 1010.7 278.54 980.74 278.37"/><rect class="cls-29" x="967.9" y="293.42" width="30.34" height="55.14"/><polygon class="cls-29" points="1010.7 326.25 1010.7 271.12 998.24 293.25 998.24 348.39 1010.7 326.25"/><path class="cls-31" d="M989.22,284.29h0c-.84-.06-1.47-.65-1.39-1.31l11.1-98.17a1.48,1.48,0,0,1,1.67-1.09h0c.85.06,1.47.64,1.4,1.3l-11.11,98.17A1.47,1.47,0,0,1,989.22,284.29Z"/><path class="cls-31" d="M996.91,284.82h0c-.84-.06-1.47-.64-1.4-1.31l10.35-91.46a1.49,1.49,0,0,1,1.67-1.1h0c.85.06,1.47.65,1.4,1.31l-10.35,91.47A1.47,1.47,0,0,1,996.91,284.82Z"/><path class="cls-31" d="M992.85,290.32h0c-.83-.17-1.33-.82-1.12-1.47l14.93-46.73a1.61,1.61,0,0,1,1.86-.88h0c.83.17,1.33.82,1.12,1.47l-14.92,46.73A1.63,1.63,0,0,1,992.85,290.32Z"/><path class="cls-31" d="M987,289.86h0a1.51,1.51,0,0,1-1.72-1l-16.1-97.75c-.1-.66.49-1.26,1.33-1.35h0a1.52,1.52,0,0,1,1.73,1l16.09,97.75C988.43,289.17,987.83,289.77,987,289.86Z"/><path class="cls-31" d="M982.5,290h0a1.6,1.6,0,0,1-1.86-.88l-21.79-68.3c-.2-.65.3-1.3,1.12-1.47h0a1.62,1.62,0,0,1,1.87.88l21.78,68.31C983.83,289.22,983.33,289.88,982.5,290Z"/><path class="cls-31" d="M1006.39,245.19s-8.67-26.74,30.94-43.17C1037.55,208.16,1037.63,239.1,1006.39,245.19Z"/><path class="cls-31" d="M971.77,192.63s-31.63-11.52-17.93-61C959.79,135.94,989.06,158.68,971.77,192.63Z"/><path class="cls-31" d="M1000,189s-27.81-23.47,4.51-68.6C1008.94,127,1030.18,161,1000,189Z"/><path class="cls-31" d="M1006.25,196.54s-16.65-26.64,21.85-55.18C1030,148,1038.47,181.48,1006.25,196.54Z"/><path class="cls-31" d="M961.25,222.47s-26.36-5.61-21-46.37C945.43,178.86,971.16,193.63,961.25,222.47Z"/><path class="cls-31" d="M958.81,217.67s-9.94-29.49-15.66-36.7"/><path class="cls-31" d="M971.24,186.71S963.05,145.14,956,137"/><path class="cls-31" d="M1007.53,191s13.38-39.15,18.74-43"/><path class="cls-31" d="M999.22,183.71s2.57-50.75,5.25-54.89"/><path class="cls-31" d="M1008.93,239.79s19.13-31,25-32.59"/><path class="cls-32" d="M1143.11,292.79l-15.82,3.5-.09-3.5h-15.9s-13.09,30.87.9,52.28c0,2.47,6.72,4.46,15,4.46s15-2,15-4.46C1156.19,323.66,1143.11,292.79,1143.11,292.79Z"/><ellipse class="cls-33" cx="1127.2" cy="292.79" rx="15.91" ry="4.46"/><ellipse class="cls-30" cx="1127.2" cy="293.26" rx="14.34" ry="4.02"/><path class="cls-22" d="M1120.76,291.7s-3.76-142.88,8.92-146.62,2.86,147,2.86,147C1128.53,295,1124.6,294.72,1120.76,291.7Z"/><path class="cls-22" d="M1136.17,195.37s15.45,11.5,16.79-25.07c2.23-8.11,17.21-3.4,7.82,23s-24.68,11.18-24.68,11.18Z"/><path class="cls-22" d="M1120.24,217.27s-16.14-2.11-15.21-35.65a6.89,6.89,0,0,0-3.37-6.07c-5.76-3.5-13.68,1.23-9.5,21.14,5.14,24.5,28.08,32.47,28.08,32.47Z"/><path class="cls-22" d="M1132.35,218.06l9.87-.68"/><path class="cls-22" d="M1124.22,240.47l-10.59-8.84"/><path class="cls-22" d="M1127.93,241.89,1140,246"/><path class="cls-22" d="M1123.5,260.61l-6.64-3.57"/><path class="cls-22" d="M1130,274.4l10.21-6"/><path class="cls-22" d="M1104.1,201l5.24-4.64"/><path class="cls-22" d="M1093.88,194.4l-7.32-3.06"/><path class="cls-22" d="M1105.63,218.06l-10.21,4.6"/><path class="cls-22" d="M1125.88,170.06l-6.12-3.75"/><path class="cls-22" d="M1134.73,185.21l7-3.75"/><path class="cls-22" d="M1123.67,198.49l-6.13-3.58"/><path class="cls-22" d="M1160.1,183l8.17-3"/><path class="cls-22" d="M1149.37,206.14l2.73,2.05"/></g></svg>